<?xml version="1.0" encoding="UTF-8" standalone="no"?>
<!-- Created with Inkscape (http://www.inkscape.org/) -->

<svg
   xmlns:dc="http://purl.org/dc/elements/1.1/"
   xmlns:cc="http://creativecommons.org/ns#"
   xmlns:rdf="http://www.w3.org/1999/02/22-rdf-syntax-ns#"
   xmlns:svg="http://www.w3.org/2000/svg"
   xmlns="http://www.w3.org/2000/svg"
   xmlns:sodipodi="http://sodipodi.sourceforge.net/DTD/sodipodi-0.dtd"
   xmlns:inkscape="http://www.inkscape.org/namespaces/inkscape"
   width="500mm"
   height="507mm"
   viewBox="0 0 500 507"
   version="1.1"
   id="svg8"
   inkscape:version="0.92.4 (5da689c313, 2019-01-14)"
   sodipodi:docname="shopping_icon.svg">
  <defs
     id="defs2" />
  <sodipodi:namedview
     id="base"
     pagecolor="#ffffff"
     bordercolor="#666666"
     borderopacity="1.0"
     inkscape:pageopacity="0.0"
     inkscape:pageshadow="2"
     inkscape:zoom="0.49497475"
     inkscape:cx="628.19161"
     inkscape:cy="1017.4222"
     inkscape:document-units="mm"
     inkscape:current-layer="layer1"
     showgrid="false"
     inkscape:window-width="1600"
     inkscape:window-height="877"
     inkscape:window-x="-8"
     inkscape:window-y="-8"
     inkscape:window-maximized="1" />
  <metadata
     id="metadata5">
    <rdf:RDF>
      <cc:Work
         rdf:about="">
        <dc:format>image/svg+xml</dc:format>
        <dc:type
           rdf:resource="http://purl.org/dc/dcmitype/StillImage" />
        <dc:title />
      </cc:Work>
    </rdf:RDF>
  </metadata>
  <g
     inkscape:label="Camada 1"
     inkscape:groupmode="layer"
     id="layer1"
     transform="translate(0,210)">
    <path
       style="fill:#c2bab8;fill-opacity:1;stroke:none;stroke-width:0.26458281px;stroke-linecap:butt;stroke-linejoin:miter;stroke-opacity:1"
       d="M 123.22024,228.20834 164.41948,251.26487 164.79746,97.806536 123.97619,74.37202 Z"
       id="path842"
       inkscape:connector-curvature="0" />
    <path
       style="fill:#968a8c;stroke:none;stroke-width:0.26458332px;stroke-linecap:butt;stroke-linejoin:miter;stroke-opacity:1;fill-opacity:1"
       d="m 123.97619,74.37202 -0.37798,-8.693441 41.57738,24.190457 187.85416,-107.723206 v 7.181549 L 164.79762,97.806536 Z"
       id="path844"
       inkscape:connector-curvature="0" />
    <path
       style="fill:#e8dce0;fill-opacity:1;stroke:none;stroke-width:0.26458332px;stroke-linecap:butt;stroke-linejoin:miter;stroke-opacity:1"
       d="M 164.41964,251.26487 353.02975,142.40774 V -10.672624 L 164.79762,97.806536 Z"
       id="path846"
       inkscape:connector-curvature="0" />
    <text
       xml:space="preserve"
       style="font-style:normal;font-weight:normal;font-size:10.58333302px;line-height:1.25;font-family:sans-serif;letter-spacing:0px;word-spacing:0px;fill:#000000;fill-opacity:1;stroke:none;stroke-width:0.26458332"
       x="261.55951"
       y="159.03868"
       id="text850"><tspan
         sodipodi:role="line"
         id="tspan848"
         x="261.55951"
         y="168.69418"
         style="stroke-width:0.26458332" /></text>
    <path
       style="fill:#c83737;stroke:none;stroke-width:0.26458332px;stroke-linecap:butt;stroke-linejoin:miter;stroke-opacity:1"
       d="m 242.20715,110.65778 -4.91369,-11.717316 20.41071,-32.127957 15.49702,-6.803575 -1.13393,91.848228 -17.3869,7.9375 2.26786,-68.413712 z"
       id="path852"
       inkscape:connector-curvature="0" />
    <path
       style="fill:#c2bab8;stroke:none;stroke-width:0.26458332px;stroke-linecap:butt;stroke-linejoin:miter;stroke-opacity:1;fill-opacity:1"
       d="m 316.93304,163.19642 -0.18899,-41.57738 36.28571,-17.38691 -1e-5,38.17561 z"
       id="path854"
       inkscape:connector-curvature="0"
       sodipodi:nodetypes="ccccc" />
    <path
       style="fill:#a69da0;stroke:none;stroke-width:0.26458332px;stroke-linecap:butt;stroke-linejoin:miter;stroke-opacity:1;fill-opacity:1"
       d="m 316.93305,163.19643 36.0967,-58.9643 v 38.17561 z"
       id="path856"
       inkscape:connector-curvature="0" />
    <path
       style="fill:#a02c2c;fill-opacity:1;stroke:none;stroke-width:0.26840565px;stroke-linecap:butt;stroke-linejoin:miter;stroke-opacity:1"
       d="M 123.60412,65.782809 123.22024,-0.85776067 166.21503,24.0367 165.83114,90.294259 Z"
       id="path858"
       inkscape:connector-curvature="0" />
    <path
       style="fill:#c83737;fill-opacity:1;stroke:none;stroke-width:0.26490524px;stroke-linecap:butt;stroke-linejoin:miter;stroke-opacity:1"
       d="M 165.17559,90.294259 353.02975,-17.691262 V -84.755954 L 165.55357,24.745154 Z"
       id="path860"
       inkscape:connector-curvature="0" />
    <path
       style="fill:#a02c2c;stroke:none;stroke-width:0.26458332px;stroke-linecap:butt;stroke-linejoin:miter;stroke-opacity:1"
       d="m 196.92559,14.651781 c -10.68135,4.559187 -13.9768,13.168703 -17.00893,21.922621 -0.14908,7.727522 0.11568,15.112411 10.20536,14.363094 11.64453,-4.868878 13.29348,-11.740555 17.29241,-18.520833 0.46817,-9.252747 3.99766,-21.054766 -10.48884,-17.764882 z"
       id="path862"
       inkscape:connector-curvature="0"
       sodipodi:nodetypes="ccccc" />
    <path
       sodipodi:nodetypes="ccccc"
       inkscape:connector-curvature="0"
       id="path864"
       d="m 329.21734,-62.07739 c -10.68135,4.559187 -13.9768,13.168703 -17.00893,21.92262 -0.14908,7.727523 0.11568,15.112412 10.20536,14.363095 11.64453,-4.868878 13.29348,-11.740555 17.29241,-18.520833 0.46817,-9.252747 3.99766,-21.054766 -10.48884,-17.764882 z"
       style="fill:#a02c2c;stroke:none;stroke-width:0.26458332px;stroke-linecap:butt;stroke-linejoin:miter;stroke-opacity:1;fill-opacity:1" />
    <path
       style="fill:#ffffff;stroke:none;stroke-width:0.26458332px;stroke-linecap:butt;stroke-linejoin:miter;stroke-opacity:1"
       d="m 218.47024,15.407736 -2.26786,23.812499 89.95834,-53.294641 -0.37798,-21.166667 z"
       id="path866"
       inkscape:connector-curvature="0" />
    <path
       style="fill:#aa0000;fill-opacity:1;stroke:none;stroke-width:0.26824597px;stroke-linecap:butt;stroke-linejoin:miter;stroke-opacity:1"
       d="m 123.22024,-0.328594 60.02343,-33.96754 c 11.29256,11.181227 18.07966,23.613791 20.30322,37.3138291 L 166.31398,24.47916 Z"
       id="path868"
       inkscape:connector-curvature="0"
       sodipodi:nodetypes="ccccc" />
    <path
       style="fill:#aa0000;fill-opacity:1;stroke:none;stroke-width:0.26827487px;stroke-linecap:butt;stroke-linejoin:miter;stroke-opacity:1"
       d="m 192.30043,-39.205057 120.27737,-70.044633 10.79933,6.52843 c 5.86165,9.104402 11.60947,18.613778 12.55422,28.425886 l -123.5172,72.2207709 c -1.88001,-8.6139029 -6.69392,-17.0917969 -10.66432,-25.7056999 -2.68135,-3.965576 -4.73772,-8.141054 -9.4494,-11.424754 z"
       id="path870"
       inkscape:connector-curvature="0"
       sodipodi:nodetypes="ccccccc" />
    <path
       style="fill:#aa0000;stroke:none;stroke-width:0.26458332px;stroke-linecap:butt;stroke-linejoin:miter;stroke-opacity:1;fill-opacity:1"
       d="m 344.24316,-79.582767 c -0.82767,-4.053588 -1.9824,-8.107176 -3.87541,-12.160764 l 12.662,6.987575 z"
       id="path872"
       inkscape:connector-curvature="0"
       sodipodi:nodetypes="cccc" />
    <path
       style="fill:#b8b8b8;fill-opacity:1;stroke:none;stroke-width:0.26673186px;stroke-linecap:butt;stroke-linejoin:miter;stroke-opacity:1"
       d="m 141.8559,-10.877385 c -3.16003,-12.510996 -4.73427,-25.02199 3.81046,-37.532986 7.94779,-9.719798 16.0917,-7.156331 24.19639,-7.049342 11.76465,3.792185 20.34391,12.253802 28.59337,20.7915 9.65421,13.992277 14.54635,27.2014315 16.0039,41.0576532 -0.24148,9.3012418 -1.21925,18.7676568 -6.82473,24.9598848 -5.28146,3.67893 -10.83943,7.337562 -20.05392,6.547121 l -6.85883,-1.143139 c 1.57548,-3.728871 2.57856,-7.801184 4.9536,-11.050317 3.53737,1.779785 6.30006,1.04189 9.14509,0.571564 8.91546,-3.772469 7.9508,-9.93492 8.68513,-16.5754795 -0.49927,-10.9409904 -2.95358,-20.5897025 -8.66201,-28.8362995 -5.53426,-9.205734 -12.28938,-17.924099 -24.02899,-23.938509 -11.91626,-5.568303 -15.62252,-0.613993 -17.71861,2.857843 -2.58515,5.312224 -3.14062,10.489136 -3.04837,15.622867 l 1.48951,8.294511 z"
       id="path874"
       inkscape:connector-curvature="0"
       sodipodi:nodetypes="ccccccccccccccccc" />
    <path
       sodipodi:nodetypes="ccccccccccccccccc"
       inkscape:connector-curvature="0"
       id="path876"
       d="m 273.98832,-86.499724 c -3.15708,-12.499294 -4.72984,-24.998606 3.8069,-37.497916 7.94035,-9.7107 16.07665,-7.14964 24.17375,-7.04275 11.75365,3.78864 20.32488,12.24235 28.56663,20.77207 9.64518,13.97921 14.53274,27.17601 15.98893,41.019273 -0.24126,9.292541 -1.21811,18.750104 -6.81835,24.936539 -5.27651,3.67549 -10.82928,7.330699 -20.03516,6.540997 l -6.85241,-1.14207 c 1.57401,-3.725382 2.57615,-7.793887 4.94897,-11.039981 3.53405,1.778121 6.29416,1.040915 9.13653,0.571029 8.90712,-3.768939 7.94336,-9.925627 8.677,-16.559975 -0.4988,-10.930758 -2.95082,-20.570447 -8.65391,-28.80933 -5.52908,-9.197142 -12.27788,-17.907352 -24.00651,-23.916142 -11.90511,-5.5631 -15.60791,-0.61342 -17.70204,2.85517 -2.58273,5.30726 -3.13768,10.47933 -3.04551,15.60827 l 1.48811,8.28676 z"
       style="fill:#b8b8b7;fill-opacity:1;stroke:none;stroke-width:0.26648238px;stroke-linecap:butt;stroke-linejoin:miter;stroke-opacity:1" />
    <path
       style="fill:#c0bbb9;stroke:none;stroke-width:0.26458332px;stroke-linecap:butt;stroke-linejoin:miter;stroke-opacity:1;fill-opacity:1"
       d="m 165.17559,89.869036 -0.37797,7.9375 188.23213,-108.47916 v -7.181551 z"
       id="path878"
       inkscape:connector-curvature="0" />
  </g>
</svg>
