<?xml version="1.0" encoding="UTF-8" standalone="no"?>
<!-- Created with Inkscape (http://www.inkscape.org/) -->

<svg
   xmlns:dc="http://purl.org/dc/elements/1.1/"
   xmlns:cc="http://creativecommons.org/ns#"
   xmlns:rdf="http://www.w3.org/1999/02/22-rdf-syntax-ns#"
   xmlns:svg="http://www.w3.org/2000/svg"
   xmlns="http://www.w3.org/2000/svg"
   xmlns:sodipodi="http://sodipodi.sourceforge.net/DTD/sodipodi-0.dtd"
   xmlns:inkscape="http://www.inkscape.org/namespaces/inkscape"
   version="1.1"
   id="svg2"
   width="480"
   height="450"
   viewBox="0 0 480 450"
   sodipodi:docname="isometric_buy - Copia.svg"
   inkscape:version="0.92.4 (5da689c313, 2019-01-14)">
  <metadata
     id="metadata8">
    <rdf:RDF>
      <cc:Work
         rdf:about="">
        <dc:format>image/svg+xml</dc:format>
        <dc:type
           rdf:resource="http://purl.org/dc/dcmitype/StillImage" />
        <dc:title></dc:title>
      </cc:Work>
    </rdf:RDF>
  </metadata>
  <defs
     id="defs6" />
  <sodipodi:namedview
     pagecolor="#ffffff"
     bordercolor="#666666"
     borderopacity="1"
     objecttolerance="10"
     gridtolerance="10"
     guidetolerance="10"
     inkscape:pageopacity="0"
     inkscape:pageshadow="2"
     inkscape:window-width="1600"
     inkscape:window-height="877"
     id="namedview4"
     showgrid="false"
     inkscape:zoom="1"
     inkscape:cx="22.297131"
     inkscape:cy="267.29456"
     inkscape:window-x="-8"
     inkscape:window-y="-8"
     inkscape:window-maximized="1"
     inkscape:current-layer="svg2" />
  <rect
     style="opacity:1;fill:#f7a825;fill-opacity:1;stroke:none;stroke-width:1.01087999;stroke-miterlimit:4;stroke-dasharray:none;stroke-opacity:1"
     id="rect817"
     width="496.17322"
     height="467.07263"
     x="-2.7412615"
     y="-11.808037" />
  <rect
     ry="1.6258117"
     y="141.99939"
     x="83.438599"
     height="5.8529224"
     width="346.48233"
     id="rect5098"
     style="opacity:1;fill:#f48726;fill-opacity:1;stroke:none;stroke-width:0.06781217;stroke-miterlimit:4;stroke-dasharray:none;stroke-opacity:1" />
  <rect
     ry="1.6258117"
     y="101.99939"
     x="83.438599"
     height="5.8529224"
     width="346.48233"
     id="rect5094"
     style="opacity:1;fill:#f48726;fill-opacity:1;stroke:none;stroke-width:0.06781217;stroke-miterlimit:4;stroke-dasharray:none;stroke-opacity:1" />
  <rect
     style="opacity:1;fill:#f48726;fill-opacity:1;stroke:none;stroke-width:0.06781217;stroke-miterlimit:4;stroke-dasharray:none;stroke-opacity:1"
     id="rect5092"
     width="346.48233"
     height="5.8529224"
     x="83.438599"
     y="81.99939"
     ry="1.6258117" />
  <rect
     style="opacity:1;fill:#f48726;fill-opacity:1;stroke:none;stroke-width:0.06781217;stroke-miterlimit:4;stroke-dasharray:none;stroke-opacity:1"
     id="rect5088"
     width="346.48233"
     height="5.8529224"
     x="83.438599"
     y="41.99939"
     ry="1.6258117" />
  <g
     id="g1087">
    <path
       sodipodi:nodetypes="ccccc"
       inkscape:connector-curvature="0"
       id="path1066"
       d="m 378.42295,349.68718 c 1.35281,0.0971 5.27773,-3.17657 5.22667,-5.48804 l -1.11243,-3.09895 -7.01929,8.35806 z"
       style="fill:#0e0d3f;fill-opacity:1;stroke:none;stroke-width:0.1;stroke-linecap:butt;stroke-linejoin:miter;stroke-miterlimit:4;stroke-dasharray:none;stroke-opacity:1" />
    <rect
       y="272.19315"
       x="139.17055"
       height="46.684994"
       width="202.27071"
       id="rect1040"
       style="opacity:1;fill:#ffffff;fill-opacity:1;stroke:none;stroke-width:0.8564145;stroke-miterlimit:4;stroke-dasharray:none;stroke-opacity:1" />
    <rect
       y="291.59637"
       x="126.44772"
       height="43.056927"
       width="30.068602"
       id="rect1042"
       style="opacity:1;fill:#ffffff;fill-opacity:1;stroke:none;stroke-width:1.02926147;stroke-miterlimit:4;stroke-dasharray:none;stroke-opacity:1" />
    <rect
       transform="rotate(-30.604368)"
       style="opacity:1;fill:#ffffff;fill-opacity:1;stroke:none;stroke-width:1.02926147;stroke-miterlimit:4;stroke-dasharray:none;stroke-opacity:1"
       id="rect1044"
       width="30.068602"
       height="43.056927"
       x="123.86337"
       y="409.96753" />
    <path
       sodipodi:nodetypes="ccccc"
       inkscape:connector-curvature="0"
       id="path1068"
       d="m 100.69643,344.5748 c 0.52544,3.0148 3.42094,5.26759 4.55211,5.10197 l 2.83903,-0.004 -6.72823,-8.16945 z"
       style="fill:#0e0d3f;fill-opacity:1;stroke:none;stroke-width:0.1;stroke-linecap:butt;stroke-linejoin:miter;stroke-miterlimit:4;stroke-dasharray:none;stroke-opacity:1" />
    <path
       inkscape:connector-curvature="0"
       id="path832"
       d="m 104.57702,346.72417 c -1.62589,-0.99151 -2.88232,-2.69444 -3.34342,-4.53159 -0.24827,-0.98919 2.18697,-6.1987 12.4917,-26.72245 7.04005,-14.02155 13.0146,-25.94852 13.27678,-26.50438 0.26219,-0.55586 2.52015,-5.12421 5.0177,-10.15188 l 4.54099,-9.14123 h 105.33678 105.33677 l 17.95184,35.75212 c 12.01965,23.93784 17.86926,36.06717 17.70196,36.70551 -0.39723,1.51563 -2.44848,3.98905 -3.95374,4.76745 -1.21835,0.63003 -17.43883,0.71433 -137.14432,0.71276 -131.39911,-0.002 -135.80917,-0.0302 -137.21304,-0.88631 z m 170.04856,-6.97737 c -0.0836,-1.31091 -0.58213,-4.74312 -1.10794,-7.62712 -0.52581,-2.88401 -1.33469,-7.6766 -1.79752,-10.65021 -0.52252,-3.3572 -1.09636,-5.56792 -1.51387,-5.83222 -0.86135,-0.54527 -55.75158,-0.56343 -56.61107,-0.0187 -0.40629,0.25748 -1.06697,3.27453 -1.79911,8.21569 -0.63636,4.29483 -1.35294,8.45231 -1.59239,9.23886 -0.67508,2.21752 -1.49892,8.35149 -1.18902,8.85292 0.17058,0.27599 12.90229,0.40197 33.02023,0.32673 l 32.74262,-0.12245 z m 84.76528,-26.71957 c 0,-0.14465 -0.73115,-1.69987 -1.62477,-3.45604 -0.89361,-1.75617 -2.52908,-5.12365 -3.63436,-7.48329 -2.35994,-5.03816 -6.74936,-14.23047 -10.0427,-21.03135 -1.28474,-2.65304 -2.33589,-4.96774 -2.33589,-5.14377 0,-0.17603 -0.46936,-0.95491 -1.04303,-1.73084 l -1.04304,-1.41078 -97.99033,0.006 -97.99033,0.006 -1.39693,2.97308 c -0.76832,1.63519 -3.0512,6.40528 -5.07308,10.6002 -2.02187,4.19491 -4.68651,9.77224 -5.9214,12.39406 -2.25686,4.7916 -6.4284,13.51514 -6.78157,14.18168 -0.10419,0.19663 52.70061,0.35752 117.34399,0.35752 64.64339,0 117.53344,-0.11835 117.53344,-0.263 z"
       style="opacity:1;fill:#005dab;fill-opacity:1;stroke:none;stroke-width:0.47669491;stroke-miterlimit:4;stroke-dasharray:none;stroke-opacity:1" />
    <path
       inkscape:connector-curvature="0"
       id="path836"
       d="m 173.38685,347.63493 v -0.0305 h 9.23267 9.23268 v 0.0257 0.0257 l -0.85059,0.004 c -0.46782,0.002 -4.62252,0.004 -9.23267,0.005 l -8.38209,0.001 z"
       style="opacity:1;fill:#100c3f;fill-opacity:1;stroke:none;stroke-width:0.01053357;stroke-miterlimit:4;stroke-dasharray:none;stroke-opacity:1" />
    <path
       inkscape:connector-curvature="0"
       id="path838"
       d="m 175.71214,347.86043 -2.32529,-0.003 v -0.0421 -0.0421 l 3.94745,-0.001 c 2.1711,-7.2e-4 3.95931,-10e-4 3.97379,-10e-4 0.0145,-2e-5 2.39284,5.9e-4 5.28522,10e-4 l 5.25889,0.001 v 0.0421 0.0421 l -0.88746,0.003 c -0.4881,10e-4 -1.08653,0.002 -1.32986,0.002 -2.27684,-0.003 -10.4545,-0.004 -10.95491,-0.001 -0.3534,0.002 -1.68893,0.002 -2.96783,-2e-4 z"
       style="opacity:1;fill:#100c3f;fill-opacity:1;stroke:none;stroke-width:0.01053357;stroke-miterlimit:4;stroke-dasharray:none;stroke-opacity:1" />
    <path
       inkscape:connector-curvature="0"
       id="path840"
       d="m 175.72794,347.744 -2.34109,-0.003 v -0.0369 -0.0368 l 8.86136,-2e-5 c 4.87376,-1e-5 9.02846,-0.003 9.23268,-0.007 l 0.37131,-0.007 v 0.0438 0.0438 l -1.05599,10e-4 c -0.5808,7.6e-4 -1.17213,0.002 -1.31407,0.002 -0.14194,2.4e-4 -2.65182,1.5e-4 -5.57752,-1.8e-4 -2.9257,-3.4e-4 -5.43559,3e-5 -5.57753,8.1e-4 -0.14194,7.9e-4 -1.31156,2.4e-4 -2.59915,-10e-4 z"
       style="opacity:1;fill:#100c3f;fill-opacity:1;stroke:none;stroke-width:0.01053357;stroke-miterlimit:4;stroke-dasharray:none;stroke-opacity:1" />
    <path
       inkscape:connector-curvature="0"
       id="path842"
       d="m 173.38685,347.75757 c 0,-0.0135 1.13361,-0.0154 9.23267,-0.0157 8.16785,-2.2e-4 9.23268,0.002 9.23268,0.0154 0,0.0139 -1.06495,0.0157 -9.23268,0.0157 -8.09918,0 -9.23267,-0.002 -9.23267,-0.0154 z"
       style="opacity:1;fill:#100c3f;fill-opacity:1;stroke:none;stroke-width:0.01053357;stroke-miterlimit:4;stroke-dasharray:none;stroke-opacity:1" />
    <path
       inkscape:connector-curvature="0"
       id="path850"
       d="m 138.55105,269.54106 c -2.81463,-0.75227 -2.8538,-1.48148 -3.12643,-58.20429 -0.28337,-58.95458 0.16908,-76.80648 1.99282,-78.63022 1.00215,-1.00215 10.04123,-1.12848 103.30753,-1.4438 l 102.2093,-0.34555 1.66455,1.56377 1.66454,1.56376 v 66.50566 66.50567 l -1.56028,1.46581 -1.56028,1.46581 -101.75296,-0.0782 c -55.96413,-0.043 -102.24159,-0.2088 -102.83879,-0.36842 z m 200.29668,-72.36141 v -55.28017 h -98.19515 -98.19515 l 0.43915,53.08919 c 0.24153,29.19905 0.44116,54.07513 0.44363,55.28017 l 0.004,2.19098 h 97.75152 97.75152 z"
       style="opacity:1;fill:#005dab;fill-opacity:1;stroke:none;stroke-width:0.67414844;stroke-miterlimit:4;stroke-dasharray:none;stroke-opacity:1" />
    <rect
       y="314.52542"
       x="203.54874"
       height="7.1504235"
       width="73.411018"
       id="rect1046"
       style="opacity:1;fill:#005dab;fill-opacity:1;stroke:none;stroke-width:1;stroke-miterlimit:4;stroke-dasharray:none;stroke-opacity:1" />
    <path
       inkscape:connector-curvature="0"
       id="path852"
       d="m 208.71444,342.45749 c 0,-0.96915 0.79435,-6.20778 1.7652,-11.64139 0.97086,-5.43359 1.76521,-10.83976 1.76521,-12.01369 v -2.13442 h 29.55881 29.55881 l 1.18676,6.30206 c 0.9489,5.03885 3.24298,19.89321 3.24298,20.9985 0,0.13807 -15.0925,0.25104 -33.53889,0.25104 h -33.53888 z"
       style="opacity:1;fill:#0b99d7;fill-opacity:1;stroke:none;stroke-width:0.72510368;stroke-miterlimit:4;stroke-dasharray:none;stroke-opacity:1" />
    <path
       inkscape:connector-curvature="0"
       id="path854"
       d="m 141.97518,196.68602 v -56.17573 h 99.40451 99.4045 v 56.17573 56.17572 h -99.4045 -99.40451 z"
       style="opacity:1;fill:#2fbec2;fill-opacity:1;stroke:none;stroke-width:0.69286007;stroke-miterlimit:4;stroke-dasharray:none;stroke-opacity:1" />
    <path
       inkscape:connector-curvature="0"
       id="path1036"
       d="m 127.31744,314.42063 -3.45189,-0.19832 9.57621,-21.02159 9.57623,-21.02158 99.21164,0.007 99.21163,0.007 0.89079,1.33416 c 0.48993,0.73378 1.51069,2.78331 2.26835,4.55448 1.69648,3.96586 12.70252,28.09706 14.91465,32.70101 1.26276,2.62808 1.51553,3.42601 1.16013,3.66212 -0.49171,0.32665 -227.66033,0.30175 -233.35774,-0.0256 z m 24.76339,-1.75443 1.84911,-0.23295 0.71548,-2.14689 c 0.39351,-1.1808 0.83877,-2.34929 0.98945,-2.59668 0.44402,-0.72895 -0.34863,-0.82846 -5.75958,-0.7231 l -5.1067,0.0995 -1.25573,2.6836 c -1.10928,2.37063 -1.18892,2.71198 -0.68289,2.92682 0.72094,0.30609 6.79353,0.29937 9.25086,-0.0105 z m 16.2584,-0.48179 c 0.4883,-0.55058 1.52561,-3.70912 1.52561,-4.6454 0,-0.60238 -0.39876,-0.65189 -5.2506,-0.65189 -3.78519,0 -5.34879,0.12483 -5.60242,0.44727 -0.34369,0.43689 -1.78046,4.45614 -1.78046,4.98064 0,0.74226 10.44264,0.61946 11.10787,-0.13062 z m 14.5587,0.21116 c 0.31747,-0.2056 1.30763,-3.8088 1.30763,-4.75845 0,-0.72908 -0.14707,-0.75 -5.27225,-0.75 -3.84402,0 -5.34649,0.12116 -5.54631,0.44727 -0.33992,0.5548 -1.46162,4.22886 -1.46844,4.80991 -0.003,0.23986 0.63039,0.49606 1.44611,0.58509 1.60451,0.17516 9.15566,-0.0893 9.53326,-0.33382 z m 85.40129,-0.12587 c 0.14784,-0.14115 0.10942,-0.69588 -0.0854,-1.23275 -0.19477,-0.53686 -0.35413,-1.49697 -0.35413,-2.13358 0,-0.63662 -0.18438,-1.35072 -0.40973,-1.58687 -0.31399,-0.32906 -9.58876,-0.4281 -39.69305,-0.42391 -21.60584,0.003 -39.44009,0.12379 -39.63171,0.26837 -0.54321,0.40987 -1.11035,1.9798 -1.36955,3.79112 l -0.23662,1.65353 17.5374,0.0927 c 25.08695,0.13264 63.92636,-0.12649 64.24275,-0.42863 z m 12.53953,0.34244 h 2.29116 l -0.32696,-1.52071 c -0.17982,-0.83639 -0.47193,-2.12452 -0.64916,-2.86251 l -0.32221,-1.3418 h -5.49656 -5.49658 l 0.22694,2.32129 c 0.12482,1.27671 0.31269,2.55546 0.4175,2.84168 0.25411,0.69394 1.49212,0.88754 4.53771,0.70966 1.38985,-0.0812 3.55801,-0.14761 4.81816,-0.14761 z m 15.27561,0.002 c 1.00373,-0.002 1.10969,-0.10416 1.10969,-1.07044 0,-2.0029 -0.78176,-4.31147 -1.52519,-4.5039 -0.38182,-0.0988 -2.84531,-0.13338 -5.47444,-0.0768 l -4.78024,0.1028 0.10888,1.43125 c 0.0598,0.7872 0.25564,2.0264 0.43502,2.75381 0.30969,1.25586 0.40751,1.33044 1.9398,1.47904 0.88751,0.0861 2.84285,0.0956 4.34521,0.0215 1.50237,-0.0743 3.23093,-0.13605 3.84127,-0.13724 z m 13.48709,0.12249 c 2.1199,-0.20981 2.30477,-0.29464 2.30477,-1.05748 0,-0.45615 -0.31834,-1.72099 -0.70742,-2.81076 l -0.70743,-1.98142 h -5.4386 c -4.14109,0 -5.43061,0.10671 -5.40514,0.44727 0.0185,0.24599 0.28728,1.49388 0.59753,2.77306 0.56014,2.30951 0.57363,2.32733 1.92986,2.54338 1.97627,0.31484 4.7852,0.34736 7.42643,0.0859 z m 16.75003,-0.0983 0.8319,-0.33144 -0.58682,-1.72599 c -0.88685,-2.60851 -1.12005,-3.13329 -1.51977,-3.42013 -0.65042,-0.46672 -10.78046,-0.32761 -10.78046,0.14803 0,0.52641 0.61743,2.60852 1.22258,4.12283 0.43663,1.09265 0.55671,1.15133 2.60522,1.27286 4.6152,0.2738 7.43092,0.25114 8.22735,-0.0661 z m 13.29719,0.0983 c 1.57917,-0.15629 2.30477,-0.37772 2.30477,-0.70331 0,-0.6535 -1.76054,-4.54852 -2.20235,-4.87251 -0.47762,-0.35023 -10.77258,-0.35063 -10.77258,-4.3e-4 0,0.54846 1.34628,4.1148 1.86878,4.95046 0.49927,0.79852 0.74678,0.85879 3.51684,0.85644 1.63888,-0.001 4.01693,-0.10517 5.28454,-0.23065 z m -199.61573,-2.45042 c 1.51017,-3.75948 1.9199,-3.39924 -3.86613,-3.39924 -3.56113,0 -5.25903,0.13473 -5.63668,0.44727 -0.52456,0.43414 -2.6609,4.46071 -2.66236,5.01805 -4e-4,0.15237 2.54256,0.23287 5.65102,0.17891 l 5.65176,-0.0981 z m 216.9441,1.94825 c 0,-0.5148 -2.13587,-4.74646 -2.56085,-5.07365 -0.18779,-0.14457 -2.6846,-0.26535 -5.54849,-0.26836 -4.04749,-0.004 -5.20704,0.0981 -5.20704,0.45968 0,0.25585 0.1297,0.61812 0.2882,0.80507 0.15852,0.18698 0.63731,1.26578 1.06399,2.39738 l 0.77579,2.05741 h 5.5942 c 3.6968,0 5.5942,-0.12804 5.5942,-0.37753 z m -210.08911,-7.9416 c 0.61258,-0.84308 1.85492,-4.27368 1.63229,-4.50742 -0.28108,-0.29511 -12.91518,-0.5496 -13.93743,-0.28073 -0.50046,0.13162 -1.13275,0.9645 -1.85924,2.44907 -0.60547,1.23728 -1.10082,2.37038 -1.10075,2.51797 7e-5,0.1476 3.36164,0.26838 7.47013,0.26838 5.57503,0 7.55244,-0.11347 7.795,-0.44727 z m 14.55544,-0.71564 c 1.00963,-2.40514 1.31019,-3.45686 1.09313,-3.8249 -0.14076,-0.2387 -2.03293,-0.37942 -5.10164,-0.37942 -5.49133,0 -5.42204,-0.0304 -6.50474,2.86253 -0.33144,0.88557 -0.67901,1.81141 -0.77239,2.05743 -0.13159,0.34662 1.06401,0.44727 5.31385,0.44727 h 5.48364 z m 13.79441,0.71564 c 0.39576,-0.52863 1.45597,-3.7668 1.45597,-4.44696 0,-0.37097 -1.08623,-0.4718 -5.03632,-0.46752 -2.76997,0.003 -5.21463,0.12438 -5.43256,0.2697 -0.41334,0.27558 -1.82269,3.86648 -1.82298,4.64478 -1.3e-4,0.33842 1.27748,0.44727 5.25042,0.44727 3.79426,0 5.34348,-0.12407 5.58547,-0.44727 z m 14.6445,-1.34181 c 0.60674,-2.12871 0.58634,-3.0967 -0.0708,-3.36095 -0.29704,-0.11946 -2.64021,-0.21376 -5.20705,-0.20955 l -4.66694,0.007 -0.73371,2.4076 c -0.40355,1.32417 -0.661,2.53238 -0.57211,2.6849 0.0889,0.15252 2.55338,0.23304 5.47665,0.17891 l 5.31501,-0.0984 z m 13.76647,1.11108 c 0.19043,-0.3729 0.44748,-1.58054 0.57118,-2.68361 l 0.22494,-2.00562 h -5.14854 c -5.68115,0 -5.44116,-0.0984 -6.11049,2.5047 -0.78467,3.05179 -1.10445,2.86253 4.83625,2.86253 4.83325,0 5.30971,-0.0574 5.62666,-0.678 z m 14.40764,-1.37638 c 0.12013,-1.03151 0.30055,-2.09974 0.40093,-2.37386 0.27828,-0.75997 -1.9958,-1.00282 -6.78141,-0.72418 l -4.1682,0.2427 -0.20968,1.82868 c -0.391,3.41003 -0.90401,3.11182 5.16215,3.00067 l 5.37777,-0.0985 z m 14.01848,-0.36088 c 0.0689,-1.32837 0.12037,-2.43949 0.11448,-2.46914 -0.006,-0.0295 -2.3303,-0.16985 -5.16538,-0.31155 -5.89031,-0.29439 -5.4696,-0.51867 -5.83142,3.10892 l -0.20814,2.08703 h 5.48262 5.48265 z m 14.20339,-0.1789 -0.10025,-2.59415 -5.37777,-0.0985 -5.37777,-0.0985 v 2.69268 2.69271 h 5.47809 5.47809 z m 13.96496,0.0472 c -0.11208,-1.40089 -0.28019,-2.62712 -0.37357,-2.72499 -0.0934,-0.0979 -2.48239,-0.0606 -5.3089,0.0829 l -5.13908,0.26083 v 2.46416 2.4642 h 5.51265 5.51264 z m 14.29897,1.20527 c -0.12166,-0.73799 -0.30826,-1.94562 -0.41467,-2.6836 l -0.19349,-1.34182 -4.48829,0.005 c -5.97507,0.006 -6.02596,0.0242 -6.02013,2.09429 0.0101,3.45363 -0.32404,3.26805 5.87709,3.26805 h 5.46066 z m 13.98309,-0.68227 c -0.4129,-3.46314 -0.1464,-3.33137 -6.75163,-3.33825 -5.33787,-0.005 -4.99701,-0.26951 -4.30631,3.33467 l 0.38859,2.02767 h 5.45534 5.45533 z m 14.49373,1.57681 c -0.005,-0.24602 -0.28875,-1.32921 -0.62993,-2.40714 -0.76156,-2.40609 -0.8275,-2.43016 -6.78689,-2.47714 -3.88225,-0.0305 -4.52416,0.0434 -4.52416,0.52151 0,0.92071 0.75747,3.88336 1.11542,4.36277 0.24137,0.32325 1.78985,0.44728 5.58459,0.44728 3.97797,0 5.24826,-0.10841 5.24097,-0.44728 z m 37.88742,0.1789 c -0.0124,-0.1476 -0.51183,-1.31496 -1.1097,-2.59416 l -1.08704,-2.32578 -17.02467,-0.0927 c -14.73975,-0.0804 -16.99923,-0.0234 -16.8351,0.42489 0.10426,0.28474 0.36748,1.21209 0.58494,2.06078 0.78992,3.08295 -1.08834,2.79546 18.26324,2.79546 9.47706,0 17.22079,-0.12077 17.20833,-0.26837 z m 12.3147,-0.10406 c 0,-0.97404 -2.13924,-4.57868 -2.83299,-4.77361 -1.10122,-0.30943 -8.02541,-0.26786 -8.21244,0.0493 -0.0878,0.14875 0.13369,0.90207 0.49202,1.67407 0.35831,0.77198 0.6515,1.56347 0.6515,1.75883 0,0.19537 0.25428,0.64966 0.56509,1.00954 0.49156,0.56924 1.13562,0.65437 4.95096,0.65437 2.81133,0 4.38586,-0.13373 4.38586,-0.3725 z m -196.15587,-9.08669 c 0.46695,-1.06979 0.84899,-2.11876 0.84899,-2.33106 0,-0.26966 -3.11174,-0.35744 -10.32753,-0.29128 l -10.32751,0.0947 -0.93221,1.78908 c -0.51272,0.98398 -0.93581,1.90012 -0.9402,2.03582 -0.0133,0.4148 2.17952,0.52503 11.69118,0.58763 l 9.1383,0.0602 z m 12.58497,1.63161 c 0.58556,-0.24114 1.9209,-3.19364 1.92157,-4.2487 2e-4,-0.33039 -0.96886,-0.44726 -3.70798,-0.44726 -5.45013,0 -6.65919,0.234 -7.13439,1.38084 -1.03035,2.48652 -1.14314,3.02666 -0.69438,3.32502 0.54313,0.36111 8.73471,0.35267 9.61518,-0.009 z m 12.18378,0.0868 2.23795,-0.22156 0.51166,-2.05807 0.51168,-2.05808 -2.03147,-0.22251 c -2.59879,-0.28466 -5.98642,-0.28503 -7.34248,-8.4e-4 -0.90455,0.1896 -1.15868,0.50438 -1.75451,2.17326 -0.38323,1.07333 -0.6088,2.10068 -0.50128,2.28299 0.22205,0.3765 5.01762,0.43657 8.36845,0.10479 z m 15.69356,-0.4943 c 0.43382,-0.72978 0.81415,-3.54862 0.52033,-3.85651 -0.41684,-0.43684 -9.53441,-0.077 -9.96795,0.39329 -0.21653,0.23492 -0.50225,1.29083 -0.63492,2.34647 l -0.24124,1.91932 5.00395,-0.13558 c 3.95434,-0.10716 5.07022,-0.24707 5.31983,-0.66699 z m 13.92504,-0.46734 c 0.22553,-0.65355 0.41004,-1.80233 0.41004,-2.55282 v -1.3645 l -5.03631,0.25987 c -2.76998,0.14295 -5.08818,0.31287 -5.15155,0.37759 -0.0634,0.0648 -0.23171,0.65376 -0.37408,1.30895 -0.14239,0.65517 -0.36583,1.54044 -0.49651,1.96722 -0.31658,1.03378 0.007,1.10021 5.6121,1.1505 l 4.62627,0.0415 z m 11.11406,0.9569 2.61237,-0.23142 v -2.05995 -2.05993 l -3.57593,-0.25543 c -1.96678,-0.14049 -4.25512,-0.1487 -5.08523,-0.0183 -1.48632,0.23357 -1.51289,0.26217 -1.74396,1.8769 -0.12905,0.90185 -0.31038,1.84656 -0.40297,2.09938 -0.0926,0.25283 0.11186,0.53559 0.45428,0.62839 0.97519,0.26423 4.87235,0.27444 7.74144,0.0203 z m 16.27018,-2.27329 v -2.50472 H 233.755 c -5.74164,0 -5.48818,-0.14321 -5.49829,3.10598 -0.006,1.82257 -0.11796,1.78819 6.056,1.85468 l 4.52414,0.0487 z m 25.56104,2.26813 1.83055,-0.23034 -0.15241,-1.92603 c -0.0839,-1.05931 -0.3186,-2.10016 -0.52171,-2.31301 -0.25393,-0.26611 -1.87148,-0.3055 -5.17797,-0.12609 l -4.80866,0.26091 v 2.08041 c 0,1.68049 0.11487,2.11189 0.59753,2.24406 0.94065,0.25761 6.21434,0.26408 8.23267,0.0106 z m 12.59552,0.002 c 2.77929,-0.22673 2.81692,-0.24272 2.81692,-1.19681 0,-0.53185 -0.16532,-1.46397 -0.36737,-2.07139 -0.48514,-1.4584 -1.41012,-1.64626 -6.521,-1.32446 -3.38317,0.21303 -4.04811,0.34675 -3.88872,0.78205 0.10575,0.28879 0.19228,1.2258 0.19228,2.08221 0,1.42403 0.0803,1.5699 0.93896,1.7062 1.60041,0.25407 3.89521,0.26154 6.82893,0.0222 z m 16.38345,-0.057 c 0.32906,-0.21904 0.30247,-0.71644 -0.12192,-2.27972 -0.51065,-1.88112 -0.61647,-2.01231 -1.78666,-2.21511 -1.84638,-0.32 -8.34555,-0.25814 -8.86082,0.0844 -0.45289,0.301 -0.37934,1.08241 0.33303,3.53872 l 0.33726,1.1629 4.83912,-0.005 c 2.66152,-0.003 5.02852,-0.13156 5.25999,-0.28565 z m 13.87009,-0.0731 c 0.0967,-0.10186 -0.0974,-1.06439 -0.43173,-2.13877 -0.45994,-1.47852 -0.80729,-2.01192 -1.42886,-2.19417 -1.04464,-0.30634 -7.7417,-0.37256 -8.75984,-0.0866 -0.91203,0.25614 -0.93146,0.49986 -0.23563,2.95531 l 0.53259,1.87946 5.07377,-0.11489 c 2.79057,-0.0632 5.15293,-0.19833 5.2497,-0.30031 z m 13.71506,-0.006 c 0.12017,-0.20377 -0.12262,-1.23294 -0.53953,-2.28706 -0.68013,-1.71959 -0.88473,-1.93851 -1.99094,-2.13027 -1.95658,-0.33913 -8.85509,-0.25556 -9.07062,0.1099 -0.32911,0.55802 1.16895,4.26229 1.79339,4.43458 1.24485,0.34341 9.594,0.23518 9.8077,-0.12715 z m 16.38608,0.005 c 0.11837,-0.20069 -0.26772,-1.44857 -0.85798,-2.77304 -0.59025,-1.32449 -1.64372,-3.77678 -2.34105,-5.44957 l -1.26786,-3.04142 -7.95167,-0.0962 -7.95168,-0.096 0.23643,0.81173 c 0.13004,0.44646 0.51993,1.47456 0.8664,2.28467 0.5474,1.27987 0.8076,1.50269 1.985,1.7 1.61024,0.26983 2.33281,1.19522 3.4443,4.41109 0.56481,1.63419 0.95787,2.25615 1.49549,2.36651 1.62967,0.33456 12.13499,0.23435 12.34262,-0.11773 z m 10.84732,0.14126 c 1.76946,-0.25416 1.78053,-0.41848 0.19382,-2.87338 l -0.96102,-1.48685 -3.1642,-0.21779 c -1.7403,-0.11979 -3.65772,-0.0948 -4.26093,0.0556 l -1.09673,0.27339 0.8823,2.04026 0.88229,2.04023 1.75095,0.12992 c 3.42567,0.25415 4.23535,0.25955 5.77352,0.0387 z m -95.70073,-2.28103 v -2.14689 h -5.29241 -5.2924 v 2.14689 2.14688 h 5.2924 5.29241 z m -97.38919,-4.95562 c 0.95523,-0.28628 2.70836,-3.91526 2.02431,-4.19034 -0.2336,-0.094 -4.03234,-0.1275 -8.44165,-0.0745 l -8.0169,0.0962 -0.98149,1.91932 c -0.79616,1.55694 -0.89287,1.97816 -0.51217,2.23087 0.53602,0.3558 14.74733,0.37228 15.9279,0.0186 z m 11.54249,0.0746 2.75845,-0.22508 0.37679,-1.4724 c 0.20725,-0.80983 0.48211,-1.7586 0.61078,-2.10839 0.2187,-0.59448 -0.096,-0.62949 -4.82186,-0.53672 l -5.05582,0.0992 -0.75492,1.96797 c -0.54486,1.42043 -0.64559,2.04112 -0.36205,2.23087 0.4845,0.32421 3.587,0.34324 7.24863,0.0445 z m 15.39713,-0.0485 c 0.40332,-0.26884 1.46336,-3.09528 1.4726,-3.92647 0.004,-0.33749 -1.21021,-0.44726 -4.946,-0.44726 -2.72303,0 -4.95097,0.0426 -4.95097,0.0945 0,0.0519 -0.3073,0.97556 -0.68288,2.05238 -0.3756,1.07683 -0.6829,2.08092 -0.6829,2.23129 0,0.3526 9.26078,0.34843 9.79015,-0.004 z m 14.0334,-1.61116 c 0.2305,-1.03895 0.41909,-2.08554 0.41909,-2.32578 0,-0.32358 -1.27121,-0.43679 -4.90422,-0.43679 h -4.90421 l -0.6027,2.00796 c -0.50591,1.68552 -0.52712,2.05811 -0.13211,2.3203 0.25883,0.17179 2.54835,0.31483 5.08784,0.31784 l 4.61723,0.005 z m 13.18062,0.77085 c 0.11737,-0.61501 0.2134,-1.66161 0.2134,-2.3258 v -1.20762 h -4.91043 -4.91042 l -0.38198,1.58969 c -0.77875,3.24092 -1.05339,3.06188 4.69702,3.06188 h 5.07901 z m 13.193,-0.40255 c 0.003,-0.83639 0.0973,-1.883 0.21055,-2.32579 l 0.20588,-0.80508 h -5.11509 -5.11511 l -0.21713,1.6601 c -0.4258,3.2556 -0.85883,2.99147 4.90455,2.99147 h 5.12169 l 0.005,-1.5207 z m 13.31172,-0.80509 v -2.32578 h -5.12169 -5.12169 v 2.32578 2.32579 h 5.12169 5.12169 z m 13.31638,0.56599 c 0,-3.0149 0.23417,-2.89177 -5.49966,-2.89177 h -5.08515 v 2.32578 2.32579 h 5.2924 5.29241 z m 12.90586,-0.47654 -0.10166,-2.23632 -5.24706,-0.099 c -4.57094,-0.0861 -5.22151,-0.0291 -5.04864,0.44293 0.10914,0.29804 0.30059,1.34894 0.42546,2.33533 l 0.22703,1.79342 h 4.92327 4.92326 z m 13.49086,1.87853 c 0.0883,-0.0984 -0.002,-1.10474 -0.20033,-2.23633 l -0.36071,-2.05743 h -5.10442 -5.10442 l 0.20588,0.80508 c 0.11325,0.44279 0.208,1.50099 0.21056,2.35155 l 0.005,1.54651 5.0942,-0.11524 c 2.80181,-0.0634 5.16637,-0.19574 5.25458,-0.29414 z m 13.07192,-1.43561 c -0.38456,-3.03786 -0.0368,-2.85815 -5.53133,-2.85815 h -4.91444 l 0.005,1.3418 c 0.007,1.9008 0.31864,2.88908 0.96937,3.07021 0.30937,0.0861 2.61814,0.17523 5.13063,0.19805 l 4.56816,0.0415 z m 13.21014,1.59499 c 0.42088,-0.16925 0.42719,-0.39289 0.043,-1.5207 -0.2478,-0.72726 -0.45728,-1.68457 -0.46553,-2.12736 -0.0149,-0.79929 -0.0528,-0.80508 -5.26082,-0.80508 h -5.24584 l 0.53104,2.32578 0.53103,2.32579 h 4.68687 c 2.57778,0 4.90894,-0.0892 5.18034,-0.19843 z m 13.56795,-0.07 c 0.003,-0.14761 -0.26545,-1.19283 -0.59753,-2.32274 l -0.60381,-2.05438 -5.03633,-0.003 c -3.94891,-0.002 -5.03631,0.099 -5.03631,0.46991 0,1.11072 1.12149,3.79143 1.64707,3.93705 1.00019,0.27708 9.62035,0.25307 9.62691,-0.0269 z m 30.6741,-0.0497 c 0.3701,-0.24577 0.25787,-0.69124 -0.56207,-2.23086 l -1.02452,-1.92378 -3.85585,-0.10175 c -2.12072,-0.056 -4.04815,-0.0245 -4.28318,0.0701 -0.30931,0.12436 -0.15078,0.77015 0.57402,2.33813 l 1.00135,2.16629 3.8439,-0.005 c 2.11416,-0.003 4.052,-0.14366 4.30635,-0.31255 z m -195.33015,-6.33991 c 0.85087,-0.17833 1.16456,-0.53966 1.7499,-2.01569 0.39226,-0.98912 0.7132,-1.93795 0.7132,-2.10851 0,-0.17055 -2.13308,-0.3101 -4.74017,-0.3101 h -4.74018 l -0.89367,1.91419 c -0.49153,1.0528 -0.89368,2.01185 -0.89368,2.13121 0,0.11935 1.11396,0.27258 2.47548,0.34051 1.36151,0.0679 3.10928,0.15547 3.88395,0.19457 0.77464,0.039 1.87498,-0.0266 2.44517,-0.14618 z m 13.01273,-0.0942 c 0.59274,-0.1739 1.00866,-0.76476 1.50824,-2.14258 0.88842,-2.45021 0.62161,-2.66297 -3.00955,-2.3998 -1.50238,0.10887 -3.53824,0.19893 -4.52417,0.20011 -1.47801,0.002 -1.79295,0.11203 -1.79468,0.62831 -0.001,0.34441 -0.23164,1.08739 -0.51219,1.65107 -0.85953,1.72712 -0.69309,1.96878 1.45327,2.10993 3.36297,0.22114 6.0271,0.20293 6.87908,-0.0471 z m 10.55251,0.0799 3.11042,-0.23136 0.5272,-1.62145 c 0.28997,-0.89179 0.52721,-1.81369 0.52721,-2.04868 0,-0.65557 -2.35804,-0.90578 -6.10885,-0.64819 -2.68751,0.18457 -3.43452,0.35341 -3.57304,0.80759 -0.0963,0.31583 -0.40274,1.2183 -0.68089,2.00549 -0.48748,1.37952 -0.47904,1.43967 0.23363,1.66395 1.03005,0.32417 2.36462,0.34043 5.96432,0.0726 z m 15.85331,-0.44443 c 0.29445,-0.28479 1.31186,-3.71061 1.15182,-3.87833 -0.312,-0.32694 -4.87351,-0.51695 -7.11824,-0.29653 l -2.57162,0.25255 -0.59465,1.98123 c -0.50009,1.66613 -0.51983,2.03375 -0.12408,2.31144 0.5151,0.36147 8.8447,0.0281 9.25677,-0.37036 z m 13.49231,-1.58522 c 0.27189,-1.14517 0.44091,-2.13457 0.37562,-2.19866 -0.15976,-0.15686 -4.69889,-0.30281 -7.50862,-0.24144 -2.53181,0.0554 -2.52293,0.0464 -2.88641,2.91781 l -0.2283,1.80354 4.8767,-0.0995 4.87671,-0.0996 z m 12.55199,1.82583 c 0.0457,-0.0558 0.15148,-1.00717 0.23522,-2.11405 l 0.15226,-2.01251 -4.58744,-0.25478 c -3.06801,-0.17037 -4.70634,-0.13016 -4.94642,0.12142 -0.19742,0.20689 -0.42869,1.25723 -0.51389,2.33409 l -0.15495,1.95791 1.49163,0.16322 c 1.46627,0.16043 8.16123,0.003 8.32359,-0.1953 z m 12.80903,-0.28043 c 0.17773,-0.2952 0.32549,-1.38206 0.32837,-2.41524 l 0.005,-1.87853 h -4.95097 -4.95095 l -0.004,0.98399 c -0.002,0.5412 -0.0968,1.57413 -0.2107,2.29542 -0.25792,1.63457 -0.10005,1.68121 5.43459,1.60588 3.16531,-0.0432 4.09408,-0.16944 4.3482,-0.59152 z m 12.41139,0.25651 c 0.46195,-0.35398 0.57463,-0.86608 0.49207,-2.23633 l -0.1071,-1.77722 h -4.78024 -4.78024 l -0.10199,2.04268 -0.10197,2.04268 2.83355,0.12082 c 1.55845,0.0664 3.53401,0.15359 4.39015,0.19367 0.85613,0.0401 1.82622,-0.13378 2.15577,-0.3863 z m 26.18504,-0.15227 c 0.13972,-0.15573 0.085,-1.12848 -0.1216,-2.16167 l -0.37564,-1.87853 h -4.91354 -4.91355 l 0.22567,1.52072 c 0.3426,2.30843 0.49884,2.71092 1.13083,2.91289 0.86676,0.277 8.67363,-0.0655 8.96783,-0.39341 z m 12.64564,0.0492 c 0.11209,-0.0704 0.0942,-0.88494 -0.0398,-1.81019 -0.35541,-2.45413 -0.89887,-2.75058 -4.56987,-2.49273 -1.67205,0.11746 -3.55426,0.21355 -4.18271,0.21355 h -1.1426 v 1.9502 c 0,2.67073 0.2266,2.7742 5.46313,2.49482 2.34744,-0.12524 4.35978,-0.28529 4.47188,-0.35565 z m 51.02958,0.12781 c 0.1339,-0.14052 -0.0929,-1.12404 -0.50408,-2.18561 l -0.74754,-1.9301 -2.59236,-0.22964 c -1.42579,-0.1263 -6.33361,-0.22964 -10.90624,-0.22964 -7.69227,0 -8.31353,0.0469 -8.30894,0.62617 0.005,0.61232 0.87854,3.49712 1.24973,4.12653 0.22023,0.37343 21.4491,0.20046 21.80943,-0.17771 z m 11.66367,-0.0575 c 0.10392,-0.10889 -0.15629,-1.08937 -0.57824,-2.17883 l -0.7672,-1.98084 h -4.2284 c -4.75329,0 -4.66936,-0.0622 -3.53808,2.61793 0.63912,1.51412 0.79747,1.64725 2.13403,1.79437 1.78176,0.19613 6.72028,0.0174 6.97789,-0.25263 z m -88.06163,-2.10224 0.1024,-2.05743 h -4.93147 c -5.52732,0 -5.34598,-0.0923 -5.34598,2.72245 v 1.59046 l 5.03633,-0.0991 5.03632,-0.099 z m 38.16301,0.37838 c -0.12935,-1.02188 -0.30361,-1.97397 -0.38721,-2.11576 -0.31494,-0.53399 -3.09204,-0.74819 -6.52296,-0.50315 -3.07502,0.21966 -3.53021,0.33308 -3.38935,0.84458 0.0895,0.325 0.33144,1.2752 0.53765,2.11158 l 0.37493,1.52072 h 4.81107 4.81106 z m 13.19918,1.65799 c 0.16451,-0.17241 -0.87154,-3.61442 -1.18767,-3.9457 -0.30329,-0.31783 -5.85788,-0.57009 -7.58205,-0.34434 l -1.95737,0.25627 0.22566,1.26054 c 0.55908,3.12305 0.27793,2.97321 5.5788,2.97321 2.60249,0 4.81766,-0.0901 4.92263,-0.19998 z m -152.37379,-6.93279 c 0.1944,-0.38065 0.35346,-0.86371 0.35346,-1.07343 0,-0.43724 -7.786,-0.5369 -8.39965,-0.10751 -0.20663,0.14458 -0.55775,0.62517 -0.78027,1.06797 l -0.40458,0.80509 h 4.43879 c 4.03906,0 4.47063,-0.0624 4.79225,-0.69212 z m 11.62583,0.42373 c 0.003,-0.14759 0.0973,-0.63062 0.21055,-1.07343 0.20552,-0.80367 0.19836,-0.80508 -4.09,-0.80508 -3.89776,0 -4.32863,0.0641 -4.64934,0.69211 -0.1944,0.38065 -0.35346,0.8637 -0.35346,1.07343 0,0.43904 8.87463,0.55191 8.88225,0.11297 z m 11.5362,-0.16099 c 0.22536,-0.23616 0.40974,-0.71922 0.40974,-1.07344 0,-0.58578 -0.38527,-0.64408 -4.25605,-0.64408 -3.8584,0 -4.28909,0.0647 -4.60953,0.69211 -0.19441,0.38065 -0.35345,0.8637 -0.35345,1.07343 0,0.55888 8.2732,0.51377 8.80929,-0.048 z m 11.6821,0.16099 c 0.003,-0.14759 0.0973,-0.63062 0.21055,-1.07343 0.20552,-0.80367 0.19836,-0.80508 -4.08999,-0.80508 -3.89777,0 -4.32863,0.0641 -4.64934,0.69211 -0.1944,0.38065 -0.35346,0.8637 -0.35346,1.07343 0,0.43904 8.87462,0.55191 8.88224,0.11297 z m 11.88326,-0.89451 0.10804,-0.984 h -4.46147 -4.46148 v 1.08414 1.08413 l 4.35344,-0.10011 4.35342,-0.1001 z m 11.33504,0.89451 c 0.003,-0.14759 0.0973,-0.63062 0.21056,-1.07343 0.20555,-0.80382 0.19912,-0.80508 -4.11046,-0.80508 h -4.31634 l -0.33302,0.91783 c -0.18314,0.50481 -0.33299,0.98786 -0.33299,1.07343 0,0.2772 8.87744,0.1645 8.88225,-0.11275 z m 11.88326,-0.71562 -0.10804,-0.98399 -4.35343,-0.1001 -4.35344,-0.1001 v 1.08413 1.08414 h 4.46147 4.46148 z m 11.33038,-0.0894 v -1.07344 h -4.26807 -4.26806 v 1.07344 1.07346 h 4.26806 4.26807 z m 11.88793,0.0894 -0.10804,-0.98399 -4.35344,-0.1001 -4.35343,-0.1001 v 1.08413 1.08414 h 4.46147 4.46147 z m 11.67183,0.47654 c 0,-1.54648 -0.25433,-1.63943 -4.48605,-1.63943 -4.23372,0 -4.78195,0.20684 -4.26806,1.61017 0.28285,0.77249 8.75411,0.80081 8.75411,0.0292 z m 11.60448,0.23908 c -0.003,-0.14759 -0.0973,-0.63062 -0.21054,-1.07343 -0.19946,-0.77993 -0.33792,-0.80508 -4.43413,-0.80508 h -4.22826 v 1.07345 1.07345 h 4.43881 c 2.44132,0 4.43668,-0.12078 4.43412,-0.26839 z m 11.61381,-0.23908 c 0,-1.54648 -0.25431,-1.63943 -4.48603,-1.63943 -4.23372,0 -4.78196,0.20684 -4.26808,1.61017 0.28288,0.77249 8.75411,0.80081 8.75411,0.0292 z m 11.60915,0 c 0,-1.55381 -0.24265,-1.63943 -4.64604,-1.63943 -4.20541,0 -4.23154,0.005 -4.23154,0.8349 0,0.45919 0.10244,0.94225 0.22763,1.07345 0.12519,0.13119 2.12265,0.23855 4.43879,0.23855 3.4077,0 4.21116,-0.0969 4.21116,-0.50747 z m 11.60916,0 c 0,-1.56036 -0.23144,-1.63943 -4.79901,-1.63943 h -4.38449 l 0.35707,1.07345 0.35708,1.07345 h 4.23467 c 3.42798,0 4.23468,-0.0968 4.23468,-0.50747 z m 11.50463,-0.56598 -0.38665,-1.07345 h -4.36394 c -2.40015,0 -4.36392,0.0729 -4.36392,0.16207 0,0.0892 0.17831,0.57218 0.39625,1.07346 0.39447,0.90725 0.41585,0.91137 4.75058,0.91137 h 4.35432 z m 11.71367,0.42937 c 0,-1.29666 -0.68611,-1.50282 -5.00149,-1.50282 h -4.18202 l 0.35707,1.07345 0.3571,1.07345 h 4.23468 c 3.85019,0 4.23466,-0.0585 4.23466,-0.64408 z m 11.95059,0.45257 c 0,-0.10527 -0.24814,-0.58837 -0.55143,-1.07343 -0.53729,-0.85933 -0.66061,-0.88196 -4.80869,-0.88196 -3.28429,0 -4.2118,0.10217 -4.0583,0.44728 0.10941,0.24599 0.2938,0.72904 0.40973,1.07344 0.18597,0.55252 0.72815,0.62618 4.60972,0.62618 2.41943,0 4.39897,-0.0861 4.39897,-0.19151 z"
       style="opacity:1;fill:#005dab;fill-opacity:1;stroke:none;stroke-width:0.34953409;stroke-miterlimit:4;stroke-dasharray:none;stroke-opacity:1" />
    <rect
       y="267.05606"
       x="136.56078"
       height="2.61658"
       width="209.70259"
       id="rect1048"
       style="opacity:1;fill:#0e0d3f;fill-opacity:1;stroke:none;stroke-width:1;stroke-miterlimit:4;stroke-dasharray:none;stroke-opacity:1" />
    <rect
       style="opacity:1;fill:#0e0d3f;fill-opacity:1;stroke:none;stroke-width:1.1394068;stroke-miterlimit:4;stroke-dasharray:none;stroke-opacity:1"
       id="rect1050"
       width="272.24597"
       height="2.61658"
       x="105.71764"
       y="347.05606" />
  </g>
  <rect
     style="opacity:1;fill:#ffffff;fill-opacity:1;stroke:none;stroke-width:0.1;stroke-miterlimit:4;stroke-dasharray:none;stroke-opacity:1"
     id="rect4997"
     width="62.196991"
     height="53.27903"
     x="210.51009"
     y="179.81725" />
  <g
     id="g1113">
    <rect
       ry="0.27455357"
       y="159.73267"
       x="162.98811"
       height="1.8119612"
       width="25.455843"
       id="rect1089"
       style="opacity:1;fill:#ffffff;fill-opacity:1;stroke:none;stroke-width:0.09147321;stroke-miterlimit:4;stroke-dasharray:none;stroke-opacity:1" />
    <rect
       style="opacity:1;fill:#ffffff;fill-opacity:1;stroke:none;stroke-width:0.09147321;stroke-miterlimit:4;stroke-dasharray:none;stroke-opacity:1"
       id="rect1091"
       width="25.455843"
       height="1.8119612"
       x="162.98811"
       y="167.73267"
       ry="0.27455357" />
    <rect
       style="opacity:1;fill:#ffffff;fill-opacity:1;stroke:none;stroke-width:0.09147321;stroke-miterlimit:4;stroke-dasharray:none;stroke-opacity:1"
       id="rect1093"
       width="25.455843"
       height="1.8119612"
       x="162.98811"
       y="163.73267"
       ry="0.27455357" />
    <rect
       ry="0.27455357"
       y="171.73267"
       x="162.98811"
       height="1.8119612"
       width="25.455843"
       id="rect1095"
       style="opacity:1;fill:#ffffff;fill-opacity:1;stroke:none;stroke-width:0.09147321;stroke-miterlimit:4;stroke-dasharray:none;stroke-opacity:1" />
    <rect
       style="opacity:1;fill:#ffffff;fill-opacity:1;stroke:none;stroke-width:0.09147321;stroke-miterlimit:4;stroke-dasharray:none;stroke-opacity:1"
       id="rect1097"
       width="25.455843"
       height="1.8119612"
       x="162.98811"
       y="175.73267"
       ry="0.27455357" />
    <rect
       ry="0.27455357"
       y="179.73267"
       x="162.98811"
       height="1.8119612"
       width="25.455843"
       id="rect1099"
       style="opacity:1;fill:#ffffff;fill-opacity:1;stroke:none;stroke-width:0.09147321;stroke-miterlimit:4;stroke-dasharray:none;stroke-opacity:1" />
    <rect
       style="opacity:1;fill:#ffffff;fill-opacity:1;stroke:none;stroke-width:0.09147321;stroke-miterlimit:4;stroke-dasharray:none;stroke-opacity:1"
       id="rect1101"
       width="25.455843"
       height="1.8119612"
       x="162.98811"
       y="183.73267"
       ry="0.27455357" />
    <rect
       ry="0.27455357"
       y="187.73267"
       x="162.98811"
       height="1.8119612"
       width="25.455843"
       id="rect1103"
       style="opacity:1;fill:#ffffff;fill-opacity:1;stroke:none;stroke-width:0.09147321;stroke-miterlimit:4;stroke-dasharray:none;stroke-opacity:1" />
  </g>
  <g
     id="g1131"
     transform="translate(0,46)">
    <rect
       style="opacity:1;fill:#ffffff;fill-opacity:1;stroke:none;stroke-width:0.09147321;stroke-miterlimit:4;stroke-dasharray:none;stroke-opacity:1"
       id="rect1115"
       width="25.455843"
       height="1.8119612"
       x="162.98811"
       y="159.73267"
       ry="0.27455357" />
    <rect
       ry="0.27455357"
       y="167.73267"
       x="162.98811"
       height="1.8119612"
       width="25.455843"
       id="rect1117"
       style="opacity:1;fill:#ffffff;fill-opacity:1;stroke:none;stroke-width:0.09147321;stroke-miterlimit:4;stroke-dasharray:none;stroke-opacity:1" />
    <rect
       ry="0.27455357"
       y="163.73267"
       x="162.98811"
       height="1.8119612"
       width="25.455843"
       id="rect1119"
       style="opacity:1;fill:#ffffff;fill-opacity:1;stroke:none;stroke-width:0.09147321;stroke-miterlimit:4;stroke-dasharray:none;stroke-opacity:1" />
    <rect
       style="opacity:1;fill:#ffffff;fill-opacity:1;stroke:none;stroke-width:0.09147321;stroke-miterlimit:4;stroke-dasharray:none;stroke-opacity:1"
       id="rect1121"
       width="25.455843"
       height="1.8119612"
       x="162.98811"
       y="171.73267"
       ry="0.27455357" />
    <rect
       ry="0.27455357"
       y="175.73267"
       x="162.98811"
       height="1.8119612"
       width="25.455843"
       id="rect1123"
       style="opacity:1;fill:#ffffff;fill-opacity:1;stroke:none;stroke-width:0.09147321;stroke-miterlimit:4;stroke-dasharray:none;stroke-opacity:1" />
    <rect
       style="opacity:1;fill:#ffffff;fill-opacity:1;stroke:none;stroke-width:0.09147321;stroke-miterlimit:4;stroke-dasharray:none;stroke-opacity:1"
       id="rect1125"
       width="25.455843"
       height="1.8119612"
       x="162.98811"
       y="179.73267"
       ry="0.27455357" />
    <rect
       ry="0.27455357"
       y="183.73267"
       x="162.98811"
       height="1.8119612"
       width="25.455843"
       id="rect1127"
       style="opacity:1;fill:#ffffff;fill-opacity:1;stroke:none;stroke-width:0.09147321;stroke-miterlimit:4;stroke-dasharray:none;stroke-opacity:1" />
    <rect
       style="opacity:1;fill:#ffffff;fill-opacity:1;stroke:none;stroke-width:0.09147321;stroke-miterlimit:4;stroke-dasharray:none;stroke-opacity:1"
       id="rect1129"
       width="25.455843"
       height="1.8119612"
       x="162.98811"
       y="187.73267"
       ry="0.27455357" />
  </g>
  <g
     id="g1149"
     transform="translate(132)">
    <rect
       style="opacity:1;fill:#ffffff;fill-opacity:1;stroke:none;stroke-width:0.09147321;stroke-miterlimit:4;stroke-dasharray:none;stroke-opacity:1"
       id="rect1133"
       width="25.455843"
       height="1.8119612"
       x="162.98811"
       y="159.73267"
       ry="0.27455357" />
    <rect
       ry="0.27455357"
       y="167.73267"
       x="162.98811"
       height="1.8119612"
       width="25.455843"
       id="rect1135"
       style="opacity:1;fill:#ffffff;fill-opacity:1;stroke:none;stroke-width:0.09147321;stroke-miterlimit:4;stroke-dasharray:none;stroke-opacity:1" />
    <rect
       ry="0.27455357"
       y="163.73267"
       x="162.98811"
       height="1.8119612"
       width="25.455843"
       id="rect1137"
       style="opacity:1;fill:#ffffff;fill-opacity:1;stroke:none;stroke-width:0.09147321;stroke-miterlimit:4;stroke-dasharray:none;stroke-opacity:1" />
    <rect
       style="opacity:1;fill:#ffffff;fill-opacity:1;stroke:none;stroke-width:0.09147321;stroke-miterlimit:4;stroke-dasharray:none;stroke-opacity:1"
       id="rect1139"
       width="25.455843"
       height="1.8119612"
       x="162.98811"
       y="171.73267"
       ry="0.27455357" />
    <rect
       ry="0.27455357"
       y="175.73267"
       x="162.98811"
       height="1.8119612"
       width="25.455843"
       id="rect1141"
       style="opacity:1;fill:#ffffff;fill-opacity:1;stroke:none;stroke-width:0.09147321;stroke-miterlimit:4;stroke-dasharray:none;stroke-opacity:1" />
    <rect
       style="opacity:1;fill:#ffffff;fill-opacity:1;stroke:none;stroke-width:0.09147321;stroke-miterlimit:4;stroke-dasharray:none;stroke-opacity:1"
       id="rect1143"
       width="25.455843"
       height="1.8119612"
       x="162.98811"
       y="179.73267"
       ry="0.27455357" />
    <rect
       ry="0.27455357"
       y="183.73267"
       x="162.98811"
       height="1.8119612"
       width="25.455843"
       id="rect1145"
       style="opacity:1;fill:#ffffff;fill-opacity:1;stroke:none;stroke-width:0.09147321;stroke-miterlimit:4;stroke-dasharray:none;stroke-opacity:1" />
    <rect
       style="opacity:1;fill:#ffffff;fill-opacity:1;stroke:none;stroke-width:0.09147321;stroke-miterlimit:4;stroke-dasharray:none;stroke-opacity:1"
       id="rect1147"
       width="25.455843"
       height="1.8119612"
       x="162.98811"
       y="187.73267"
       ry="0.27455357" />
  </g>
  <g
     transform="translate(132,46)"
     id="g1167">
    <rect
       ry="0.27455357"
       y="159.73267"
       x="162.98811"
       height="1.8119612"
       width="25.455843"
       id="rect1151"
       style="opacity:1;fill:#ffffff;fill-opacity:1;stroke:none;stroke-width:0.09147321;stroke-miterlimit:4;stroke-dasharray:none;stroke-opacity:1" />
    <rect
       style="opacity:1;fill:#ffffff;fill-opacity:1;stroke:none;stroke-width:0.09147321;stroke-miterlimit:4;stroke-dasharray:none;stroke-opacity:1"
       id="rect1153"
       width="25.455843"
       height="1.8119612"
       x="162.98811"
       y="167.73267"
       ry="0.27455357" />
    <rect
       style="opacity:1;fill:#ffffff;fill-opacity:1;stroke:none;stroke-width:0.09147321;stroke-miterlimit:4;stroke-dasharray:none;stroke-opacity:1"
       id="rect1155"
       width="25.455843"
       height="1.8119612"
       x="162.98811"
       y="163.73267"
       ry="0.27455357" />
    <rect
       ry="0.27455357"
       y="171.73267"
       x="162.98811"
       height="1.8119612"
       width="25.455843"
       id="rect1157"
       style="opacity:1;fill:#ffffff;fill-opacity:1;stroke:none;stroke-width:0.09147321;stroke-miterlimit:4;stroke-dasharray:none;stroke-opacity:1" />
    <rect
       style="opacity:1;fill:#ffffff;fill-opacity:1;stroke:none;stroke-width:0.09147321;stroke-miterlimit:4;stroke-dasharray:none;stroke-opacity:1"
       id="rect1159"
       width="25.455843"
       height="1.8119612"
       x="162.98811"
       y="175.73267"
       ry="0.27455357" />
    <rect
       ry="0.27455357"
       y="179.73267"
       x="162.98811"
       height="1.8119612"
       width="25.455843"
       id="rect1161"
       style="opacity:1;fill:#ffffff;fill-opacity:1;stroke:none;stroke-width:0.09147321;stroke-miterlimit:4;stroke-dasharray:none;stroke-opacity:1" />
    <rect
       style="opacity:1;fill:#ffffff;fill-opacity:1;stroke:none;stroke-width:0.09147321;stroke-miterlimit:4;stroke-dasharray:none;stroke-opacity:1"
       id="rect1163"
       width="25.455843"
       height="1.8119612"
       x="162.98811"
       y="183.73267"
       ry="0.27455357" />
    <rect
       ry="0.27455357"
       y="187.73267"
       x="162.98811"
       height="1.8119612"
       width="25.455843"
       id="rect1165"
       style="opacity:1;fill:#ffffff;fill-opacity:1;stroke:none;stroke-width:0.09147321;stroke-miterlimit:4;stroke-dasharray:none;stroke-opacity:1" />
  </g>
  <path
     style="opacity:1;fill:#d91d23;fill-opacity:1;stroke:none;stroke-width:0.03745792;stroke-miterlimit:4;stroke-dasharray:none;stroke-opacity:1"
     d="m 206.13226,235.25256 c 0.0965,-1.11276 0.19529,-2.05203 0.21963,-2.08726 0.1055,-0.15269 5.05108,-0.19232 20.15997,-0.16151 l 16.11079,0.0329 v 2.11956 2.11957 h -18.33288 -18.33288 z"
     id="path1184"
     inkscape:connector-curvature="0" />
  <path
     style="opacity:1;fill:#d91d23;fill-opacity:1;stroke:none;stroke-width:0.0364967;stroke-miterlimit:4;stroke-dasharray:none;stroke-opacity:1"
     d="m 241.56199,235.20753 v -2.06823 l -15.64474,-0.11508 c -8.6046,-0.0633 -0.60988,-0.0739 17.76606,-0.0234 18.37594,0.0504 33.45057,0.10038 33.49918,0.11119 0.0486,0.0108 0.0884,0.95204 0.0884,2.09169 v 2.07213 H 259.41645 241.562 Z"
     id="path1186"
     inkscape:connector-curvature="0" />
  <path
     style="opacity:1;fill:#e7e7e9;fill-opacity:1;stroke:none;stroke-width:0.0125;stroke-miterlimit:4;stroke-dasharray:none;stroke-opacity:1"
     d="m 210.45708,221.9077 v -11.18859 l 0.66182,0.0778 c 1.46764,0.1725 3.1646,-0.50089 4.40325,-1.74728 0.70421,-0.70861 0.96929,-1.17081 1.3635,-2.37746 0.0986,-0.30189 0.18101,-0.21795 0.24111,0.24568 0.0474,0.36534 0.11489,0.59172 0.35052,1.17512 0.0871,0.21567 0.0834,0.32299 -0.0124,0.35491 -0.51128,0.17043 -0.5078,0.12273 -0.5078,6.95649 0,5.84849 0.0209,6.54822 0.19772,6.61607 0.10875,0.0417 6.09618,0.0759 13.30541,0.0759 h 13.10769 l 0.19459,-0.27781 c 0.1692,-0.24156 0.19459,-1.02038 0.19465,-5.96875 l 6e-5,-5.69094 0.64296,-0.55371 c 0.67867,-0.58445 1.23869,-1.60229 1.41412,-2.57016 l 0.0904,-0.49887 0.48324,1.0107 c 0.60645,1.26837 1.73045,2.38616 2.80294,2.78743 0.38531,0.14416 0.76877,0.26211 0.85213,0.2621 0.11786,0 0.14432,2.50105 0.11899,11.25 l -0.0326,11.25001 H 230.3932 210.45702 Z"
     id="path1208"
     inkscape:connector-curvature="0" />
  <path
     style="opacity:1;fill:#e7e7e9;fill-opacity:1;stroke:none;stroke-width:0.0125;stroke-miterlimit:4;stroke-dasharray:none;stroke-opacity:1"
     d="m 266.20708,221.08808 c 0,-8.03853 -0.0428,-12.08815 -0.1294,-12.25 -0.0712,-0.13298 -0.2404,-0.24179 -0.37606,-0.24179 -0.1984,0 -0.22262,-0.0428 -0.12376,-0.21875 0.26579,-0.47304 0.50422,-1.20435 0.50422,-1.54651 0,-0.19786 0.0562,-0.35974 0.125,-0.35974 0.0687,0 0.125,0.10352 0.125,0.23004 0,0.45617 0.77576,1.76856 1.43523,2.42802 1.1896,1.1896 2.84713,1.83571 4.27794,1.66754 l 0.66183,-0.0778 v 11.18859 11.18859 h -3.25 -3.25 z"
     id="path1210"
     inkscape:connector-curvature="0" />
  <path
     style="opacity:1;fill:#025da9;fill-opacity:1;stroke:none;stroke-width:0.0125;stroke-miterlimit:4;stroke-dasharray:none;stroke-opacity:1"
     d="m 210.45905,187.25254 -0.002,-3.15625 h 31.125 31.125 l -0.002,3.15625 -0.002,3.15625 -1.00851,-1.93675 c -0.55467,-1.06521 -1.07398,-1.97841 -1.15402,-2.02934 -0.1895,-0.12056 -57.72627,-0.1213 -57.91201,-7.4e-4 -0.0778,0.0505 -0.59725,0.96371 -1.15428,2.02933 l -1.01279,1.9375 z"
     id="path1212"
     inkscape:connector-curvature="0" />
  <path
     style="opacity:1;fill:#ec1c22;fill-opacity:1;stroke:none;stroke-width:0.0125;stroke-miterlimit:4;stroke-dasharray:none;stroke-opacity:1"
     d="m 208.62983,194.42661 c 1.45279,-2.87103 2.94807,-5.82474 3.32285,-6.5638 l 0.68141,-1.34375 h 4.36233 c 2.39928,0 4.36084,0.0422 4.35903,0.0937 -0.002,0.0516 -0.97651,2.99062 -2.166,6.53125 l -2.16271,6.4375 -5.51917,0.0326 -5.51917,0.0325 z"
     id="path1214"
     inkscape:connector-curvature="0" />
  <path
     style="opacity:1;fill:#ec1c22;fill-opacity:1;stroke:none;stroke-width:0.0125;stroke-miterlimit:4;stroke-dasharray:none;stroke-opacity:1"
     d="m 226.11443,199.42531 c 0.003,-0.12031 0.19384,-1.03438 0.4238,-2.03125 0.22995,-0.99688 0.64925,-2.85313 0.93176,-4.125 0.28251,-1.27188 0.70596,-3.15625 0.94099,-4.1875 0.23504,-1.03125 0.46142,-2.04375 0.50306,-2.25 l 0.0757,-0.375 4.38969,0.0344 4.3897,0.0344 -0.0748,0.96557 c -0.0412,0.53107 -0.20092,3.48277 -0.35504,6.55933 l -0.28022,5.59375 h -5.47516 c -5.13328,0 -5.47481,-0.0137 -5.46948,-0.21875 z"
     id="path1216"
     inkscape:connector-curvature="0" />
  <path
     style="opacity:1;fill:#ec1c22;fill-opacity:1;stroke:none;stroke-width:0.0125;stroke-miterlimit:4;stroke-dasharray:none;stroke-opacity:1"
     d="m 246.17938,199.48781 c -0.0256,-0.0859 -0.11025,-1.42188 -0.18814,-2.96875 -0.0779,-1.54688 -0.22217,-3.99375 -0.32063,-5.4375 -0.0985,-1.44375 -0.20703,-3.05955 -0.24128,-3.59066 l -0.0623,-0.96566 4.43103,-0.0343 4.43103,-0.0343 0.13898,0.6875 c 0.0764,0.37812 0.30297,1.41875 0.50339,2.3125 0.20042,0.89375 0.61514,2.7885 0.9216,4.21057 0.30645,1.42206 0.69711,3.13769 0.86813,3.8125 0.17101,0.67481 0.34793,1.43787 0.39315,1.69568 l 0.0822,0.46875 h -5.45534 c -4.25612,0 -5.46556,-0.0343 -5.50185,-0.15625 z"
     id="path1218"
     inkscape:connector-curvature="0" />
  <path
     style="opacity:1;fill:#ec1c22;fill-opacity:1;stroke:none;stroke-width:0.0125;stroke-miterlimit:4;stroke-dasharray:none;stroke-opacity:1"
     d="m 266.09121,199.30031 c -0.075,-0.18906 -0.46466,-1.32813 -0.86594,-2.53125 -0.40127,-1.20313 -1.3229,-3.94957 -2.04806,-6.10321 -0.72516,-2.15364 -1.31847,-3.96843 -1.31847,-4.03287 0,-0.0713 1.6993,-0.10428 4.33758,-0.0843 l 4.33758,0.0329 1.04989,2 c 0.57744,1.1 2.07212,4.03906 3.3215,6.53125 l 2.27161,4.53125 h -5.47467 -5.47467 z"
     id="path1220"
     inkscape:connector-curvature="0" />
  <path
     style="opacity:1;fill:#b81d28;fill-opacity:1;stroke:none;stroke-width:0.01862781;stroke-miterlimit:4;stroke-dasharray:none;stroke-opacity:1"
     d="m 209.14396,206.04109 c -0.95599,-0.44261 -2.264,-1.78278 -2.8087,-2.87775 -0.31415,-0.63149 -0.41386,-1.1621 -0.42322,-2.25208 -0.009,-1.03032 0.0511,-1.42068 0.21589,-1.40695 0.12548,0.0108 2.66148,0.0318 5.63556,0.0475 l 5.40741,0.0285 -0.082,1.47667 c -0.0648,1.16585 -0.18715,1.66346 -0.58137,2.36424 -0.63467,1.12821 -1.66508,2.09932 -2.76557,2.60644 -1.1446,0.52745 -3.47299,0.53422 -4.59794,0.0133 z"
     id="path1222"
     inkscape:connector-curvature="0" />
  <path
     style="opacity:1;fill:#b81d28;fill-opacity:1;stroke:none;stroke-width:0.01848758;stroke-miterlimit:4;stroke-dasharray:none;stroke-opacity:1"
     d="m 230.46889,206.41547 c -1.46939,-0.2951 -2.86803,-1.44259 -3.72979,-3.06002 -0.33861,-0.63555 -0.46933,-1.21083 -0.54271,-2.3885 l -0.0966,-1.55134 h 5.51255 5.51256 l -0.11959,1.40575 c -0.20905,2.45749 -1.33122,4.2626 -3.22243,5.18357 -0.8781,0.4276 -2.33208,0.60772 -3.31392,0.41054 z"
     id="path1224"
     inkscape:connector-curvature="0" />
  <path
     style="opacity:1;fill:#b81d28;fill-opacity:1;stroke:none;stroke-width:0.0185141;stroke-miterlimit:4;stroke-dasharray:none;stroke-opacity:1"
     d="m 250.69244,206.38392 c -1.08348,-0.22135 -1.89871,-0.65554 -2.79901,-1.49073 -1.11489,-1.03427 -1.56237,-2.0806 -1.66334,-3.88937 l -0.0822,-1.47301 h 5.58673 5.58673 l -0.0835,1.47301 c -0.095,1.67664 -0.46656,2.60238 -1.48869,3.70913 -1.2717,1.37696 -3.26756,2.03647 -5.05671,1.67097 z"
     id="path1226"
     inkscape:connector-curvature="0" />
  <path
     style="opacity:1;fill:#b81d28;fill-opacity:1;stroke:none;stroke-width:0.01924408;stroke-miterlimit:4;stroke-dasharray:none;stroke-opacity:1"
     d="m 269.32643,206.11387 c -1.0448,-0.54629 -2.18654,-1.69703 -2.74604,-2.76768 -0.38665,-0.7399 -0.51793,-1.30494 -0.59459,-2.55924 l -0.0984,-1.6097 h 5.68326 5.68327 l -0.0853,1.49118 c -0.14067,2.45801 -1.38194,4.45203 -3.39286,5.4504 -1.05968,0.5261 -3.43873,0.52344 -4.44933,-0.004 z"
     id="path1228"
     inkscape:connector-curvature="0" />
  <path
     style="opacity:1;fill:#ffffff;fill-opacity:1;stroke:none;stroke-width:0.025;stroke-miterlimit:4;stroke-dasharray:none;stroke-opacity:1"
     d="m 210.51009,181.94322 v -2.12598 l 31.0625,0.0635 31.0625,0.0635 0.0726,2.0625 0.0726,2.0625 H 241.6452 210.51009 Z"
     id="path1236"
     inkscape:connector-curvature="0" />
  <path
     style="opacity:1;fill:#445a63;fill-opacity:1;stroke:none;stroke-width:0.00883884;stroke-miterlimit:4;stroke-dasharray:none;stroke-opacity:1"
     d="m 210.95507,210.7561 -0.46404,-0.0314 v -2.15018 -2.15018 l 0.41166,0.0878 c 0.80595,0.17189 2.49381,-0.22598 3.50457,-0.82612 0.79833,-0.47402 1.9174,-1.58792 1.9174,-1.90855 0,-0.063 0.0298,-0.11477 0.0663,-0.11498 0.0365,-2.1e-4 0.16508,-0.23601 0.28583,-0.52401 0.1679,-0.40047 0.24585,-0.50178 0.33145,-0.43074 0.0616,0.0511 0.11193,0.21622 0.11193,0.36695 0,0.41442 0.59508,1.51678 1.09911,2.03606 0.39211,0.40397 0.78953,0.68853 1.53237,1.09721 0.11045,0.0608 0.38001,0.13503 0.59904,0.16505 0.21902,0.03 0.41937,0.0888 0.44522,0.13063 0.0613,0.0992 1.33765,0.0992 1.39896,0 0.0258,-0.0418 0.2262,-0.10061 0.44522,-0.13063 0.21903,-0.03 0.46871,-0.0893 0.55484,-0.13182 0.0861,-0.0425 0.35005,-0.17262 0.58647,-0.28921 1.09502,-0.54 1.96153,-1.79484 2.22158,-3.21719 l 0.0647,-0.35355 0.18406,0.48613 c 0.10123,0.26738 0.20605,0.50603 0.23294,0.53033 0.0269,0.0243 0.12845,0.20257 0.22567,0.39614 0.20839,0.41487 1.33852,1.6368 1.51384,1.6368 0.0667,0 0.12135,0.0327 0.12135,0.0727 0,0.0831 0.80531,0.5075 0.90598,0.47742 0.0365,-0.0109 0.0663,0.02 0.0663,0.0686 0,0.0486 0.0716,0.0884 0.1591,0.0884 0.0875,0 0.19688,0.0355 0.24307,0.0789 0.26901,0.25286 2.42902,0.48468 2.55884,0.27463 0.03,-0.0486 0.20903,-0.0884 0.39775,-0.0884 0.18871,0 0.3681,-0.0404 0.39864,-0.0898 0.0305,-0.0494 0.0909,-0.0679 0.1342,-0.0412 0.0433,0.0267 0.14991,0.0113 0.23696,-0.0344 0.087,-0.0457 0.43546,-0.21605 0.77425,-0.37865 1.15736,-0.55545 2.32788,-1.94829 2.77396,-3.30083 0.0849,-0.25737 0.0877,-0.25347 0.0968,0.13259 0.0118,0.49906 0.41492,1.45779 0.85968,2.0443 0.36813,0.48546 1.1913,1.14865 1.75203,1.41153 0.69106,0.32399 2.18972,0.53522 2.55425,0.36002 0.10237,-0.0492 0.33098,-0.10931 0.50803,-0.13358 0.28665,-0.0393 1.21117,-0.42365 1.44524,-0.60082 0.79419,-0.60115 1.34252,-1.32704 1.59326,-2.10918 0.0857,-0.26738 0.19001,-0.5552 0.23177,-0.63962 0.0418,-0.0844 0.0759,-0.21603 0.0759,-0.29248 0,-0.0764 0.0398,-0.11441 0.0884,-0.0844 0.0486,0.0301 0.0884,0.11588 0.0884,0.19074 0,0.22049 0.27528,0.74415 0.68684,1.30653 1.33868,1.82931 3.64562,2.71826 5.88806,2.26888 0.52366,-0.10494 1.48732,-0.507 1.5421,-0.64339 0.0162,-0.0403 0.0777,-0.0734 0.1367,-0.0734 0.059,0 0.20166,-0.0696 0.31705,-0.15468 0.21627,-0.15944 1.19653,-1.12778 1.39821,-1.38121 0.1154,-0.145 0.67446,-1.18856 0.74931,-1.39868 0.0643,-0.18055 0.16201,-0.0298 0.25052,0.38652 0.12723,0.5984 0.6122,1.46925 1.09622,1.96843 0.38743,0.39957 0.7816,0.68141 1.52909,1.09331 0.71969,0.39659 2.66661,0.41541 3.43837,0.0332 0.0875,-0.0433 0.35125,-0.17416 0.58615,-0.29075 0.83942,-0.41664 1.80335,-1.48186 1.96931,-2.17625 0.0323,-0.13499 0.0885,-0.28522 0.12496,-0.33383 0.0365,-0.0486 0.0956,-0.30585 0.13133,-0.57162 l 0.065,-0.48324 0.17892,0.48324 c 0.50203,1.35589 1.63311,2.51413 3.10843,3.18308 0.68566,0.31089 1.74862,0.47925 2.62838,0.41631 l 0.60314,-0.0432 v 2.1043 c 0,1.39101 -0.0319,2.12399 -0.094,2.16239 -0.20306,0.1255 -1.72159,0.0677 -2.24369,-0.0854 -0.69189,-0.20287 -1.49051,-0.60986 -2.03756,-1.03836 -0.83237,-0.65201 -1.67666,-1.84968 -1.94532,-2.75957 -0.15485,-0.52445 -0.27642,-0.48231 -0.38488,0.13343 -0.0531,0.3016 -0.16253,0.72103 -0.24313,0.93206 l -0.14653,0.38368 h -3.95464 c -3.13641,0 -3.97437,-0.0238 -4.04998,-0.11487 -0.0524,-0.0632 -0.1224,-0.29188 -0.15547,-0.50823 -0.0331,-0.21635 -0.0912,-0.4333 -0.12924,-0.48211 -0.038,-0.0488 -0.0823,-0.22473 -0.0984,-0.39094 -0.0349,-0.36027 -0.25029,-0.48689 -0.25029,-0.14717 0,0.24912 -0.51137,1.47141 -0.65922,1.57568 -0.0506,0.0357 -1.3933,0.0656 -2.98369,0.0663 -2.76765,0.001 -2.89553,0.009 -2.9831,0.17232 -0.0503,0.094 -0.0915,0.61378 -0.0915,1.155 0,0.97976 -8.9e-4,0.98378 -0.19888,0.92262 -1.63318,-0.50438 -2.66704,-1.43536 -3.4967,-3.14872 -0.22797,-0.47077 -0.43521,-0.85858 -0.46055,-0.86179 -0.0253,-0.003 -0.092,0.23594 -0.14818,0.53146 -0.17659,0.92924 -0.65635,1.79938 -1.37771,2.4988 l -0.63775,0.61833 -0.0264,-0.65383 c -0.0418,-1.0362 0.18742,-0.96767 -3.23644,-0.96767 -3.25923,0 -3.04648,0.0415 -3.18851,-0.62162 -0.0361,-0.16855 -0.0958,-0.34623 -0.13271,-0.39485 -0.0369,-0.0486 -0.0917,-0.2276 -0.12188,-0.39775 -0.0301,-0.17014 -0.0719,-0.36902 -0.0927,-0.44194 -0.0209,-0.0729 -0.0431,-0.17235 -0.0495,-0.22097 -0.006,-0.0486 -0.0904,0.11049 -0.18667,0.35356 -0.0963,0.24306 -0.293,0.68547 -0.43712,0.98311 -0.14412,0.29765 -0.26204,0.58637 -0.26204,0.64161 0,0.074 -1.21499,0.0944 -4.61492,0.0775 l -4.61493,-0.0229 -0.32897,-0.66291 c -0.18093,-0.3646 -0.356,-0.79262 -0.38904,-0.95115 -0.11464,-0.55014 -0.2681,-0.37328 -0.44185,0.50921 -0.0335,0.17015 -0.0861,0.34913 -0.1168,0.39775 -0.0307,0.0486 -0.0969,0.2276 -0.1471,0.39774 l -0.0912,0.30936 -3.95256,0.023 c -3.88356,0.0226 -3.95256,0.02 -3.95256,-0.15141 0,-0.0959 -0.0742,-0.36481 -0.165,-0.59753 -0.0907,-0.23271 -0.19262,-0.61204 -0.22639,-0.84296 -0.077,-0.52641 -0.25032,-0.54558 -0.39951,-0.0442 -0.31422,1.05608 -0.97445,1.99343 -1.88754,2.67981 -1.25374,0.94245 -2.44698,1.30978 -3.92859,1.20938 z"
     id="path1258"
     inkscape:connector-curvature="0" />
  <path
     style="opacity:1;fill:#445a63;fill-opacity:1;stroke:none;stroke-width:0.00883884;stroke-miterlimit:4;stroke-dasharray:none;stroke-opacity:1"
     d="m 210.95507,210.75878 -0.46404,-0.0341 v -2.14052 -2.14051 l 0.64612,0.0326 c 0.93732,0.0473 1.99817,-0.17717 2.87009,-0.6074 1.01318,-0.49993 2.03909,-1.51575 2.55341,-2.5283 0.26521,-0.52213 0.39236,-0.6934 0.46262,-0.62314 0.0533,0.0533 0.0969,0.19944 0.0969,0.32477 0,0.46172 0.59607,1.50017 1.21819,2.12229 1.46737,1.46737 3.35168,1.77019 5.27093,0.84706 1.2646,-0.60824 2.0321,-1.68367 2.40162,-3.36517 0.0359,-0.16355 0.075,-0.21435 0.10184,-0.13258 0.024,0.0729 0.1781,0.41315 0.34254,0.75606 0.52614,1.09721 1.53347,2.14162 2.49335,2.58514 0.17871,0.0826 0.34481,0.17199 0.36912,0.1987 0.10938,0.1202 1.08595,0.3693 1.79713,0.45841 0.58743,0.0736 0.85153,0.0722 1.06694,-0.006 0.15745,-0.0569 0.36299,-0.10409 0.45677,-0.1048 0.0938,-7.1e-4 0.34949,-0.0621 0.56825,-0.13639 1.76117,-0.59821 2.96393,-1.73334 3.6792,-3.47232 0.20222,-0.49164 0.20572,-0.49474 0.20779,-0.18435 0.008,1.14424 1.23351,2.84491 2.4929,3.45832 0.56862,0.27696 1.83112,0.5461 2.27164,0.48427 2.11334,-0.29662 3.41202,-1.32357 4.03155,-3.18799 0.13882,-0.41779 0.27383,-0.7382 0.3,-0.71203 0.0262,0.0262 0.11255,0.21871 0.19193,0.42784 0.23199,0.61115 0.76635,1.34367 1.39231,1.90862 1.02663,0.92657 2.12114,1.39254 3.4639,1.4747 1.164,0.0712 1.89633,-0.0623 2.8165,-0.51343 1.02995,-0.50498 2.13308,-1.57982 2.61831,-2.55116 0.18213,-0.3646 0.34854,-0.68164 0.36979,-0.70454 0.0631,-0.068 0.20299,0.20412 0.20445,0.39768 0.003,0.42522 0.62623,1.48035 1.23146,2.08559 0.86307,0.86306 1.63592,1.2218 2.7792,1.29 1.3528,0.0807 2.29265,-0.19139 3.28274,-0.9504 0.81801,-0.6271 1.44508,-1.6891 1.5975,-2.70547 l 0.0601,-0.40085 0.23936,0.56735 c 0.63636,1.50835 1.8568,2.63862 3.44662,3.19198 0.66321,0.23084 0.8817,0.26378 1.79373,0.27046 l 1.03853,0.008 3e-5,2.09401 c 3e-5,1.41298 -0.0312,2.11333 -0.0961,2.15341 -0.0529,0.0327 -0.48045,0.06 -0.95018,0.0608 -0.98205,0.002 -1.82157,-0.23298 -2.72169,-0.76052 -1.0589,-0.6206 -2.14135,-1.93087 -2.4826,-3.00507 -0.0867,-0.2728 -0.20211,-0.49655 -0.25655,-0.49722 -0.0545,-6.7e-4 -0.14756,0.24569 -0.20693,0.54747 -0.0594,0.30177 -0.16831,0.69952 -0.24207,0.88388 l -0.13412,0.3352 h -3.95706 c -3.06159,0 -3.9762,-0.025 -4.04167,-0.11048 -0.0465,-0.0608 -0.15468,-0.38891 -0.24031,-0.72921 -0.23335,-0.92726 -0.23362,-0.92807 -0.30983,-0.92807 -0.039,0 -0.0925,0.13356 -0.11903,0.2968 -0.0265,0.16324 -0.17168,0.56098 -0.32265,0.88388 l -0.27448,0.58708 -2.893,0.001 c -1.66444,7.7e-4 -2.9493,0.0369 -3.02558,0.085 -0.10304,0.065 -0.13919,0.32243 -0.16225,1.15537 l -0.0297,1.07173 -0.23549,-0.0578 c -0.48967,-0.12023 -1.49033,-0.6703 -1.9381,-1.06539 -0.57125,-0.50404 -1.13142,-1.27959 -1.57792,-2.18462 -0.18588,-0.37675 -0.36106,-0.68501 -0.38928,-0.68501 -0.0282,0 -0.0986,0.22887 -0.15637,0.50859 -0.18578,0.89947 -0.66276,1.75062 -1.37054,2.44568 l -0.63691,0.62546 -0.0228,-0.53033 c -0.0305,-0.71123 -0.0796,-0.89458 -0.26375,-0.98445 -0.0855,-0.0417 -1.46801,-0.0958 -3.07226,-0.12023 l -2.91681,-0.0444 -0.28114,-0.83969 c -0.15462,-0.46182 -0.28438,-0.91923 -0.28834,-1.01646 -0.006,-0.15457 -0.34789,0.53431 -0.77796,1.56889 l -0.13778,0.33146 h -4.61736 -4.61736 l -0.36318,-0.8281 c -0.19974,-0.45546 -0.36317,-0.87075 -0.36317,-0.92286 0,-0.23237 -0.1704,-0.16794 -0.24557,0.0929 -0.0457,0.15844 -0.17815,0.59621 -0.29439,0.97281 l -0.21134,0.68474 -3.95538,2.7e-4 c -3.9385,2.8e-4 -3.95538,-5e-4 -3.95538,-0.18231 0,-0.10042 -0.0416,-0.26036 -0.0925,-0.35542 -0.0509,-0.0951 -0.16127,-0.45262 -0.24533,-0.79456 -0.084,-0.34195 -0.19158,-0.62345 -0.23895,-0.62556 -0.0474,-0.002 -0.19367,0.27709 -0.32511,0.62046 -0.38953,1.01759 -0.90957,1.70847 -1.77655,2.3602 -1.25397,0.94262 -2.47399,1.31903 -3.92859,1.21206 z"
     id="path1260"
     inkscape:connector-curvature="0" />
  <path
     style="opacity:1;fill:#445a63;fill-opacity:1;stroke:none;stroke-width:0.00883884;stroke-miterlimit:4;stroke-dasharray:none;stroke-opacity:1"
     d="m 210.91088,210.76025 -0.41985,-0.036 1.3e-4,-2.13857 1.3e-4,-2.13858 0.90585,-0.007 c 1.02589,-0.008 1.7861,-0.17388 2.58523,-0.56575 1.01919,-0.49977 2.056,-1.54907 2.64256,-2.67441 0.21849,-0.41917 0.32865,-0.55255 0.39858,-0.48262 0.0532,0.0532 0.0975,0.19808 0.0986,0.32204 0.005,0.52281 0.7951,1.79816 1.47528,2.37984 0.59182,0.50612 1.4198,0.89043 2.21811,1.02954 0.88037,0.15342 1.78946,0.009 2.71917,-0.43279 1.30871,-0.62151 2.09315,-1.69239 2.46759,-3.36864 0.0558,-0.24968 0.0796,-0.22112 0.44274,0.53033 0.61179,1.26603 1.45435,2.13485 2.63351,2.7156 0.81616,0.40196 1.09863,0.48812 1.96282,0.59869 1.37655,0.17613 3.16709,-0.4369 4.27674,-1.46425 0.70439,-0.65214 1.1016,-1.20474 1.47098,-2.04647 0.25798,-0.58786 0.30259,-0.64725 0.30456,-0.40549 0.003,0.42212 0.38617,1.39864 0.762,1.94434 0.71594,1.03951 1.72338,1.67519 3.04662,1.92238 0.67715,0.12649 0.82223,0.12764 1.37712,0.0109 1.27859,-0.26896 2.03634,-0.68405 2.76458,-1.51441 0.27225,-0.31044 0.89084,-1.49259 0.89084,-1.70245 0,-0.0462 0.0526,-0.20909 0.11685,-0.36194 l 0.11685,-0.2779 0.37358,0.75392 c 0.65351,1.31885 1.82357,2.31888 3.32685,2.84344 0.63406,0.22125 0.82372,0.24631 1.85531,0.24507 1.05529,-10e-4 1.19953,-0.0218 1.76776,-0.25172 1.38356,-0.5598 2.56353,-1.61006 3.18541,-2.83528 0.1859,-0.36625 0.37933,-0.65213 0.42984,-0.63529 0.0505,0.0168 0.12267,0.18679 0.16035,0.37767 0.2082,1.05492 1.30997,2.42028 2.37258,2.94018 1.71203,0.83765 3.75955,0.52075 5.17209,-0.80049 0.63324,-0.59232 1.03897,-1.30061 1.25991,-2.19943 l 0.15694,-0.63844 0.1644,0.43423 c 0.5942,1.56934 2.20242,3.01545 3.81664,3.43191 0.33675,0.0869 0.91604,0.14011 1.5247,0.14011 h 0.98161 v 2.1161 c 0,1.42886 -0.0312,2.1354 -0.0961,2.17551 -0.0529,0.0327 -0.48045,0.06 -0.95018,0.0608 -0.99244,0.002 -1.90712,-0.25799 -2.78254,-0.78978 -1.01196,-0.61473 -2.0139,-1.83136 -2.42443,-2.94391 -0.0987,-0.26738 -0.21364,-0.48614 -0.25552,-0.48614 -0.0419,0 -0.1416,0.2701 -0.22159,0.60023 -0.08,0.33013 -0.19421,0.71793 -0.2538,0.86179 l -0.10834,0.26155 h -3.95593 c -3.14396,0 -3.97556,-0.0237 -4.05157,-0.11524 -0.0526,-0.0634 -0.18287,-0.45972 -0.28948,-0.88076 -0.10661,-0.42103 -0.22303,-0.74748 -0.25871,-0.72542 -0.0357,0.0221 -0.0901,0.17431 -0.12083,0.33836 -0.0308,0.16404 -0.17419,0.54234 -0.3187,0.84066 l -0.26274,0.5424 h -2.85641 c -2.27769,0 -2.88993,0.0245 -3.02185,0.12098 -0.14087,0.103 -0.17133,0.27468 -0.20505,1.15577 l -0.0396,1.0348 -0.23169,-0.0537 c -0.47277,-0.10949 -1.50863,-0.67987 -1.9415,-1.06906 -0.58352,-0.52463 -1.02353,-1.13154 -1.53246,-2.11372 -0.24764,-0.47792 -0.43157,-0.74543 -0.45799,-0.6661 -0.0243,0.0729 -0.10992,0.36915 -0.19032,0.65829 -0.2445,0.87927 -0.63234,1.53389 -1.30716,2.2063 l -0.62899,0.62675 -0.0518,-0.68183 c -0.0285,-0.37501 -0.0812,-0.71118 -0.11703,-0.74704 -0.13219,-0.13219 -1.31277,-0.19735 -3.65561,-0.20177 -1.82152,-0.003 -2.42068,-0.0313 -2.47487,-0.11503 -0.0393,-0.0608 -0.19215,-0.48593 -0.3396,-0.94482 l -0.26808,-0.83434 -0.43464,0.94483 -0.43464,0.94482 h -4.61434 -4.61434 l -0.2796,-0.59662 c -0.15378,-0.32814 -0.32631,-0.74578 -0.3834,-0.92808 -0.0571,-0.1823 -0.12911,-0.33146 -0.16002,-0.33146 -0.0309,0 -0.18699,0.41764 -0.34684,0.92808 l -0.29063,0.92808 -3.94057,-4.4e-4 -3.94058,-4.5e-4 -0.20873,-0.72876 c -0.1148,-0.40082 -0.23661,-0.82571 -0.27069,-0.94421 -0.10986,-0.38203 -0.22619,-0.28602 -0.47984,0.39606 -0.4412,1.1864 -1.4065,2.22386 -2.69861,2.90034 -0.95613,0.50057 -1.9693,0.70521 -3.03754,0.61352 z"
     id="path1262"
     inkscape:connector-curvature="0" />
  <rect
     style="opacity:1;fill:#28b4f4;fill-opacity:1;stroke:none;stroke-width:0.10394853;stroke-miterlimit:4;stroke-dasharray:none;stroke-opacity:1"
     id="rect1248"
     width="16.244833"
     height="24.926788"
     x="250.32938"
     y="208.25795"
     ry="0" />
  <path
     style="opacity:1;fill:#445a63;fill-opacity:1;stroke:none;stroke-width:0.00883884;stroke-miterlimit:4;stroke-dasharray:none;stroke-opacity:1"
     d="m 210.86668,210.7621 -0.37565,-0.0384 v -2.16043 -2.16043 l 0.90598,-0.001 c 1.7756,-0.003 2.78249,-0.41282 4.0039,-1.6314 0.60151,-0.60011 0.88594,-0.96636 1.14713,-1.47706 0.37102,-0.72546 0.50688,-0.77363 0.59802,-0.21203 0.0267,0.16461 0.15524,0.51715 0.28562,0.78342 1.12232,2.29208 3.72479,3.23994 6.0069,2.18781 1.33484,-0.6154 2.1166,-1.62632 2.5263,-3.26685 l 0.0977,-0.39125 0.40886,0.83319 c 0.33146,0.67548 0.54334,0.96812 1.11934,1.54604 1.83677,1.84285 4.21017,2.21433 6.58832,1.03117 1.12204,-0.55823 2.15867,-1.72602 2.69924,-3.04076 l 0.16975,-0.41285 0.10341,0.50696 c 0.50706,2.48581 3.10429,4.12485 5.53725,3.49441 1.60033,-0.41469 2.58593,-1.33807 3.1595,-2.96004 0.14081,-0.39818 0.27129,-0.73924 0.28997,-0.75792 0.0187,-0.0187 0.17774,0.2548 0.35347,0.60772 0.72674,1.45951 2.05447,2.56485 3.64151,3.03158 0.81825,0.24064 2.39103,0.22425 3.14886,-0.0328 1.48042,-0.50218 2.71383,-1.57796 3.44105,-3.00129 0.1562,-0.30571 0.32446,-0.54234 0.37393,-0.52585 0.0495,0.0165 0.13529,0.20695 0.19073,0.42324 0.33445,1.30497 1.57827,2.66186 2.83331,3.09088 0.67565,0.23096 1.70607,0.31108 2.38648,0.18556 0.81873,-0.15104 1.77122,-0.66266 2.39257,-1.28513 0.6034,-0.60448 0.92767,-1.2009 1.18122,-2.17257 0.0951,-0.3646 0.17517,-0.60615 0.17785,-0.53678 0.003,0.0694 0.16062,0.44723 0.35098,0.83969 0.61089,1.25942 1.78227,2.31652 3.15752,2.84945 0.51636,0.20009 0.7806,0.24096 1.77912,0.27518 l 1.17269,0.0402 -0.0236,2.13314 -0.0236,2.13313 -0.53033,0.0599 c -1.48364,0.1675 -3.12938,-0.44922 -4.28647,-1.60631 -0.54263,-0.54263 -1.21547,-1.57094 -1.45938,-2.23039 -0.085,-0.22993 -0.18584,-0.39876 -0.224,-0.37518 -0.0382,0.0236 -0.0975,0.21171 -0.13181,0.41806 -0.0343,0.20635 -0.1401,0.584 -0.23501,0.83922 l -0.17257,0.46404 h -3.95345 c -2.84965,0 -3.98168,-0.0282 -4.05457,-0.10112 -0.0556,-0.0556 -0.1886,-0.43229 -0.29553,-0.83706 -0.10693,-0.40477 -0.22848,-0.71489 -0.27011,-0.68916 -0.0416,0.0257 -0.0757,0.11517 -0.0757,0.19874 0,0.0836 -0.13669,0.43718 -0.30375,0.78578 l -0.30375,0.63381 -2.91812,0.0266 c -1.85447,0.0169 -2.95137,0.0599 -3.00933,0.11792 -0.0502,0.0502 -0.11798,0.56011 -0.1507,1.13307 l -0.0595,1.04174 -0.22925,-0.053 c -0.12609,-0.0292 -0.52756,-0.19697 -0.89216,-0.37287 -0.97155,-0.46874 -1.83948,-1.37582 -2.45858,-2.56951 -0.25841,-0.49824 -0.50067,-0.90589 -0.53836,-0.90589 -0.0377,0 -0.11941,0.22871 -0.18161,0.50824 -0.1844,0.8287 -0.60981,1.59564 -1.2742,2.29712 -0.33432,0.35298 -0.63809,0.64179 -0.67504,0.64179 -0.0369,0 -0.0831,-0.28276 -0.10268,-0.62836 -0.0259,-0.45803 -0.076,-0.65794 -0.18477,-0.7375 -0.18357,-0.13422 -1.92744,-0.22513 -4.31865,-0.22513 h -1.75098 l -0.29238,-0.93895 -0.29238,-0.93896 -0.41247,0.91686 -0.41246,0.91685 h -4.66505 -4.66504 l -0.35606,-0.81095 c -0.19584,-0.44603 -0.38133,-0.83589 -0.41221,-0.86637 -0.0309,-0.0305 -0.18202,0.34439 -0.33586,0.83305 l -0.2797,0.88847 -3.95099,-2.6e-4 -3.95098,-2.5e-4 -0.24959,-0.86153 c -0.33922,-1.17093 -0.32033,-1.1231 -0.40717,-1.03099 -0.0421,0.0446 -0.19962,0.37938 -0.35017,0.74398 -0.47992,1.1623 -1.38885,2.11046 -2.66118,2.77602 -0.96866,0.50671 -2.02829,0.71748 -3.0715,0.61094 z"
     id="path1264"
     inkscape:connector-curvature="0" />
  <path
     style="opacity:1;fill:#445a63;fill-opacity:1;stroke:none;stroke-width:0.00883884;stroke-miterlimit:4;stroke-dasharray:none;stroke-opacity:1"
     d="m 210.77829,210.76373 -0.28726,-0.041 v -2.15992 -2.15991 l 0.86179,-0.002 c 1.7881,-0.003 2.86068,-0.4429 4.09133,-1.67729 0.54944,-0.55112 0.84937,-0.94093 1.10293,-1.43349 0.26697,-0.51862 0.3745,-0.65476 0.46067,-0.58325 0.0618,0.0513 0.11241,0.18325 0.11241,0.2932 0,0.10996 0.15766,0.51492 0.35037,0.89993 1.06684,2.13149 3.44468,3.10189 5.60672,2.2881 1.47625,-0.55566 2.29031,-1.46828 2.79663,-3.13525 l 0.19792,-0.6516 0.44813,0.87086 c 0.71879,1.39682 1.88318,2.42041 3.37319,2.96531 0.70799,0.2589 2.30175,0.28159 3.08747,0.0439 1.72996,-0.52324 2.97339,-1.60091 3.75793,-3.25697 l 0.32319,-0.68221 0.11297,0.54962 c 0.49104,2.38908 3.08745,4.05995 5.40132,3.47591 1.45208,-0.36652 2.38406,-1.10224 2.9949,-2.36424 0.20012,-0.41345 0.36527,-0.80849 0.36699,-0.87786 0.002,-0.0694 0.0555,-0.22057 0.11949,-0.336 0.11273,-0.20336 0.12695,-0.18826 0.45775,0.48613 0.67114,1.36823 2.1784,2.60103 3.66227,2.9954 0.73083,0.19423 2.41011,0.17406 3.08856,-0.0371 1.42538,-0.44362 2.71018,-1.5769 3.49581,-3.08352 0.13413,-0.25722 0.28665,-0.45342 0.33893,-0.43599 0.0523,0.0174 0.14047,0.20799 0.19597,0.42349 0.28062,1.08948 1.3031,2.33673 2.34147,2.85621 1.09936,0.54999 2.39926,0.62408 3.55962,0.20289 0.69002,-0.25046 1.47011,-0.76387 1.88457,-1.24031 0.41544,-0.47755 0.88813,-1.46018 1.01664,-2.11336 l 0.10206,-0.51877 0.27459,0.62601 c 0.54789,1.24905 1.46613,2.21994 2.72542,2.88168 0.75153,0.39492 1.55272,0.56657 2.6536,0.56853 l 0.86179,0.002 v 2.15282 2.15282 l -0.59695,0.0555 c -1.40897,0.13095 -2.90036,-0.38637 -4.0742,-1.41322 -0.51868,-0.45373 -1.2828,-1.54166 -1.55815,-2.21846 -0.11238,-0.27623 -0.2399,-0.51409 -0.28338,-0.52858 -0.0435,-0.0145 -0.1432,0.24264 -0.22162,0.5714 -0.0784,0.32877 -0.18529,0.70714 -0.23749,0.84083 l -0.0949,0.24306 -3.95757,-0.001 c -2.17666,-7.4e-4 -4.00037,-0.0306 -4.05268,-0.0663 -0.0523,-0.0357 -0.189,-0.39308 -0.30375,-0.79414 -0.18972,-0.66309 -0.35244,-0.93763 -0.35244,-0.59461 0,0.074 -0.12318,0.42805 -0.27373,0.78672 l -0.27374,0.65212 -2.95569,0.0309 c -2.42993,0.0254 -2.96944,0.0531 -3.03303,0.15605 -0.0425,0.0688 -0.10569,0.57904 -0.14035,1.13377 l -0.063,1.00859 -0.23204,-0.0538 c -0.12763,-0.0296 -0.53036,-0.19767 -0.89496,-0.37357 -0.95993,-0.46313 -1.83368,-1.37186 -2.4705,-2.56937 -0.26497,-0.49827 -0.50815,-0.87613 -0.54041,-0.83969 -0.0323,0.0364 -0.1066,0.26512 -0.1652,0.50819 -0.18564,0.76997 -0.63477,1.55513 -1.27664,2.2318 -0.33432,0.35245 -0.63723,0.64082 -0.67313,0.64082 -0.0359,0 -0.0854,-0.28127 -0.11,-0.62505 -0.0246,-0.34377 -0.0913,-0.67163 -0.14823,-0.72856 -0.12145,-0.12144 -2.00899,-0.219 -4.44909,-0.22995 -0.91151,-0.004 -1.65794,-0.0174 -1.65875,-0.0295 -7.9e-4,-0.0122 -0.13544,-0.41984 -0.2992,-0.90598 -0.27059,-0.80326 -0.30602,-0.86373 -0.3884,-0.66291 -0.0499,0.12153 -0.23241,0.52922 -0.40567,0.90598 l -0.31502,0.68501 h -4.64643 -4.64644 l -0.39235,-0.83969 c -0.21579,-0.46183 -0.40758,-0.83969 -0.4262,-0.83969 -0.0186,0 -0.12137,0.26848 -0.22836,0.59662 -0.10698,0.32814 -0.23649,0.706 -0.28781,0.83969 l -0.0933,0.24307 h -3.96675 c -2.81213,0 -3.96675,-0.0281 -3.96675,-0.0967 0,-0.24506 -0.55717,-1.85586 -0.6191,-1.78984 -0.0385,0.041 -0.19309,0.37286 -0.34364,0.73746 -0.77436,1.87539 -2.78787,3.28078 -4.86142,3.39317 -0.36981,0.02 -0.80165,0.018 -0.95965,-0.005 z"
     id="path1266"
     inkscape:connector-curvature="0" />
  <path
     style="fill:#0297e1;fill-opacity:1;stroke:none;stroke-width:1.03665352px;stroke-linecap:butt;stroke-linejoin:miter;stroke-opacity:1"
     d="m 266.57422,208.25796 -16.15646,24.92678 h 16.15646 z"
     id="path1252"
     inkscape:connector-curvature="0" />
  <path
     style="opacity:1;fill:#ffffff;fill-opacity:1;stroke:none;stroke-width:0.01767767;stroke-miterlimit:4;stroke-dasharray:none;stroke-opacity:1"
     d="m 217.40268,198.98144 c 0.0908,-0.31599 1.06154,-3.23943 2.15713,-6.49654 l 1.992,-5.92202 3.57385,-0.0479 c 2.9491,-0.0395 3.57386,-0.005 3.57386,0.19684 0,0.30504 -0.23266,1.50111 -0.69314,3.56332 -0.98911,4.42958 -1.29484,5.7888 -1.63026,7.24785 -0.20116,0.87504 -0.39459,1.69042 -0.42984,1.81196 -0.049,0.169 -1.08059,0.22097 -4.38642,0.22097 h -4.32233 z"
     id="path1268"
     inkscape:connector-curvature="0" />
  <path
     style="opacity:1;fill:#ffffff;fill-opacity:1;stroke:none;stroke-width:0.01821882;stroke-miterlimit:4;stroke-dasharray:none;stroke-opacity:1"
     d="m 219.61078,205.71894 c -1.70668,-0.79468 -2.43821,-2.19214 -2.43821,-4.65778 v -1.64555 h 4.4636 4.46362 v 1.5257 c 0,2.51097 -0.75734,3.99496 -2.43822,4.77763 -1.26676,0.58984 -2.78402,0.58984 -4.05079,0 z"
     id="path1270"
     inkscape:connector-curvature="0" />
  <path
     style="opacity:1;fill:#ffffff;fill-opacity:1;stroke:none;stroke-width:0.01767767;stroke-miterlimit:4;stroke-dasharray:none;stroke-opacity:1"
     d="m 237.2544,198.62789 c 0.0523,-0.51044 0.13793,-1.88267 0.19035,-3.0494 0.0524,-1.16672 0.18784,-3.69242 0.30092,-5.61266 l 0.20559,-3.49134 h 3.65759 3.65759 l 0.116,2.07713 c 0.0638,1.14242 0.19335,3.62834 0.28788,5.52427 0.0945,1.89593 0.22052,3.90455 0.27996,4.46361 l 0.10807,1.01647 h -4.44949 -4.4495 z"
     id="path1272"
     inkscape:connector-curvature="0" />
  <path
     style="opacity:1;fill:#ffffff;fill-opacity:1;stroke:none;stroke-width:0.01809353;stroke-miterlimit:4;stroke-dasharray:none;stroke-opacity:1"
     d="m 239.9111,206.02418 c -0.82826,-0.39515 -1.82103,-1.38664 -2.23413,-2.23126 -0.27511,-0.56248 -0.39265,-1.22457 -0.45516,-2.56391 l -0.0843,-1.80563 h 4.44305 4.44306 l -0.002,1.25005 c -0.004,2.39959 -0.68231,3.97969 -2.14304,4.99236 -0.57206,0.3966 -0.95462,0.49905 -2.06282,0.55242 -0.91117,0.0439 -1.5402,-0.0202 -1.90458,-0.19403 z"
     id="path1274"
     inkscape:connector-curvature="0" />
  <path
     style="opacity:1;fill:#ffffff;fill-opacity:1;stroke:none;stroke-width:0.01767767;stroke-miterlimit:4;stroke-dasharray:none;stroke-opacity:1"
     d="m 257.27902,199.42338 c -0.0435,-0.0729 -0.1743,-0.60988 -0.29054,-1.19324 -0.11624,-0.58336 -0.31333,-1.45841 -0.43798,-1.94454 -0.12464,-0.48614 -0.36278,-1.52028 -0.52919,-2.2981 -0.36027,-1.68398 -0.8399,-3.79866 -1.22946,-5.4207 -0.15561,-0.64794 -0.28293,-1.38542 -0.28293,-1.63885 v -0.46078 l 3.56256,0.0479 3.56256,0.0479 1.96566,5.84334 c 1.08111,3.21383 2.05587,6.13728 2.16614,6.49654 l 0.20047,0.65321 h -4.30405 c -2.36723,0 -4.33968,-0.0597 -4.38324,-0.13259 z"
     id="path1276"
     inkscape:connector-curvature="0" />
  <path
     style="opacity:1;fill:#ffffff;fill-opacity:1;stroke:none;stroke-width:0.01767767;stroke-miterlimit:4;stroke-dasharray:none;stroke-opacity:1"
     d="m 259.70314,205.84884 c -1.65599,-0.77108 -2.36579,-2.12703 -2.36579,-4.51943 v -1.59667 h 4.3064 4.30641 l 0.10428,0.88055 c 0.38571,3.25666 -1.47524,5.65674 -4.38607,5.65674 -0.74648,0 -1.3286,-0.12476 -1.96523,-0.42119 z"
     id="path1278"
     inkscape:connector-curvature="0" />
  <rect
     style="opacity:1;fill:#0297e1;fill-opacity:1;stroke:none;stroke-width:0.1028532;stroke-miterlimit:4;stroke-dasharray:none;stroke-opacity:1"
     id="rect1280"
     width="27.464134"
     height="13.57343"
     x="216.81087"
     y="208.5229"
     ry="0" />
  <path
     style="fill:#28b4f4;stroke:none;stroke-width:1px;stroke-linecap:butt;stroke-linejoin:miter;stroke-opacity:1;fill-opacity:1"
     d="m 216.81662,217.00832 -0.006,5.08801 V 208.5229 h 27.46412 l -27.46412,13.57343 z"
     id="path1282"
     inkscape:connector-curvature="0" />
  <text
     xml:space="preserve"
     style="font-style:normal;font-weight:normal;font-size:18.58605003px;line-height:1.25;font-family:sans-serif;letter-spacing:0px;word-spacing:0px;fill:#0e0d3f;fill-opacity:1;stroke:none;stroke-width:0.46465129;"
     x="210.56931"
     y="177.60384"
     id="text5001"><tspan
       sodipodi:role="line"
       id="tspan4999"
       x="210.56931"
       y="177.60384"
       style="stroke-width:0.46465129;fill:#0e0d3f;fill-opacity:1;">STORE</tspan></text>
  <rect
     style="opacity:1;fill:#f48726;fill-opacity:1;stroke:none;stroke-width:0.06781217;stroke-miterlimit:4;stroke-dasharray:none;stroke-opacity:1"
     id="rect5096"
     width="346.48233"
     height="5.8529224"
     x="83.438599"
     y="121.99939"
     ry="1.6258117" />
  <g
     id="g5012"
     transform="translate(17,8)">
    <ellipse
       ry="19.321653"
       rx="19.04163"
       cy="98.797699"
       cx="81.267029"
       id="path5003"
       style="opacity:1;fill:#ec1d23;fill-opacity:1;stroke:none;stroke-width:0.07920274;stroke-miterlimit:4;stroke-dasharray:none;stroke-opacity:1" />
    <text
       id="text5007"
       y="106.09285"
       x="72.804222"
       style="font-style:normal;font-weight:normal;font-size:25.59004974px;line-height:1.25;font-family:sans-serif;letter-spacing:0px;word-spacing:0px;fill:#ffffff;fill-opacity:1;stroke:none;stroke-width:0.63975126"
       xml:space="preserve"><tspan
         style="stroke-width:0.63975126"
         y="106.09285"
         x="72.804222"
         id="tspan5005"
         sodipodi:role="line">$</tspan></text>
  </g>
  <rect
     ry="1.6258117"
     y="61.99939"
     x="83.438599"
     height="5.8529224"
     width="346.48233"
     id="rect5090"
     style="opacity:1;fill:#f48726;fill-opacity:1;stroke:none;stroke-width:0.06781217;stroke-miterlimit:4;stroke-dasharray:none;stroke-opacity:1" />
  <g
     id="g5028"
     transform="translate(1,7)">
    <ellipse
       style="opacity:1;fill:#ffffff;fill-opacity:1;stroke:none;stroke-width:0.10789693;stroke-miterlimit:4;stroke-dasharray:none;stroke-opacity:1"
       id="ellipse5014"
       cx="145.16557"
       cy="61.797695"
       rx="25.94018"
       ry="26.321653" />
    <text
       xml:space="preserve"
       style="font-style:normal;font-weight:normal;font-size:34.86101151px;line-height:1.25;font-family:sans-serif;letter-spacing:0px;word-spacing:0px;fill:#ea1c22;fill-opacity:1;stroke:none;stroke-width:0.87152535"
       x="133.6368"
       y="71.735786"
       id="text5018"><tspan
         sodipodi:role="line"
         id="tspan5016"
         x="133.6368"
         y="71.735786"
         style="fill:#ea1c22;fill-opacity:1;stroke-width:0.87152535">$</tspan></text>
  </g>
  <g
     id="g5050"
     transform="matrix(0.61778014,0,0,0.71121166,166.97952,46.454776)">
    <rect
       ry="10.798022"
       y="35.988979"
       x="222.03152"
       height="49.320698"
       width="103.59114"
       id="rect5030"
       style="opacity:1;fill:#005dab;fill-opacity:1;stroke:none;stroke-width:0.09085394;stroke-miterlimit:4;stroke-dasharray:none;stroke-opacity:1" />
    <path
       inkscape:connector-curvature="0"
       id="path5032"
       d="m 235.28978,83.895466 -3.88909,10.960156 27.22361,-10.25305 z"
       style="fill:#005dab;fill-opacity:1;stroke:none;stroke-width:1px;stroke-linecap:butt;stroke-linejoin:miter;stroke-opacity:1" />
    <rect
       ry="1.4142137"
       y="46.242031"
       x="231.93103"
       height="2.8284273"
       width="82.377937"
       id="rect5034"
       style="opacity:1;fill:#ffffff;fill-opacity:1;stroke:none;stroke-width:0.05656855;stroke-miterlimit:4;stroke-dasharray:none;stroke-opacity:1" />
    <rect
       style="opacity:1;fill:#ffffff;fill-opacity:1;stroke:none;stroke-width:0.05656855;stroke-miterlimit:4;stroke-dasharray:none;stroke-opacity:1"
       id="rect5036"
       width="82.377937"
       height="2.8284273"
       x="231.93103"
       y="54.242035"
       ry="1.4142137" />
    <rect
       ry="1.4142137"
       y="62.242035"
       x="231.93103"
       height="2.8284273"
       width="82.377937"
       id="rect5038"
       style="opacity:1;fill:#ffffff;fill-opacity:1;stroke:none;stroke-width:0.05656855;stroke-miterlimit:4;stroke-dasharray:none;stroke-opacity:1" />
    <rect
       style="opacity:1;fill:#ffffff;fill-opacity:1;stroke:none;stroke-width:0.05656855;stroke-miterlimit:4;stroke-dasharray:none;stroke-opacity:1"
       id="rect5040"
       width="82.377937"
       height="2.8284273"
       x="231.93103"
       y="70.242035"
       ry="1.4142137" />
  </g>
  <path
     style="opacity:1;fill:#ffffff;fill-opacity:1;stroke:none;stroke-width:0.01206741;stroke-miterlimit:4;stroke-dasharray:none;stroke-opacity:1"
     d="m 258.11704,105.97534 c -1.46296,-0.50557 -1.76413,-1.04376 -1.30782,-2.33708 0.0996,-0.28218 0.18102,-0.54811 0.18102,-0.59098 0,-0.0429 -0.40967,-0.44896 -0.91039,-0.90245 l -0.91037,-0.82453 -0.62822,0.27089 c -0.71561,0.30857 -1.19044,0.3312 -1.58094,0.0753 -0.32224,-0.21114 -1.15907,-1.89346 -1.15907,-2.33015 0,-0.54594 0.36492,-0.97749 1.09393,-1.29366 l 0.68699,-0.297942 -0.055,-1.126009 c -0.0302,-0.619309 -0.0714,-1.180319 -0.0915,-1.246691 -0.0201,-0.06638 -0.32077,-0.229277 -0.66815,-0.362023 -0.70828,-0.270634 -1.20764,-0.77507 -1.20764,-1.219886 0,-0.479478 0.71817,-2.201528 1.00065,-2.399376 0.33806,-0.236788 0.98449,-0.231037 1.70713,0.01523 l 0.57864,0.197162 0.49876,-0.589157 c 0.27431,-0.324034 0.65765,-0.736266 0.85186,-0.916062 l 0.35312,-0.326898 -0.33073,-0.821544 c -0.48227,-1.197981 -0.25168,-1.61846 1.23139,-2.245424 1.34028,-0.566602 1.84816,-0.373379 2.43054,0.924713 0.18797,0.418979 0.31327,0.563398 0.44496,0.512863 0.10082,-0.03867 0.64113,-0.07035 1.20069,-0.07035 h 1.01738 l 0.30504,-0.689773 c 0.56981,-1.28843 0.94159,-1.436306 2.34769,-0.933804 1.05536,0.377153 1.26839,0.53891 1.4552,1.104934 0.11705,0.354677 0.0974,0.528369 -0.13038,1.153089 l -0.26818,0.735523 0.34609,0.242027 c 0.19036,0.13312 0.60915,0.508793 0.93066,0.834826 l 0.58456,0.592793 0.7169,-0.321725 c 1.18739,-0.532871 1.67993,-0.243491 2.41136,1.416695 0.33602,0.762718 0.3455,0.828152 0.178,1.22905 -0.16884,0.404087 -0.57915,0.736894 -1.31116,1.06349 l -0.33532,0.149614 0.0336,1.255804 0.0336,1.255797 0.66371,0.222098 c 0.79758,0.266897 1.20675,0.686886 1.20675,1.238676 0,0.52047 -0.65641,2.12233 -0.98066,2.39318 -0.31414,0.2624 -0.85796,0.26906 -1.59043,0.0195 -0.30944,-0.10543 -0.60782,-0.17331 -0.66306,-0.15084 -0.0553,0.0225 -0.46351,0.42773 -0.90725,0.90055 l -0.8068,0.8597 0.31406,0.68601 c 0.34585,0.75543 0.33038,1.33705 -0.0444,1.66756 -0.11486,0.1013 -0.61217,0.38581 -1.10515,0.63225 -1.36544,0.68258 -1.9206,0.51301 -2.44243,-0.74601 -0.25831,-0.6232 -0.29341,-0.65637 -0.62451,-0.59015 -0.19296,0.0386 -0.7447,0.0702 -1.22609,0.0702 h -0.87526 l -0.27597,0.73793 c -0.19907,0.5323 -0.37969,0.80117 -0.64825,0.96493 -0.47058,0.28696 -0.65725,0.2772 -1.7193,-0.0898 z m 5.77137,-5.08361 c 1.08131,-0.53232 1.92184,-1.39163 2.48173,-2.53718 0.44091,-0.902108 0.45479,-0.970357 0.44705,-2.198093 -0.007,-1.157512 -0.0408,-1.338086 -0.38762,-2.088228 -1.24264,-2.687896 -4.48142,-3.847089 -7.07569,-2.532474 -0.74403,0.37703 -1.87988,1.495868 -2.24631,2.212675 -1.30342,2.54969 -0.35124,5.75865 2.07953,7.0083 0.94882,0.48778 1.43111,0.58698 2.69742,0.55482 1.08979,-0.0277 1.29442,-0.0706 2.00389,-0.41982 z"
     id="path5082"
     inkscape:connector-curvature="0" />
  <path
     inkscape:connector-curvature="0"
     id="path5084"
     d="m 227.77538,98.31501 c -2.80194,-0.968298 -3.37876,-1.999067 -2.50481,-4.476114 0.19076,-0.540431 0.3467,-1.04977 0.3467,-1.131868 0,-0.08209 -0.78462,-0.859886 -1.74363,-1.728434 l -1.74359,-1.579174 -1.20321,0.518818 c -1.37058,0.590995 -2.28,0.634332 -3.02791,0.144276 -0.61717,-0.404383 -2.21991,-3.626466 -2.21991,-4.46283 0,-1.045624 0.69891,-1.872163 2.09515,-2.477695 l 1.31577,-0.570642 -0.10534,-2.156598 c -0.0578,-1.186136 -0.13675,-2.260615 -0.17525,-2.387735 -0.0385,-0.127134 -0.61436,-0.439124 -1.27968,-0.693367 -1.35654,-0.518334 -2.31294,-1.484459 -2.31294,-2.336396 0,-0.918325 1.37548,-4.216495 1.9165,-4.595425 0.64748,-0.45351 1.88556,-0.442495 3.2696,0.02917 l 1.10824,0.377616 0.95526,-1.128388 c 0.52537,-0.620609 1.25957,-1.410139 1.63153,-1.754495 l 0.67631,-0.626094 -0.63343,-1.573469 c -0.92367,-2.294443 -0.48203,-3.099768 2.35843,-4.300566 2.56698,-1.085189 3.5397,-0.715117 4.65511,1.771064 0.36001,0.802453 0.59999,1.079052 0.85222,0.982265 0.19309,-0.07406 1.22792,-0.134739 2.29963,-0.134739 h 1.94854 l 0.58423,-1.321093 c 1.09133,-2.467676 1.80339,-2.750897 4.49643,-1.788476 2.02129,0.722346 2.4293,1.032152 2.78709,2.116234 0.22418,0.679298 0.18654,1.011963 -0.24971,2.208463 l -0.51364,1.408717 0.66285,0.463544 c 0.36459,0.254959 1.16668,0.97447 1.78246,1.598907 l 1.11958,1.135352 1.37305,-0.616187 c 2.27416,-1.020585 3.2175,-0.466348 4.61838,2.713337 0.64356,1.460801 0.66172,1.586124 0.34091,2.353948 -0.32337,0.77393 -1.10922,1.411342 -2.51121,2.036857 l -0.64222,0.28655 0.0644,2.405188 0.0643,2.405176 1.27118,0.425375 c 1.52757,0.511176 2.31124,1.315564 2.31124,2.372382 0,0.996829 -1.2572,4.064815 -1.87822,4.583565 -0.60166,0.502554 -1.64321,0.51531 -3.04608,0.03731 -0.59266,-0.201935 -1.16414,-0.331945 -1.26993,-0.288897 -0.10592,0.04311 -0.88775,0.8192 -1.73762,1.724783 l -1.54523,1.646542 0.6015,1.313879 c 0.6624,1.446843 0.63277,2.560803 -0.085,3.193807 -0.21999,0.19402 -1.17247,0.738928 -2.11665,1.210928 -2.61517,1.307329 -3.67845,0.982559 -4.67789,-1.428796 -0.49473,-1.193598 -0.56195,-1.257124 -1.19609,-1.130293 -0.36957,0.07393 -1.4263,0.134451 -2.34828,0.134451 h -1.67635 l -0.52855,1.41332 c -0.38127,1.019508 -0.72721,1.534457 -1.24157,1.848107 -0.90128,0.54959 -1.2588,0.53091 -3.2929,-0.17203 z m 11.05367,-9.736422 c 2.07098,-1.019534 3.68082,-2.665331 4.75315,-4.859351 0.84446,-1.727769 0.87104,-1.858484 0.85622,-4.209915 -0.0134,-2.216934 -0.0781,-2.56278 -0.7424,-3.999496 -2.37997,-5.148014 -8.58307,-7.368168 -13.55177,-4.850341 -1.42501,0.72211 -3.60045,2.864973 -4.30226,4.237844 -2.49639,4.883314 -0.67272,11.029306 3.98283,13.422693 1.81724,0.934231 2.74095,1.124226 5.16626,1.062635 2.08723,-0.05307 2.47915,-0.13514 3.83797,-0.804069 z"
     style="opacity:1;fill:#ffffff;fill-opacity:1;stroke:none;stroke-width:0.0231122;stroke-miterlimit:4;stroke-dasharray:none;stroke-opacity:1" />
  <path
     inkscape:connector-curvature="0"
     id="path5086"
     d="m 197.59656,112.20884 c -1.92645,-0.66574 -2.32304,-1.37444 -1.72216,-3.07751 0.13115,-0.37158 0.23837,-0.72177 0.23837,-0.77822 0,-0.0565 -0.53946,-0.5912 -1.19882,-1.18836 l -1.19879,-1.08576 -0.82726,0.35671 c -0.94233,0.40634 -1.56759,0.43613 -2.08181,0.0992 -0.42433,-0.27803 -1.52629,-2.49334 -1.52629,-3.06839 0,-0.7189 0.48054,-1.28717 1.44051,-1.70351 l 0.90464,-0.39234 -0.0724,-1.48275 c -0.0398,-0.81552 -0.094,-1.55427 -0.12048,-1.64167 -0.0265,-0.0874 -0.4224,-0.301919 -0.87984,-0.476719 -0.93268,-0.35637 -1.59024,-1.02063 -1.59024,-1.60637 0,-0.63138 0.9457,-2.89901 1.31767,-3.15955 0.44517,-0.31181 1.2964,-0.30422 2.24799,0.02 l 0.76196,0.25962 0.65678,-0.7758 c 0.36121,-0.4267 0.866,-0.96954 1.12174,-1.20629 l 0.465,-0.43047 -0.43551,-1.08183 c -0.63507,-1.57752 -0.33142,-2.13122 1.62152,-2.95681 1.7649,-0.74611 2.43369,-0.49168 3.20058,1.21767 0.24752,0.55173 0.41252,0.7419 0.58593,0.67536 0.13276,-0.051 0.84425,-0.0926 1.58109,-0.0926 h 1.33971 l 0.40168,-0.90832 c 0.75034,-1.69663 1.23991,-1.89135 3.0915,-1.22964 1.38971,0.49664 1.67024,0.70964 1.91623,1.45499 0.15414,0.46705 0.12826,0.69577 -0.17169,1.51841 l -0.35314,0.96855 0.45574,0.31871 c 0.25067,0.17529 0.80214,0.66998 1.22551,1.09932 l 0.76976,0.7806 0.94403,-0.42365 c 1.56358,-0.70171 2.21216,-0.32065 3.17532,1.86553 0.44248,1.00436 0.45497,1.09052 0.2344,1.61843 -0.22233,0.53212 -0.76264,0.97035 -1.72656,1.40043 l -0.44156,0.19701 0.0443,1.653669 0.0442,1.65366 0.87399,0.29246 c 1.05027,0.35146 1.58907,0.90451 1.58907,1.63112 0,0.68536 -0.86437,2.79472 -1.29135,3.15138 -0.41367,0.34554 -1.12978,0.35431 -2.09431,0.0257 -0.40748,-0.13883 -0.80039,-0.22822 -0.87313,-0.19863 -0.0728,0.0296 -0.61036,0.56324 -1.19469,1.18586 l -1.06241,1.13207 0.41356,0.90335 c 0.45542,0.99477 0.43505,1.76066 -0.0585,2.19588 -0.15125,0.13339 -0.80612,0.50804 -1.45529,0.83256 -1.79804,0.89883 -2.52909,0.67554 -3.21625,-0.98236 -0.34014,-0.82064 -0.38636,-0.86432 -0.82236,-0.77712 -0.2541,0.0508 -0.98064,0.0924 -1.61454,0.0924 h -1.15256 l -0.36341,0.97172 c -0.26213,0.70094 -0.49998,1.055 -0.85362,1.27064 -0.61967,0.37787 -0.86548,0.36502 -2.26401,-0.11825 z m 7.59985,-6.6942 c 1.4239,-0.70097 2.53073,-1.83252 3.268,-3.34101 0.5806,-1.18791 0.59888,-1.27779 0.58868,-2.89449 -0.009,-1.524239 -0.0537,-1.762019 -0.51042,-2.749819 -1.63633,-3.53948 -5.90123,-5.06592 -9.31741,-3.33482 -0.97976,0.4965 -2.47547,1.96979 -2.95799,2.9137 -1.71637,3.357479 -0.46252,7.583109 2.73837,9.228669 1.24942,0.64232 1.88451,0.77295 3.55201,0.7306 1.43506,-0.0365 1.70452,-0.093 2.63876,-0.55283 z"
     style="opacity:1;fill:#ffffff;fill-opacity:1;stroke:none;stroke-width:0.0158906;stroke-miterlimit:4;stroke-dasharray:none;stroke-opacity:1" />
  <path
     style="opacity:1;fill:#00a3aa;fill-opacity:1;stroke:none;stroke-width:0.0125;stroke-miterlimit:4;stroke-dasharray:none;stroke-opacity:1"
     d=""
     id="path5195"
     inkscape:connector-curvature="0" />
  <path
     style="fill:#4a1220;fill-opacity:1;stroke:none;stroke-width:0.93855989px;stroke-linecap:butt;stroke-linejoin:miter;stroke-opacity:1"
     d="m 60.652897,195.59767 c 3.310985,-27.93836 37.88481,-21.98353 39.821453,0.91671 l -6.130532,-0.15585 C 91.935642,181.51456 72.052833,172.8526 66.801844,195.52894 Z"
     id="path5244"
     inkscape:connector-curvature="0"
     sodipodi:nodetypes="ccccc" />
  <path
     inkscape:connector-curvature="0"
     id="path5246"
     d="m 44.923412,194.84128 -0.348947,8.02708 62.287475,0.10035 7.06622,-7.8264 z"
     style="fill:#b71220;fill-opacity:1;stroke:none;stroke-width:1.05849779px;stroke-linecap:butt;stroke-linejoin:miter;stroke-opacity:1" />
  <path
     sodipodi:nodetypes="ccccc"
     inkscape:connector-curvature="0"
     id="path5248"
     d="m 51.501938,201.4911 c 3.310986,-27.10261 37.88481,-21.32591 39.821453,0.88927 l -6.130532,-0.15118 C 82.784683,187.82926 62.901874,179.42643 57.650885,201.42442 Z"
     style="fill:#4a1220;fill-opacity:1;stroke:none;stroke-width:0.92441505px;stroke-linecap:butt;stroke-linejoin:miter;stroke-opacity:1" />
  <rect
     y="201.5345"
     x="37.682091"
     height="72.110283"
     width="68.69342"
     id="rect5250"
     style="opacity:1;fill:#ec1d23;fill-opacity:1;stroke:none;stroke-width:0.09585655;stroke-miterlimit:4;stroke-dasharray:none;stroke-opacity:1" />
  <path
     inkscape:connector-curvature="0"
     id="path5252"
     d="m 105.78891,201.56525 8.27324,-6.93604 -0.17858,71.4948 -8.09466,7.87271 z"
     style="fill:#f27752;fill-opacity:1;stroke:none;stroke-width:0.9758805px;stroke-linecap:butt;stroke-linejoin:miter;stroke-opacity:1" />
  <path
     inkscape:connector-curvature="0"
     id="path5254"
     d="m 37.682094,201.5345 7.616301,-6.63834 v 7.02883 z"
     style="fill:#f37652;fill-opacity:1;stroke:none;stroke-width:1.20082748px;stroke-linecap:butt;stroke-linejoin:miter;stroke-opacity:1" />
  <rect
     ry="1.6591551"
     y="261.99091"
     x="43.879887"
     height="6.9684515"
     width="55.08395"
     id="rect5256"
     style="opacity:1;fill:#fdfbfb;fill-opacity:1;stroke:none;stroke-width:0.09385599;stroke-miterlimit:4;stroke-dasharray:none;stroke-opacity:1" />
  <path
     sodipodi:nodetypes="ccccc"
     inkscape:connector-curvature="0"
     id="path5260"
     d="m 394.6529,195.59767 c 3.31098,-27.93836 37.88481,-21.98353 39.82145,0.91671 l -6.13053,-0.15585 c -2.40818,-14.84397 -22.29099,-23.50593 -27.54198,-0.82959 z"
     style="fill:#003233;fill-opacity:1;stroke:none;stroke-width:0.93855989px;stroke-linecap:butt;stroke-linejoin:miter;stroke-opacity:1" />
  <path
     style="fill:#007678;fill-opacity:1;stroke:none;stroke-width:1.05849779px;stroke-linecap:butt;stroke-linejoin:miter;stroke-opacity:1"
     d="m 378.92341,194.84128 -0.34895,8.02708 62.28748,0.10035 7.06622,-7.8264 z"
     id="path5262"
     inkscape:connector-curvature="0" />
  <path
     style="fill:#003233;fill-opacity:1;stroke:none;stroke-width:0.92441505px;stroke-linecap:butt;stroke-linejoin:miter;stroke-opacity:1"
     d="m 385.50194,201.4911 c 3.31098,-27.10261 37.88481,-21.32591 39.82145,0.88927 l -6.13053,-0.15118 c -2.40818,-14.39993 -22.29099,-22.80276 -27.54198,-0.80477 z"
     id="path5264"
     inkscape:connector-curvature="0"
     sodipodi:nodetypes="ccccc" />
  <rect
     style="opacity:1;fill:#00a3aa;fill-opacity:1;stroke:none;stroke-width:0.09585655;stroke-miterlimit:4;stroke-dasharray:none;stroke-opacity:1"
     id="rect5266"
     width="68.69342"
     height="72.110283"
     x="371.6821"
     y="201.5345" />
  <path
     style="fill:#2fbec2;fill-opacity:1;stroke:none;stroke-width:0.9758805px;stroke-linecap:butt;stroke-linejoin:miter;stroke-opacity:1"
     d="m 439.78891,201.56525 8.27324,-6.93604 -0.17858,71.4948 -8.09466,7.87271 z"
     id="path5268"
     inkscape:connector-curvature="0" />
  <path
     style="fill:#30bec1;fill-opacity:1;stroke:none;stroke-width:1.20082748px;stroke-linecap:butt;stroke-linejoin:miter;stroke-opacity:1"
     d="m 371.68209,201.5345 7.6163,-6.63834 v 7.02883 z"
     id="path5270"
     inkscape:connector-curvature="0" />
  <rect
     style="opacity:1;fill:#ffffff;fill-opacity:1;stroke:none;stroke-width:0.09385599;stroke-miterlimit:4;stroke-dasharray:none;stroke-opacity:1"
     id="rect5272"
     width="55.08395"
     height="6.9684515"
     x="377.87988"
     y="261.99091"
     ry="1.6591551" />
  <rect
     style="opacity:1;fill:#1c2765;fill-opacity:1;stroke:none;stroke-width:0.05948119;stroke-miterlimit:4;stroke-dasharray:none;stroke-opacity:1"
     id="rect5290"
     width="35.093899"
     height="9.5169897"
     x="-52.443336"
     y="-536.07306"
     ry="0.98688805"
     transform="rotate(136.92837)" />
  <rect
     ry="0.98688805"
     y="-536.07306"
     x="-56.607018"
     height="9.5169897"
     width="4.7584949"
     id="rect5292"
     style="opacity:1;fill:#0b93ce;fill-opacity:1;stroke:none;stroke-width:0.02190275;stroke-miterlimit:4;stroke-dasharray:none;stroke-opacity:1"
     transform="rotate(136.92837)" />
  <rect
     style="opacity:1;fill:#1c2765;fill-opacity:1;stroke:none;stroke-width:0.02948748;stroke-miterlimit:4;stroke-dasharray:none;stroke-opacity:1"
     id="rect5294"
     width="8.6247721"
     height="9.5169897"
     x="-65.231789"
     y="-536.07306"
     ry="0.98688805"
     transform="rotate(136.92837)" />
  <ellipse
     style="opacity:1;fill:#0b93ce;fill-opacity:1;stroke:none;stroke-width:0.06619699;stroke-miterlimit:4;stroke-dasharray:none;stroke-opacity:1"
     id="path5296"
     cx="-91.458282"
     cy="-531.47632"
     rx="27.042709"
     ry="26.358084"
     transform="rotate(136.92837)" />
  <ellipse
     ry="22.463127"
     rx="23.046587"
     cy="-531.49951"
     cx="-91.340546"
     id="ellipse5298"
     style="opacity:1;fill:#ffffff;fill-opacity:1;stroke:none;stroke-width:0.05641502;stroke-miterlimit:4;stroke-dasharray:none;stroke-opacity:1"
     transform="rotate(136.92837)" />
  <rect
     style="opacity:1;fill:#205aa0;fill-opacity:1;stroke:none;stroke-width:0.08431624;stroke-miterlimit:4;stroke-dasharray:none;stroke-opacity:1"
     id="rect5325"
     width="35.5"
     height="57.114132"
     x="33.560661"
     y="296.83633"
     ry="3.5826101" />
  <rect
     ry="2.8913052"
     y="300.28122"
     x="36.492641"
     height="46.093311"
     width="29.54505"
     id="rect5327"
     style="opacity:1;fill:#ec1d23;fill-opacity:1;stroke:none;stroke-width:0.06910136;stroke-miterlimit:4;stroke-dasharray:none;stroke-opacity:1" />
  <rect
     ry="1.7709273"
     y="95.637894"
     x="381.7402"
     height="24.5"
     width="41.650002"
     id="rect5361"
     style="opacity:1;fill:#2ebdc1;fill-opacity:1;stroke:none;stroke-width:0.06125;stroke-miterlimit:4;stroke-dasharray:none;stroke-opacity:1" />
  <rect
     y="100.23164"
     x="381.7402"
     height="5.359375"
     width="41.635181"
     id="rect5363"
     style="opacity:1;fill:#222962;fill-opacity:1;stroke:none;stroke-width:0.04618167;stroke-miterlimit:4;stroke-dasharray:none;stroke-opacity:1" />
  <rect
     y="109.28746"
     x="385.84201"
     height="4.8320661"
     width="9.3783255"
     id="rect5365"
     style="opacity:1;fill:#ffffff;fill-opacity:1;stroke:none;stroke-width:0.07923155;stroke-miterlimit:4;stroke-dasharray:none;stroke-opacity:1" />
  <rect
     y="111.85231"
     x="409.92093"
     height="1.1953472"
     width="11.866607"
     id="rect5367"
     style="opacity:1;fill:#ed1a1e;fill-opacity:1;stroke:none;stroke-width:0.04432812;stroke-miterlimit:4;stroke-dasharray:none;stroke-opacity:1" />
  <rect
     style="opacity:1;fill:#222962;fill-opacity:1;stroke:none;stroke-width:0.04432812;stroke-miterlimit:4;stroke-dasharray:none;stroke-opacity:1"
     id="rect5369"
     width="11.866607"
     height="1.1953472"
     x="409.89386"
     y="110.13316" />
  <rect
     style="opacity:1;fill:#ffffff;fill-opacity:1;stroke:none;stroke-width:0.06125;stroke-miterlimit:4;stroke-dasharray:none;stroke-opacity:1"
     id="rect5342"
     width="41.650002"
     height="24.5"
     x="401.7402"
     y="111.63789"
     ry="1.7709273" />
  <rect
     style="opacity:1;fill:#ec181f;fill-opacity:1;stroke:none;stroke-width:0.04618167;stroke-miterlimit:4;stroke-dasharray:none;stroke-opacity:1"
     id="rect5344"
     width="41.635181"
     height="5.359375"
     x="401.7402"
     y="116.23164" />
  <rect
     style="opacity:1;fill:#ed1a1e;fill-opacity:1;stroke:none;stroke-width:0.07923155;stroke-miterlimit:4;stroke-dasharray:none;stroke-opacity:1"
     id="rect5346"
     width="9.3783255"
     height="4.8320661"
     x="405.84201"
     y="125.28746" />
  <rect
     style="opacity:1;fill:#ed1a1e;fill-opacity:1;stroke:none;stroke-width:0.04432812;stroke-miterlimit:4;stroke-dasharray:none;stroke-opacity:1"
     id="rect5350"
     width="11.866607"
     height="1.1953472"
     x="429.92093"
     y="127.85231" />
  <rect
     y="126.13316"
     x="429.89386"
     height="1.1953472"
     width="11.866607"
     id="rect5352"
     style="opacity:1;fill:#ed1a1e;fill-opacity:1;stroke:none;stroke-width:0.04432812;stroke-miterlimit:4;stroke-dasharray:none;stroke-opacity:1" />
</svg>
