<?xml version="1.0" encoding="UTF-8" standalone="no"?>
<!-- Created with Inkscape (http://www.inkscape.org/) -->

<svg
   xmlns:dc="http://purl.org/dc/elements/1.1/"
   xmlns:cc="http://creativecommons.org/ns#"
   xmlns:rdf="http://www.w3.org/1999/02/22-rdf-syntax-ns#"
   xmlns:svg="http://www.w3.org/2000/svg"
   xmlns="http://www.w3.org/2000/svg"
   xmlns:xlink="http://www.w3.org/1999/xlink"
   xmlns:sodipodi="http://sodipodi.sourceforge.net/DTD/sodipodi-0.dtd"
   xmlns:inkscape="http://www.inkscape.org/namespaces/inkscape"
   version="1.1"
   id="svg2"
   width="654"
   height="436"
   viewBox="0 0 654 436"
   sodipodi:docname="isometric_sales.svg"
   inkscape:version="0.92.4 (5da689c313, 2019-01-14)"
   inkscape:export-filename="C:\xampp\htdocs\Axel\Sistema de Gerenciamento NE\img\isometric_sales.png"
   inkscape:export-xdpi="96"
   inkscape:export-ydpi="96">
  <metadata
     id="metadata8">
    <rdf:RDF>
      <cc:Work
         rdf:about="">
        <dc:format>image/svg+xml</dc:format>
        <dc:type
           rdf:resource="http://purl.org/dc/dcmitype/StillImage" />
        <dc:title />
      </cc:Work>
    </rdf:RDF>
  </metadata>
  <defs
     id="defs6">
    <linearGradient
       inkscape:collect="always"
       id="linearGradient1317">
      <stop
         style="stop-color:#8ba8be;stop-opacity:1"
         offset="0"
         id="stop1313" />
      <stop
         style="stop-color:#b5cbd9;stop-opacity:1"
         offset="1"
         id="stop1315" />
    </linearGradient>
    <inkscape:perspective
       sodipodi:type="inkscape:persp3d"
       inkscape:vp_x="0 : 218 : 1"
       inkscape:vp_y="0 : 1000 : 0"
       inkscape:vp_z="654 : 218 : 1"
       inkscape:persp3d-origin="327 : 145.33333 : 1"
       id="perspective865" />
    <clipPath
       clipPathUnits="userSpaceOnUse"
       id="clipPath1116">
      <circle
         style="opacity:1;fill:#ff8b14;fill-opacity:1;stroke:none;stroke-opacity:1"
         id="circle1118"
         cx="312.52118"
         cy="811.95764"
         r="7.3898306" />
    </clipPath>
    <linearGradient
       inkscape:collect="always"
       xlink:href="#linearGradient1317"
       id="linearGradient1319"
       x1="133.57426"
       y1="1036.2677"
       x2="200.1981"
       y2="984.34033"
       gradientUnits="userSpaceOnUse" />
  </defs>
  <sodipodi:namedview
     pagecolor="#ffffff"
     bordercolor="#666666"
     borderopacity="1"
     objecttolerance="10"
     gridtolerance="10"
     guidetolerance="10"
     inkscape:pageopacity="0"
     inkscape:pageshadow="2"
     inkscape:window-width="1366"
     inkscape:window-height="745"
     id="namedview4"
     showgrid="false"
     inkscape:zoom="1.0825688"
     inkscape:cx="314.59599"
     inkscape:cy="193.22133"
     inkscape:window-x="-8"
     inkscape:window-y="-8"
     inkscape:window-maximized="1"
     inkscape:current-layer="svg2"
     showguides="false" />
  <rect
     style="opacity:1;fill:#97e280;fill-opacity:1;stroke:none;stroke-width:4.85330105;stroke-miterlimit:4;stroke-dasharray:none;stroke-opacity:1"
     id="rect1625"
     width="662.31366"
     height="482.18643"
     x="-1.8474574"
     y="-16.627121"
     ry="1.84746"
     inkscape:export-xdpi="96"
     inkscape:export-ydpi="96" />
  <rect
     style="opacity:1;fill:#ffffff;fill-opacity:1;stroke:none;stroke-width:0.20006564;stroke-miterlimit:4;stroke-dasharray:none;stroke-opacity:1"
     id="rect5342"
     width="132.17543"
     height="82.368889"
     x="362.94531"
     y="78.849724"
     ry="5.9538498" />
  <rect
     style="opacity:1;fill:#ec181f;fill-opacity:1;stroke:none;stroke-width:0.15084679;stroke-miterlimit:4;stroke-dasharray:none;stroke-opacity:1"
     id="rect5344"
     width="132.12839"
     height="18.018196"
     x="362.94531"
     y="94.293892" />
  <rect
     style="opacity:1;fill:#ed1a1e;fill-opacity:1;stroke:none;stroke-width:0.25880018;stroke-miterlimit:4;stroke-dasharray:none;stroke-opacity:1"
     id="rect5346"
     width="29.761923"
     height="16.245384"
     x="375.96231"
     y="124.73951" />
  <rect
     style="opacity:1;fill:#ed1a1e;fill-opacity:1;stroke:none;stroke-width:0.14479239;stroke-miterlimit:4;stroke-dasharray:none;stroke-opacity:1"
     id="rect5350"
     width="37.658432"
     height="4.0187521"
     x="452.37625"
     y="133.36252" />
  <rect
     y="127.58276"
     x="452.29034"
     height="4.0187521"
     width="37.658432"
     id="rect5352"
     style="opacity:1;fill:#ed1a1e;fill-opacity:1;stroke:none;stroke-width:0.14479239;stroke-miterlimit:4;stroke-dasharray:none;stroke-opacity:1" />
  <path
     style="opacity:1;fill:#ffffff;fill-opacity:0;stroke:none;stroke-width:0.32658747;stroke-opacity:1"
     d="M -152.43297,631.93923 V 476.32031 H 84.179645 320.79226 V 631.93923 787.55816 H 84.179645 -152.43297 Z"
     id="path975"
     inkscape:connector-curvature="0" />
  <g
     id="g1166"
     transform="translate(19.034341,-673.75283)">
    <rect
       ry="7.2871966"
       y="795.79236"
       x="284.0466"
       height="79.440681"
       width="132.9281"
       id="rect1090"
       style="opacity:1;fill:#232323;fill-opacity:1;stroke:none;stroke-width:0.97315234;stroke-opacity:1" />
    <g
       transform="matrix(1.1118331,0,0,1.1118331,-29.005455,-89.970859)"
       id="g1144">
      <circle
         style="opacity:1;fill:#fefe05;fill-opacity:1;stroke:none;stroke-opacity:1"
         id="path1092"
         cx="302.52118"
         cy="811.95764"
         r="7.3898306" />
      <circle
         r="7.3898306"
         cy="811.95764"
         cx="312.52118"
         id="circle1094"
         style="opacity:1;fill:#ff8b14;fill-opacity:1;stroke:none;stroke-opacity:1" />
      <circle
         r="7.3898306"
         cy="811.95764"
         cx="302.52118"
         id="circle1104"
         style="opacity:1;fill:#fe4b03;fill-opacity:1;stroke:none;stroke-opacity:1"
         clip-path="url(#clipPath1116)"
         transform="translate(-0.03494791,-0.05774424)" />
    </g>
    <rect
       ry="3.7082319"
       y="804.56781"
       x="384.88983"
       height="13.773457"
       width="19.777269"
       id="rect1146"
       style="opacity:1;fill:#e2b801;fill-opacity:1;stroke:none;stroke-width:0.0764652;stroke-miterlimit:4;stroke-dasharray:none;stroke-opacity:1" />
    <rect
       ry="1.3855932"
       y="839.04663"
       x="295.44067"
       height="2.7711864"
       width="84.059326"
       id="rect1148"
       style="opacity:1;fill:#5d5d5d;fill-opacity:1;stroke:none;stroke-width:0.1;stroke-miterlimit:4;stroke-dasharray:none;stroke-opacity:1" />
    <rect
       style="opacity:1;fill:#5d5d5d;fill-opacity:1;stroke:none;stroke-width:0.10843543;stroke-miterlimit:4;stroke-dasharray:none;stroke-opacity:1"
       id="rect1150"
       width="98.838989"
       height="2.7711864"
       x="295.44067"
       y="847.04663"
       ry="1.3855932" />
    <rect
       ry="1.3855932"
       y="855.04663"
       x="295.44067"
       height="2.7711864"
       width="57.733055"
       id="rect1152"
       style="opacity:1;fill:#5d5d5d;fill-opacity:1;stroke:none;stroke-width:0.08287419;stroke-miterlimit:4;stroke-dasharray:none;stroke-opacity:1" />
    <rect
       style="opacity:1;fill:#5d5d5d;fill-opacity:1;stroke:none;stroke-width:0.04916891;stroke-miterlimit:4;stroke-dasharray:none;stroke-opacity:1"
       id="rect1154"
       width="20.322039"
       height="2.7711864"
       x="363.44067"
       y="855.04663"
       ry="1.3855932" />
  </g>
  <path
     style="opacity:1;fill:#ffffff;fill-opacity:1;stroke:none;stroke-width:0.16329373;stroke-miterlimit:4;stroke-dasharray:none;stroke-opacity:1"
     d=""
     id="path1238"
     inkscape:connector-curvature="0" />
  <path
     style="opacity:1;fill:#ffffff;fill-opacity:1;stroke:none;stroke-width:0.16329373;stroke-miterlimit:4;stroke-dasharray:none;stroke-opacity:1"
     d=""
     id="path1240"
     inkscape:connector-curvature="0" />
  <g
     id="g1623"
     transform="translate(-19.594853,24.145512)">
    <ellipse
       style="opacity:1;fill:#a83b01;fill-opacity:1;stroke:none;stroke-width:0.10598676;stroke-miterlimit:4;stroke-dasharray:none;stroke-opacity:1"
       id="ellipse5014"
       cx="246.55269"
       cy="91.549812"
       rx="25.94018"
       ry="25.397924" />
    <text
       transform="scale(1.0180227,0.98229635)"
       xml:space="preserve"
       style="font-style:normal;font-weight:normal;font-size:34.24384308px;line-height:1.25;font-family:sans-serif;letter-spacing:0px;word-spacing:0px;fill:#ffffff;fill-opacity:1;stroke:none;stroke-width:0.85609615"
       x="230.86313"
       y="102.96194"
       id="text5018"><tspan
         sodipodi:role="line"
         id="tspan5016"
         x="230.86313"
         y="102.96194"
         style="fill:#ffffff;fill-opacity:1;stroke-width:0.85609615">$</tspan></text>
    <ellipse
       ry="18.397924"
       rx="19.04163"
       cy="133.54982"
       cx="270.65414"
       id="path5003"
       style="opacity:1;fill:#ff8b14;fill-opacity:1;stroke:none;stroke-width:0.0772863;stroke-miterlimit:4;stroke-dasharray:none;stroke-opacity:1" />
    <text
       transform="scale(1.0247967,0.97580328)"
       id="text5007"
       y="143.98004"
       x="255.84717"
       style="font-style:normal;font-weight:normal;font-size:24.97085381px;line-height:1.25;font-family:sans-serif;letter-spacing:0px;word-spacing:0px;fill:#ffffff;fill-opacity:1;stroke:none;stroke-width:0.62427139"
       xml:space="preserve"><tspan
         style="stroke-width:0.62427139"
         y="143.98004"
         x="255.84717"
         id="tspan5005"
         sodipodi:role="line">$</tspan></text>
  </g>
  <g
     id="g1500"
     transform="translate(71.415301,-2.5115822)">
    <g
       transform="matrix(0.65081026,0,0,0.65081026,256.70783,-362.44679)"
       id="g1397">
      <path
         style="fill:#2c3846;fill-opacity:1;stroke:none;stroke-width:0.9970063px;stroke-linecap:butt;stroke-linejoin:miter;stroke-opacity:1"
         d="m 276.55844,1168.2875 c 3.00138,13.0181 1.95393,24.3086 1.88107,35.8703 l 2.28693,-2.0003 99.81473,-60.2402 c 2.54433,-3.2193 3.0771,-4.3483 3.48267,-7.8749 l -0.57388,-23.2087 c 0.24753,-2.3104 -4.43161,-8.773 -7.7018,-7.896 z"
         id="path1230"
         inkscape:connector-curvature="0"
         sodipodi:nodetypes="cccccccc" />
      <path
         style="fill:#3c4c5b;fill-opacity:1;stroke:none;stroke-width:1px;stroke-linecap:butt;stroke-linejoin:miter;stroke-opacity:1"
         d="m 57.032233,993.54336 98.342447,-56.96147 8.16469,-0.32659 205.42351,156.1088 c 10.42598,12.1059 12.08932,12.4325 11.43055,13.88 l -103.6717,63.0232 c -2.56251,-7.5679 -8.21569,-13.5268 -12.26684,-18.1175 z"
         id="path1228"
         inkscape:connector-curvature="0"
         sodipodi:nodetypes="cccccccc" />
      <g
         id="g1369">
        <path
           style="opacity:1;fill:#202c38;fill-opacity:1;stroke:none;stroke-width:0.04637382;stroke-miterlimit:4;stroke-dasharray:none;stroke-opacity:1"
           d="m 271.48453,1208.2565 c 0.002,-0.064 1.693,-1.5883 2.19922,-3.2462 0.79311,-2.5975 0.92039,-4.361 0.92043,-12.7528 5e-5,-13.2008 -0.8256,-17.8075 -4.48539,-25.0263 -3.51514,-6.9334 -7.38275,-11.6437 -13.12962,-15.9903 -1.91292,-1.4468 -5.35618,-4.0681 -7.65168,-5.8249 -2.2955,-1.7569 -8.45163,-6.4339 -13.68027,-10.3933 -5.22866,-3.9595 -11.90648,-9.0368 -14.83964,-11.283 -2.93314,-2.2462 -9.81964,-7.4828 -15.30335,-11.637 -5.48371,-4.1541 -12.68324,-9.6317 -15.99897,-12.1724 -3.31573,-2.5407 -6.89949,-5.2398 -7.96391,-5.9979 -2.749,-1.9583 -14.71319,-11.0473 -14.99113,-11.3886 -0.12753,-0.1566 -4.50985,-3.5102 -9.7385,-7.4527 -5.22866,-3.9423 -11.95509,-9.0343 -14.94763,-11.3153 -17.67223,-13.4708 -23.97571,-18.2588 -28.18003,-21.4049 -1.91293,-1.4315 -3.58238,-2.7342 -3.70991,-2.8951 -0.12752,-0.1607 -2.00566,-1.5996 -4.17364,-3.1974 -5.52413,-4.0713 -6.135582,-4.533 -10.864457,-8.2039 -2.313869,-1.7962 -5.146105,-3.9155 -6.293857,-4.7095 -1.147752,-0.794 -2.504186,-1.8362 -3.014298,-2.316 -0.510112,-0.4799 -2.283911,-1.855 -3.941775,-3.0561 -1.657864,-1.2009 -5.205462,-3.8634 -7.88355,-5.9165 -6.719523,-2.8287 -14.176683,-14.85538 -21.56058,-13.36989 -0.815305,-0.59621 -1.205681,-2.33959 0.710651,-3.54932 1.541303,-0.97299 2.52069,-1.67325 4.091712,-1.61382 1.145887,0.0434 2.324457,0.68638 2.575366,0.93729 0.25091,0.25092 0.779657,0.45839 1.174994,0.46107 0.680102,0.005 3.408869,1.8725 8.577998,5.87177 1.261889,0.9762 5.122511,3.9075 8.579157,6.5138 3.456647,2.6063 6.493495,4.9105 6.74855,5.1203 1.077234,0.8863 12.606148,9.6795 13.523916,10.3149 0.988354,0.6841 12.793333,9.6515 23.480753,17.8366 7.55646,5.7871 16.30921,12.3975 17.52119,13.2325 0.55532,0.3826 1.45246,1.055 1.99367,1.4943 3.4106,2.7679 5.81388,4.6137 14.65967,11.2585 5.43259,4.0809 10.10807,7.6341 10.38994,7.896 0.28189,0.2619 2.49501,1.9674 4.91804,3.79 2.42303,1.8224 7.32706,5.5109 10.89785,8.1966 3.57078,2.6855 6.70103,5.061 6.9561,5.2789 0.50479,0.4311 10.34938,7.9516 17.39016,13.285 2.42303,1.8354 6.5601,4.9959 9.19349,7.0234 2.63339,2.0275 6.38967,4.8942 8.34729,6.3703 1.95761,1.4763 3.8731,2.937 4.25663,3.2462 0.38353,0.3092 2.88772,2.218 5.56487,4.2418 2.67714,2.0237 6.64132,5.0358 8.80929,6.6935 2.16798,1.6577 5.19387,3.9588 6.72421,5.1135 1.53034,1.1547 2.88677,2.2203 3.01429,2.3677 0.12754,0.1476 3.09428,2.4238 6.59276,5.0583 7.83191,5.8976 10.9369,8.9366 14.02105,13.7227 2.62719,4.0771 3.4424,5.6902 4.80413,9.5066 2.06385,5.7842 2.1745,6.7752 2.1745,19.477 0,10.6187 -0.65161,14.5279 -1.34967,16.2309 -0.44428,1.084 -0.14629,0 0,0 0.14629,0 -0.83417,0.939 -2.1788,2.0869 -1.98979,1.6983 -4.95074,2.7231 -4.93129,2.0868 z"
           id="path1226"
           inkscape:connector-curvature="0"
           sodipodi:nodetypes="ccsccccccsccccccccssccccccccsccsccscccccsccccccccsscsccc" />
        <path
           sodipodi:nodetypes="cccccccc"
           inkscape:connector-curvature="0"
           id="path1204"
           d="m 59.928798,1101.0605 c -7.874236,-5.9441 -18.481696,-10.2017 -20.085128,-27.4333 l 0.489881,-65.8074 c -0.121505,-0.6208 1.651481,-15.22424 17.635722,-2.9393 l 196.279067,149.5771 c 16.56483,11.7524 16.61161,20.3953 17.62411,39.1475 -0.12886,5.737 -0.19125,25.4098 -18.93046,19.1483 z"
           style="fill:#283442;fill-opacity:1;stroke:none;stroke-width:1px;stroke-linecap:butt;stroke-linejoin:miter;stroke-opacity:1" />
        <path
           sodipodi:nodetypes="ccsccccccsccccccccssccsccccccsccsccscccccsccccccccsscscc"
           inkscape:connector-curvature="0"
           id="path1206"
           d="m 266.72625,1211.3889 c 0.002,-0.064 1.68716,-1.5819 2.19162,-3.2331 0.79038,-2.587 0.91722,-4.3434 0.91726,-12.7013 5e-5,-13.1474 -0.82275,-17.7355 -4.46991,-24.9251 -3.50302,-6.9054 -7.3573,-11.5967 -13.08434,-15.9257 -1.90633,-1.441 -5.33771,-4.0517 -7.62529,-5.8014 -2.28759,-1.7498 -8.42248,-6.4079 -13.63309,-10.3513 -5.21063,-3.9435 -11.86542,-9.0003 -14.78845,-11.2374 -2.92303,-2.2371 -9.78579,-7.4526 -15.25058,-11.59 -5.46479,-4.1373 -12.63949,-9.5928 -15.94378,-12.1232 -3.3043,-2.5304 -6.8757,-5.2186 -7.93645,-5.9737 -2.73952,-1.9503 -14.66244,-11.0026 -14.93943,-11.3425 -0.12708,-0.156 -4.49429,-3.4961 -9.70491,-7.4226 -5.21062,-3.9264 -11.91385,-8.9978 -14.89607,-11.2696 -17.61127,-13.4164 -23.89301,-18.185 -28.08284,-21.3184 -1.90632,-1.4257 -3.57002,-2.7232 -3.69711,-2.8834 -0.12708,-0.1601 -1.99874,-1.5931 -4.15925,-3.1845 -5.505073,-4.0548 -6.114416,-4.5147 -10.826982,-8.1707 -2.305889,-1.789 -5.128356,-3.8997 -6.27215,-4.6905 -1.143793,-0.7908 -2.495548,-1.8288 -3.003901,-2.3067 -0.508353,-0.4779 -2.276034,-1.8475 -3.928181,-3.0437 -1.652146,-1.1961 -5.187507,-3.8478 -7.856358,-5.8926 -15.897622,-12.1804 -18.92825,-14.2991 -20.453898,-14.2991 -0.345306,0 -1.017812,-0.285 -1.494458,-0.6333 -0.812492,-0.5938 -0.739384,-0.7136 1.170339,-1.91845 1.535987,-0.96905 2.547608,-1.26582 4.113212,-1.20663 1.141935,0.0432 2.280827,0.28294 2.530871,0.53284 0.250043,0.2499 0.776968,0.45654 1.170942,0.45921 0.677755,0.005 3.39711,1.86493 8.548412,5.84803 1.257536,0.9723 5.104843,3.8917 8.549566,6.4875 3.444726,2.5958 6.471099,4.8906 6.725275,5.0996 1.073518,0.8827 12.562669,9.6404 13.47727,10.2732 0.984943,0.6814 12.749211,9.6125 23.399771,17.7645 7.53039,5.7638 16.25296,12.3475 17.46076,13.1791 0.5534,0.381 1.44745,1.0507 1.98678,1.4882 3.39884,2.7568 5.79384,4.5951 14.60912,11.2131 5.41386,4.0644 10.0732,7.6032 10.3541,7.864 0.28092,0.2609 2.4864,1.9595 4.90108,3.7747 2.41467,1.8151 7.30179,5.4887 10.86026,8.1635 3.55846,2.6747 6.67792,5.0406 6.93211,5.2576 0.50305,0.4293 10.31369,7.9195 17.33018,13.2313 2.41468,1.828 6.53748,4.9757 9.16179,6.995 2.62431,2.0193 6.36763,4.8744 8.31849,6.3446 1.95087,1.4703 3.85975,2.9251 4.24196,3.2331 0.38221,0.3079 2.87775,2.209 5.54567,4.2246 2.6679,2.0155 6.61842,5.0155 8.77891,6.6665 2.16051,1.651 5.17596,3.9428 6.70102,5.0928 1.52505,1.1501 2.87681,2.2113 3.00389,2.3582 0.1271,0.147 3.0836,2.414 6.57003,5.0378 7.80489,5.8738 10.89918,8.9005 13.97268,13.6673 2.61813,4.0606 3.43052,5.6672 4.78756,9.4682 2.05673,5.7608 2.16699,6.7478 2.16699,19.3983 0,10.5757 -0.10942,12.5062 -0.805,14.2023 -0.44274,1.0796 -0.68572,1.963 -0.53993,1.963 0.14578,0 -0.8313,0.9352 -2.17129,2.0784 -1.98293,1.6915 -4.93366,2.7121 -4.91427,2.0784 z"
           style="opacity:1;fill:#3d4a5a;fill-opacity:1;stroke:none;stroke-width:0.04620016;stroke-miterlimit:4;stroke-dasharray:none;stroke-opacity:1" />
        <rect
           transform="matrix(0.83985842,-0.54280553,0.57202641,0.8202352,0,0)"
           ry="2.5681834"
           y="1148.1908"
           x="-434.53281"
           height="5.1363668"
           width="88.629333"
           id="rect1232"
           style="opacity:1;fill:#1a2430;fill-opacity:1;stroke:none;stroke-width:0.09359737;stroke-miterlimit:4;stroke-dasharray:none;stroke-opacity:1" />
        <rect
           transform="matrix(0.86583224,-0.50033442,0.65436272,0.75618082,0,0)"
           ry="3.9572966"
           y="915.16266"
           x="-603.1413"
           height="10.22581"
           width="99.103958"
           id="rect1234"
           style="opacity:1;fill:#293542;fill-opacity:1;stroke:#576a7d;stroke-width:0.50452936;stroke-miterlimit:4;stroke-dasharray:none;stroke-opacity:1" />
        <g
           transform="translate(180)"
           id="g1285">
          <path
             style="fill:#ffffff;stroke:none;stroke-width:0.9886663px;stroke-linecap:butt;stroke-linejoin:miter;stroke-opacity:1"
             d="M -95.911769,995.98762 -19.1106,951.63897 c -1.49265,-21.0173 -2.42841,-44.65111 -22.21522,-69.97222 l -78.38796,45.99113 c 20.228461,22.33188 19.09473,45.19451 23.802011,68.32974 z"
             id="path1236"
             inkscape:connector-curvature="0"
             sodipodi:nodetypes="ccccc" />
          <path
             style="fill:none;stroke:#000000;stroke-width:1px;stroke-linecap:butt;stroke-linejoin:miter;stroke-opacity:1"
             d="M -89.713283,956.31766 -27.92702,923.30475 Z"
             id="path1250"
             inkscape:connector-curvature="0" />
          <path
             style="fill:none;stroke:#000000;stroke-width:1px;stroke-linecap:butt;stroke-linejoin:miter;stroke-opacity:1"
             d="M -86.631116,969.27475 -26.02873,936.39262 Z"
             id="path1253"
             inkscape:connector-curvature="0" />
          <path
             style="fill:none;stroke:#000000;stroke-width:1px;stroke-linecap:butt;stroke-linejoin:miter;stroke-opacity:1"
             d="m -67.36607,926.35496 32.39796,-18.04768 z"
             id="path1255"
             inkscape:connector-curvature="0" />
          <path
             style="fill:none;stroke:#000000;stroke-width:1px;stroke-linecap:butt;stroke-linejoin:miter;stroke-opacity:1"
             d="m -71.6081,917.29705 31.79208,-17.70992 z"
             id="path1257"
             inkscape:connector-curvature="0" />
        </g>
        <path
           inkscape:connector-curvature="0"
           id="path1287"
           d="m 97.387741,1008.83 79.468859,-50.17129 54.75597,42.96719 -80.92255,51.7151 z"
           style="fill:url(#linearGradient1319);fill-opacity:1;stroke:none;stroke-width:1.08115339px;stroke-linecap:butt;stroke-linejoin:miter;stroke-opacity:1" />
        <path
           inkscape:connector-curvature="0"
           id="path1291"
           d="M 97.387741,1008.83 176.8566,958.65871 Z"
           style="fill:#293542;fill-opacity:1;stroke:#293542;stroke-width:1px;stroke-linecap:butt;stroke-linejoin:miter;stroke-opacity:1" />
        <path
           style="fill:#293542;fill-opacity:1;stroke:#293542;stroke-width:1px;stroke-linecap:butt;stroke-linejoin:miter;stroke-opacity:1"
           d="M 97.988735,1009.4864 177.4576,959.31514 Z"
           id="path1293"
           inkscape:connector-curvature="0" />
        <path
           inkscape:connector-curvature="0"
           id="path1295"
           d="m 176.8566,958.65871 54.75597,42.96719 z"
           style="fill:none;stroke:#293542;stroke-width:1px;stroke-linecap:butt;stroke-linejoin:miter;stroke-opacity:1" />
        <path
           style="fill:none;stroke:#293542;stroke-width:1px;stroke-linecap:butt;stroke-linejoin:miter;stroke-opacity:1"
           d="M 176.34631,959.37277 231.10228,1002.34 Z"
           id="path1297"
           inkscape:connector-curvature="0" />
        <path
           style="fill:none;stroke:#000000;stroke-width:1px;stroke-linecap:butt;stroke-linejoin:miter;stroke-opacity:1"
           d="m 150.88495,1036.5012 59.96067,-37.21942 z"
           id="path1305"
           inkscape:connector-curvature="0" />
        <path
           inkscape:connector-curvature="0"
           id="path1307"
           d="m 142.88495,1026.5012 59.96067,-37.21942 z"
           style="fill:none;stroke:#000000;stroke-width:1px;stroke-linecap:butt;stroke-linejoin:miter;stroke-opacity:1" />
        <path
           style="fill:none;stroke:#000000;stroke-width:1px;stroke-linecap:butt;stroke-linejoin:miter;stroke-opacity:1"
           d="m 132.88495,1018.5012 59.96067,-37.21942 z"
           id="path1309"
           inkscape:connector-curvature="0" />
        <path
           inkscape:connector-curvature="0"
           id="path1311"
           d="m 120.88495,1010.5012 59.96067,-37.21942 z"
           style="fill:none;stroke:#000000;stroke-width:1px;stroke-linecap:butt;stroke-linejoin:miter;stroke-opacity:1" />
        <path
           sodipodi:nodetypes="cccccc"
           inkscape:connector-curvature="0"
           id="path1321"
           d="m 105.07415,1015.0625 98.03607,4.6557 10.90333,-6.5255 -108.02267,-8.0405 -7.47144,4.6608 z"
           style="opacity:0.5;fill:#ffffff;stroke:none;stroke-width:1px;stroke-linecap:butt;stroke-linejoin:miter;stroke-opacity:1" />
        <path
           sodipodi:nodetypes="ccccc"
           inkscape:connector-curvature="0"
           id="path1332"
           d="m 114.31144,999.94592 104.96913,9.43468 7.40284,-4.8639 -109.60078,-6.65865 z"
           style="opacity:0.5;fill:#ffffff;fill-opacity:1;stroke:none;stroke-width:1.00228047px;stroke-linecap:butt;stroke-linejoin:miter;stroke-opacity:1" />
        <path
           inkscape:connector-curvature="0"
           id="path1336"
           d="m 288.66526,1142.1907 58.19491,-34.178 z"
           style="fill:none;stroke:#ffffff;stroke-width:1px;stroke-linecap:butt;stroke-linejoin:miter;stroke-opacity:1" />
      </g>
    </g>
    <path
       inkscape:connector-curvature="0"
       id="path1405"
       d="m 398.47299,305.10937 9.30993,7.76765 14.44076,-9.22865 -9.66404,-7.55043 z"
       style="fill:#808080;fill-opacity:1;stroke:none;stroke-width:0.27419925px;stroke-linecap:butt;stroke-linejoin:miter;stroke-opacity:1" />
    <path
       style="fill:#808080;fill-opacity:1;stroke:none;stroke-width:0.27419925px;stroke-linecap:butt;stroke-linejoin:miter;stroke-opacity:1"
       d="m 380.47299,317.10937 9.30993,7.76765 14.44076,-9.22865 -9.66404,-7.55043 z"
       id="path1407"
       inkscape:connector-curvature="0" />
    <path
       inkscape:connector-curvature="0"
       id="path1409"
       d="m 362.47299,329.10937 9.30993,7.76765 14.44076,-9.22865 -9.66404,-7.55043 z"
       style="fill:#808080;fill-opacity:1;stroke:none;stroke-width:0.27419925px;stroke-linecap:butt;stroke-linejoin:miter;stroke-opacity:1" />
    <path
       style="fill:#808080;fill-opacity:1;stroke:none;stroke-width:0.27419925px;stroke-linecap:butt;stroke-linejoin:miter;stroke-opacity:1"
       d="m 376.47299,339.10937 9.30993,7.76765 14.44076,-9.22865 -9.66404,-7.55043 z"
       id="path1411"
       inkscape:connector-curvature="0" />
    <path
       inkscape:connector-curvature="0"
       id="path1413"
       d="m 394.47299,327.10937 9.30993,7.76765 14.44076,-9.22865 -9.66404,-7.55043 z"
       style="fill:#808080;fill-opacity:1;stroke:none;stroke-width:0.27419925px;stroke-linecap:butt;stroke-linejoin:miter;stroke-opacity:1" />
    <path
       style="fill:#808080;fill-opacity:1;stroke:none;stroke-width:0.27419925px;stroke-linecap:butt;stroke-linejoin:miter;stroke-opacity:1"
       d="m 412.47299,315.10937 9.30993,7.76765 14.44076,-9.22865 -9.66404,-7.55043 z"
       id="path1415"
       inkscape:connector-curvature="0" />
    <path
       inkscape:connector-curvature="0"
       id="path1417"
       d="m 390.47299,349.10937 9.30993,7.76765 14.44076,-9.22865 -9.66404,-7.55043 z"
       style="fill:#808080;fill-opacity:1;stroke:none;stroke-width:0.27419925px;stroke-linecap:butt;stroke-linejoin:miter;stroke-opacity:1" />
    <path
       style="fill:#808080;fill-opacity:1;stroke:none;stroke-width:0.27419925px;stroke-linecap:butt;stroke-linejoin:miter;stroke-opacity:1"
       d="m 408.47299,337.10937 9.30993,7.76765 14.44076,-9.22865 -9.66404,-7.55043 z"
       id="path1419"
       inkscape:connector-curvature="0" />
    <path
       inkscape:connector-curvature="0"
       id="path1421"
       d="m 426.47299,325.10937 9.30993,7.76765 14.44076,-9.22865 -9.66404,-7.55043 z"
       style="fill:#808080;fill-opacity:1;stroke:none;stroke-width:0.27419925px;stroke-linecap:butt;stroke-linejoin:miter;stroke-opacity:1" />
    <path
       style="fill:#808080;fill-opacity:1;stroke:none;stroke-width:0.27419925px;stroke-linecap:butt;stroke-linejoin:miter;stroke-opacity:1"
       d="m 404.47299,359.10937 9.30993,7.76765 14.44076,-9.22865 -9.66404,-7.55043 z"
       id="path1423"
       inkscape:connector-curvature="0" />
    <path
       inkscape:connector-curvature="0"
       id="path1425"
       d="m 422.47299,347.10937 9.30993,7.76765 14.44076,-9.22865 -9.66404,-7.55043 z"
       style="fill:#808080;fill-opacity:1;stroke:none;stroke-width:0.27419925px;stroke-linecap:butt;stroke-linejoin:miter;stroke-opacity:1" />
    <path
       style="fill:#808080;fill-opacity:1;stroke:none;stroke-width:0.27419925px;stroke-linecap:butt;stroke-linejoin:miter;stroke-opacity:1"
       d="m 440.47299,335.10937 9.30993,7.76765 14.44076,-9.22865 -9.66404,-7.55043 z"
       id="path1427"
       inkscape:connector-curvature="0" />
    <path
       inkscape:connector-curvature="0"
       id="path1429"
       d="m 418.47299,369.10937 9.30993,7.76765 14.44076,-9.22865 -9.66404,-7.55043 z"
       style="fill:#ffff00;fill-opacity:1;stroke:none;stroke-width:0.27419925px;stroke-linecap:butt;stroke-linejoin:miter;stroke-opacity:1" />
    <path
       style="fill:#ff0000;fill-opacity:1;stroke:none;stroke-width:0.27419925px;stroke-linecap:butt;stroke-linejoin:miter;stroke-opacity:1"
       d="m 436.47299,357.10937 9.30993,7.76765 14.44076,-9.22865 -9.66404,-7.55043 z"
       id="path1431"
       inkscape:connector-curvature="0" />
    <path
       inkscape:connector-curvature="0"
       id="path1433"
       d="m 454.47299,345.10937 9.30993,7.76765 14.44076,-9.22865 -9.66404,-7.55043 z"
       style="fill:#00ff00;fill-opacity:1;stroke:none;stroke-width:0.27419925px;stroke-linecap:butt;stroke-linejoin:miter;stroke-opacity:1" />
  </g>
  <g
     id="g1088"
     transform="translate(286.29733,-280.46487)">
    <path
       inkscape:connector-curvature="0"
       id="path977"
       d="m -258.94207,559.12347 -0.65318,86.54568 86.87227,46.37542 0.32658,-89.48497 z"
       style="fill:#b54500;fill-opacity:1;stroke:none;stroke-width:1px;stroke-linecap:butt;stroke-linejoin:miter;stroke-opacity:1" />
    <path
       inkscape:connector-curvature="0"
       id="path979"
       d="m -174.3964,602.5596 -0.32658,88.5052 2.93928,1.95953 103.52823,-57.80598 4.89881,-91.1179 z"
       style="fill:#a83b01;fill-opacity:1;stroke:none;stroke-width:1px;stroke-linecap:butt;stroke-linejoin:miter;stroke-opacity:1" />
    <path
       sodipodi:nodetypes="ccccc"
       inkscape:connector-curvature="0"
       id="path981"
       d="m -258.94207,559.12347 84.83614,43.60958 110.74927,-58.6326 -85.80859,-42.5157 z"
       style="fill:#cd5c00;fill-opacity:1;stroke:none;stroke-width:1px;stroke-linecap:butt;stroke-linejoin:miter;stroke-opacity:1" />
    <path
       sodipodi:nodetypes="ccccccccccc"
       inkscape:connector-curvature="0"
       id="path990"
       d="m -89.776266,575.46529 15.26797,-8.81786 c -0.05,4.62326 -1.26275,8.89266 -6.28681,12.00209 l -0.0817,7.34822 2.85764,-1.5513 0.40823,1.30635 -8.08304,4.89882 -0.32658,-1.63294 3.18422,-1.79623 -0.32658,-7.26657 c -4.9064,0.92068 -5.74091,-1.80192 -6.61335,-4.49058 z"
       style="fill:#ffffff;fill-opacity:1;stroke:none;stroke-width:1px;stroke-linecap:butt;stroke-linejoin:miter;stroke-opacity:1" />
    <g
       transform="translate(-289.78284,17.744704)"
       id="g1011">
      <path
         style="fill:#ffffff;stroke:#ffffff;stroke-width:1px;stroke-linecap:butt;stroke-linejoin:miter;stroke-opacity:1"
         d="m 123.50593,625.69717 3.75575,-2.28611 0.1633,17.96231 -0.1633,-17.96231 z"
         id="path992"
         inkscape:connector-curvature="0"
         sodipodi:nodetypes="ccccc" />
      <path
         style="fill:#ffffff;fill-opacity:1;stroke:none;stroke-width:1px;stroke-linecap:butt;stroke-linejoin:miter;stroke-opacity:1"
         d="m 127.75157,640.5569 12.57362,-8.0014 v 12.08374 l 1.46964,-0.97976 0.32659,2.28611 -15.02303,7.67481 -0.16329,-13.0635 z"
         id="path994"
         inkscape:connector-curvature="0" />
      <ellipse
         style="opacity:1;fill:#ffffff;fill-opacity:1;stroke:none;stroke-width:1.15175724;stroke-opacity:1"
         id="path996"
         cx="447.33914"
         cy="461.45386"
         rx="2.1236358"
         ry="2.8419969"
         transform="matrix(0.81562717,0.57857784,-0.51468388,0.85738002,0,0)"
         inkscape:transform-center-x="0.36500451"
         inkscape:transform-center-y="0.66127901" />
    </g>
    <g
       style="fill:#ffffff"
       id="g1019">
      <path
         sodipodi:nodetypes="ccccc"
         style="fill:#ffffff;fill-opacity:1;stroke:none;stroke-width:1px;stroke-linecap:butt;stroke-linejoin:miter;stroke-opacity:1"
         d="m -229.16821,575.08578 17.47243,8.81786 L -100,525.91102 l -15.93432,-7.8517 z"
         id="path1013"
         inkscape:connector-curvature="0" />
      <path
         style="fill:#ffffff;fill-opacity:1;stroke:none;stroke-width:1px;stroke-linecap:butt;stroke-linejoin:miter;stroke-opacity:1"
         d="m -229.16821,575.08578 0.38345,21.59752 4.38771,-1.84746 0.23093,3.92585 3.46399,-2.07839 1.38559,4.61864 3.23305,-3.00212 2.77119,6.00424 1.61652,-22.40042 z"
         id="path1015"
         inkscape:connector-curvature="0"
         sodipodi:nodetypes="cccccccccc" />
    </g>
    <path
       style="fill:#a893e4;fill-opacity:1;stroke:none;stroke-width:1px;stroke-linecap:butt;stroke-linejoin:miter;stroke-opacity:1"
       d="m -258.94207,467.12347 -0.65318,86.54568 86.87227,46.37542 0.32658,-89.48497 z"
       id="path1044"
       inkscape:connector-curvature="0" />
    <path
       style="fill:#a86ce4;fill-opacity:1;stroke:none;stroke-width:1px;stroke-linecap:butt;stroke-linejoin:miter;stroke-opacity:1"
       d="m -174.3964,510.5596 -0.32658,88.5052 2.93928,1.95953 103.52823,-57.80598 4.89881,-91.1179 z"
       id="path1046"
       inkscape:connector-curvature="0" />
    <path
       style="fill:#a8a9e4;fill-opacity:1;stroke:none;stroke-width:1px;stroke-linecap:butt;stroke-linejoin:miter;stroke-opacity:1"
       d="m -258.94207,467.12347 84.83614,43.60958 110.74927,-58.6326 -85.80859,-42.5157 z"
       id="path1048"
       inkscape:connector-curvature="0"
       sodipodi:nodetypes="ccccc" />
    <path
       style="fill:#ffffff;fill-opacity:1;stroke:none;stroke-width:1px;stroke-linecap:butt;stroke-linejoin:miter;stroke-opacity:1"
       d="m -89.776266,483.46529 15.26797,-8.81786 c -0.05,4.62326 -1.26275,8.89266 -6.28681,12.00209 l -0.0817,7.34822 2.85764,-1.5513 0.40823,1.30635 -8.08304,4.89882 -0.32658,-1.63294 3.18422,-1.79623 -0.32658,-7.26657 c -4.9064,0.92068 -5.74091,-1.80192 -6.61335,-4.49058 z"
       id="path1050"
       inkscape:connector-curvature="0"
       sodipodi:nodetypes="ccccccccccc" />
    <g
       id="g1058"
       transform="translate(-289.78284,-74.255296)">
      <path
         sodipodi:nodetypes="ccccc"
         inkscape:connector-curvature="0"
         id="path1052"
         d="m 123.50593,625.69717 3.75575,-2.28611 0.1633,17.96231 -0.1633,-17.96231 z"
         style="fill:#ffffff;stroke:#ffffff;stroke-width:1px;stroke-linecap:butt;stroke-linejoin:miter;stroke-opacity:1" />
      <path
         inkscape:connector-curvature="0"
         id="path1054"
         d="m 127.75157,640.5569 12.57362,-8.0014 v 12.08374 l 1.46964,-0.97976 0.32659,2.28611 -15.02303,7.67481 -0.16329,-13.0635 z"
         style="fill:#ffffff;fill-opacity:1;stroke:none;stroke-width:1px;stroke-linecap:butt;stroke-linejoin:miter;stroke-opacity:1" />
      <ellipse
         inkscape:transform-center-y="0.66127901"
         inkscape:transform-center-x="0.36500451"
         transform="matrix(0.81562717,0.57857784,-0.51468388,0.85738002,0,0)"
         ry="2.8419969"
         rx="2.1236358"
         cy="461.45386"
         cx="447.33914"
         id="ellipse1056"
         style="opacity:1;fill:#ffffff;fill-opacity:1;stroke:none;stroke-width:1.15175724;stroke-opacity:1" />
    </g>
    <g
       transform="translate(0,-92)"
       id="g1064"
       style="fill:#ffffff">
      <path
         inkscape:connector-curvature="0"
         id="path1060"
         d="m -229.16821,575.08578 17.47243,8.81786 L -100,525.91102 l -15.93432,-7.8517 z"
         style="fill:#ffffff;fill-opacity:1;stroke:none;stroke-width:1px;stroke-linecap:butt;stroke-linejoin:miter;stroke-opacity:1"
         sodipodi:nodetypes="ccccc" />
      <path
         sodipodi:nodetypes="cccccccccc"
         inkscape:connector-curvature="0"
         id="path1062"
         d="m -229.16821,575.08578 0.38345,21.59752 4.38771,-1.84746 0.23093,3.92585 3.46399,-2.07839 1.38559,4.61864 3.23305,-3.00212 2.77119,6.00424 1.61652,-22.40042 z"
         style="fill:#ffffff;fill-opacity:1;stroke:none;stroke-width:1px;stroke-linecap:butt;stroke-linejoin:miter;stroke-opacity:1" />
    </g>
  </g>
  <rect
     style="opacity:1;fill:#205aa0;fill-opacity:1;stroke:none;stroke-width:0.21932046;stroke-miterlimit:4;stroke-dasharray:none;stroke-opacity:1"
     id="rect5325"
     width="92.341362"
     height="148.56329"
     x="300.88409"
     y="205.39635"
     ry="9.3189611"
     transform="rotate(7.9524938)" />
  <rect
     ry="7.5207624"
     y="214.35706"
     x="308.51068"
     height="119.89632"
     width="76.851555"
     id="rect5327"
     style="opacity:1;fill:#80ffb7;fill-opacity:1;stroke:none;stroke-width:0.17974406;stroke-miterlimit:4;stroke-dasharray:none;stroke-opacity:1"
     transform="rotate(7.9524938)" />
  <g
     id="g1577"
     transform="matrix(-0.33000902,-0.71546503,0.76341306,-0.3521251,347.46586,699.66854)"
     style="fill:#ffffff">
    <path
       inkscape:connector-curvature="0"
       id="path5082"
       d="m 488.34314,157.36305 c -1.46296,-0.50557 -1.76413,-1.04376 -1.30782,-2.33708 0.0996,-0.28218 0.18102,-0.54811 0.18102,-0.59098 0,-0.0429 -0.40967,-0.44896 -0.91039,-0.90245 l -0.91037,-0.82453 -0.62822,0.27089 c -0.71561,0.30857 -1.19044,0.3312 -1.58094,0.0753 -0.32224,-0.21114 -1.15907,-1.89346 -1.15907,-2.33015 0,-0.54594 0.36492,-0.97749 1.09393,-1.29366 l 0.68699,-0.29795 -0.055,-1.126 c -0.0302,-0.61931 -0.0714,-1.18032 -0.0915,-1.2467 -0.0201,-0.0664 -0.32077,-0.22927 -0.66815,-0.36202 -0.70828,-0.27063 -1.20764,-0.77507 -1.20764,-1.21988 0,-0.47948 0.71817,-2.20153 1.00065,-2.39938 0.33806,-0.23679 0.98449,-0.23104 1.70713,0.0152 l 0.57864,0.19716 0.49876,-0.58916 c 0.27431,-0.32403 0.65765,-0.73626 0.85186,-0.91606 l 0.35312,-0.3269 -0.33073,-0.82154 c -0.48227,-1.19798 -0.25168,-1.61846 1.23139,-2.24542 1.34028,-0.56661 1.84816,-0.37338 2.43054,0.92471 0.18797,0.41898 0.31327,0.5634 0.44496,0.51286 0.10082,-0.0387 0.64113,-0.0703 1.20069,-0.0703 h 1.01738 l 0.30504,-0.68977 c 0.56981,-1.28843 0.94159,-1.43631 2.34769,-0.9338 1.05536,0.37715 1.26839,0.53891 1.4552,1.10493 0.11705,0.35468 0.0974,0.52837 -0.13038,1.15309 l -0.26818,0.73552 0.34609,0.24203 c 0.19036,0.13312 0.60915,0.50879 0.93066,0.83482 l 0.58456,0.5928 0.7169,-0.32173 c 1.18739,-0.53287 1.67993,-0.24349 2.41136,1.4167 0.33602,0.76272 0.3455,0.82815 0.178,1.22905 -0.16884,0.40408 -0.57915,0.73689 -1.31116,1.06349 l -0.33532,0.14961 0.0336,1.25581 0.0336,1.25579 0.66371,0.2221 c 0.79758,0.2669 1.20675,0.68689 1.20675,1.23868 0,0.52047 -0.65641,2.12233 -0.98066,2.39318 -0.31414,0.2624 -0.85796,0.26906 -1.59043,0.0195 -0.30944,-0.10543 -0.60782,-0.17331 -0.66306,-0.15084 -0.0553,0.0225 -0.46351,0.42773 -0.90725,0.90055 l -0.8068,0.8597 0.31406,0.68601 c 0.34585,0.75543 0.33038,1.33705 -0.0444,1.66756 -0.11486,0.1013 -0.61217,0.38581 -1.10515,0.63225 -1.36544,0.68258 -1.9206,0.51301 -2.44243,-0.74601 -0.25831,-0.6232 -0.29341,-0.65637 -0.62451,-0.59015 -0.19296,0.0386 -0.7447,0.0702 -1.22609,0.0702 h -0.87526 l -0.27597,0.73793 c -0.19907,0.5323 -0.37969,0.80117 -0.64825,0.96493 -0.47058,0.28696 -0.65725,0.2772 -1.7193,-0.0898 z m 5.77137,-5.08361 c 1.08131,-0.53232 1.92184,-1.39163 2.48173,-2.53718 0.44091,-0.90211 0.45479,-0.97036 0.44705,-2.1981 -0.007,-1.15751 -0.0408,-1.33808 -0.38762,-2.08822 -1.24264,-2.6879 -4.48142,-3.84709 -7.07569,-2.53248 -0.74403,0.37703 -1.87988,1.49587 -2.24631,2.21268 -1.30342,2.54969 -0.35124,5.75865 2.07953,7.0083 0.94882,0.48778 1.43111,0.58698 2.69742,0.55482 1.08979,-0.0277 1.29442,-0.0706 2.00389,-0.41982 z"
       style="opacity:1;fill:#ffffff;fill-opacity:1;stroke:none;stroke-width:0.01206741;stroke-miterlimit:4;stroke-dasharray:none;stroke-opacity:1" />
    <path
       style="opacity:1;fill:#ffffff;fill-opacity:1;stroke:none;stroke-width:0.0231122;stroke-miterlimit:4;stroke-dasharray:none;stroke-opacity:1"
       d="m 458.00148,149.70272 c -2.80194,-0.9683 -3.37876,-1.99907 -2.50481,-4.47612 0.19076,-0.54043 0.3467,-1.04977 0.3467,-1.13187 0,-0.0821 -0.78462,-0.85988 -1.74363,-1.72843 l -1.74359,-1.57917 -1.20321,0.51881 c -1.37058,0.591 -2.28,0.63434 -3.02791,0.14428 -0.61717,-0.40438 -2.21991,-3.62647 -2.21991,-4.46283 0,-1.04562 0.69891,-1.87216 2.09515,-2.47769 l 1.31577,-0.57065 -0.10534,-2.15659 c -0.0578,-1.18614 -0.13675,-2.26062 -0.17525,-2.38774 -0.0385,-0.12713 -0.61436,-0.43912 -1.27968,-0.69337 -1.35654,-0.51833 -2.31294,-1.48446 -2.31294,-2.33639 0,-0.91833 1.37548,-4.2165 1.9165,-4.59543 0.64748,-0.45351 1.88556,-0.44249 3.2696,0.0292 l 1.10824,0.37762 0.95526,-1.12839 c 0.52537,-0.62061 1.25957,-1.41014 1.63153,-1.75449 l 0.67631,-0.6261 -0.63343,-1.57347 c -0.92367,-2.29444 -0.48203,-3.09977 2.35843,-4.30056 2.56698,-1.08519 3.5397,-0.71512 4.65511,1.77106 0.36001,0.80245 0.59999,1.07905 0.85222,0.98227 0.19309,-0.0741 1.22792,-0.13474 2.29963,-0.13474 h 1.94854 l 0.58423,-1.3211 c 1.09133,-2.46767 1.80339,-2.75089 4.49643,-1.78847 2.02129,0.72234 2.4293,1.03215 2.78709,2.11623 0.22418,0.6793 0.18654,1.01196 -0.24971,2.20846 l -0.51364,1.40872 0.66285,0.46355 c 0.36459,0.25495 1.16668,0.97447 1.78246,1.5989 l 1.11958,1.13535 1.37305,-0.61618 c 2.27416,-1.02059 3.2175,-0.46635 4.61838,2.71333 0.64356,1.46081 0.66172,1.58613 0.34091,2.35395 -0.32337,0.77393 -1.10922,1.41134 -2.51121,2.03686 l -0.64222,0.28655 0.0644,2.40519 0.0643,2.40517 1.27118,0.42538 c 1.52757,0.51117 2.31124,1.31556 2.31124,2.37238 0,0.99683 -1.2572,4.06482 -1.87822,4.58357 -0.60166,0.50255 -1.64321,0.51531 -3.04608,0.0373 -0.59266,-0.20194 -1.16414,-0.33195 -1.26993,-0.2889 -0.10592,0.0431 -0.88775,0.8192 -1.73762,1.72478 l -1.54523,1.64654 0.6015,1.31388 c 0.6624,1.44685 0.63277,2.56081 -0.085,3.19381 -0.21999,0.19402 -1.17247,0.73893 -2.11665,1.21093 -2.61517,1.30733 -3.67845,0.98256 -4.67789,-1.4288 -0.49473,-1.1936 -0.56195,-1.25712 -1.19609,-1.13029 -0.36957,0.0739 -1.4263,0.13445 -2.34828,0.13445 h -1.67635 l -0.52855,1.41332 c -0.38127,1.01951 -0.72721,1.53446 -1.24157,1.84811 -0.90128,0.54959 -1.2588,0.53091 -3.2929,-0.17203 z m 11.05367,-9.73643 c 2.07098,-1.01953 3.68082,-2.66533 4.75315,-4.85935 0.84446,-1.72777 0.87104,-1.85848 0.85622,-4.20991 -0.0134,-2.21694 -0.0781,-2.56278 -0.7424,-3.9995 -2.37997,-5.14801 -8.58307,-7.36817 -13.55177,-4.85034 -1.42501,0.72211 -3.60045,2.86497 -4.30226,4.23785 -2.49639,4.88331 -0.67272,11.0293 3.98283,13.42269 1.81724,0.93423 2.74095,1.12422 5.16626,1.06263 2.08723,-0.0531 2.47915,-0.13514 3.83797,-0.80407 z"
       id="path5084"
       inkscape:connector-curvature="0" />
    <path
       style="opacity:1;fill:#ffffff;fill-opacity:1;stroke:none;stroke-width:0.0158906;stroke-miterlimit:4;stroke-dasharray:none;stroke-opacity:1"
       d="m 427.82266,163.59655 c -1.92645,-0.66574 -2.32304,-1.37444 -1.72216,-3.07751 0.13115,-0.37158 0.23837,-0.72177 0.23837,-0.77822 0,-0.0565 -0.53946,-0.5912 -1.19882,-1.18836 l -1.19879,-1.08576 -0.82726,0.35671 c -0.94233,0.40634 -1.56759,0.43613 -2.08181,0.0992 -0.42433,-0.27803 -1.52629,-2.49334 -1.52629,-3.06839 0,-0.7189 0.48054,-1.28717 1.44051,-1.70351 l 0.90464,-0.39234 -0.0724,-1.48275 c -0.0398,-0.81552 -0.094,-1.55427 -0.12048,-1.64167 -0.0265,-0.0874 -0.4224,-0.30192 -0.87984,-0.47672 -0.93268,-0.35637 -1.59024,-1.02063 -1.59024,-1.60637 0,-0.63138 0.9457,-2.89901 1.31767,-3.15955 0.44517,-0.31181 1.2964,-0.30422 2.24799,0.02 l 0.76196,0.25962 0.65678,-0.7758 c 0.36121,-0.4267 0.866,-0.96954 1.12174,-1.20629 l 0.465,-0.43047 -0.43551,-1.08183 c -0.63507,-1.57752 -0.33142,-2.13122 1.62152,-2.95681 1.7649,-0.74611 2.43369,-0.49168 3.20058,1.21767 0.24752,0.55173 0.41252,0.7419 0.58593,0.67536 0.13276,-0.051 0.84425,-0.0926 1.58109,-0.0926 h 1.33971 l 0.40168,-0.90832 c 0.75034,-1.69663 1.23991,-1.89135 3.0915,-1.22964 1.38971,0.49664 1.67024,0.70964 1.91623,1.45499 0.15414,0.46705 0.12826,0.69577 -0.17169,1.51841 l -0.35314,0.96855 0.45574,0.31871 c 0.25067,0.17529 0.80214,0.66998 1.22551,1.09932 l 0.76976,0.7806 0.94403,-0.42365 c 1.56358,-0.70171 2.21216,-0.32065 3.17532,1.86553 0.44248,1.00436 0.45497,1.09052 0.2344,1.61843 -0.22233,0.53212 -0.76264,0.97035 -1.72656,1.40043 l -0.44156,0.19701 0.0443,1.65367 0.0442,1.65366 0.87399,0.29246 c 1.05027,0.35146 1.58907,0.90451 1.58907,1.63112 0,0.68536 -0.86437,2.79472 -1.29135,3.15138 -0.41367,0.34554 -1.12978,0.35431 -2.09431,0.0257 -0.40748,-0.13883 -0.80039,-0.22822 -0.87313,-0.19863 -0.0728,0.0296 -0.61036,0.56324 -1.19469,1.18586 l -1.06241,1.13207 0.41356,0.90335 c 0.45542,0.99477 0.43505,1.76066 -0.0585,2.19588 -0.15125,0.13339 -0.80612,0.50804 -1.45529,0.83256 -1.79804,0.89883 -2.52909,0.67554 -3.21625,-0.98236 -0.34014,-0.82064 -0.38636,-0.86432 -0.82236,-0.77712 -0.2541,0.0508 -0.98064,0.0924 -1.61454,0.0924 h -1.15256 l -0.36341,0.97172 c -0.26213,0.70094 -0.49998,1.055 -0.85362,1.27064 -0.61967,0.37787 -0.86548,0.36502 -2.26401,-0.11825 z m 7.59985,-6.6942 c 1.4239,-0.70097 2.53073,-1.83252 3.268,-3.34101 0.5806,-1.18791 0.59888,-1.27779 0.58868,-2.89449 -0.009,-1.52424 -0.0537,-1.76202 -0.51042,-2.74982 -1.63633,-3.53948 -5.90123,-5.06592 -9.31741,-3.33482 -0.97976,0.4965 -2.47547,1.96979 -2.95799,2.9137 -1.71637,3.35748 -0.46252,7.58311 2.73837,9.22867 1.24942,0.64232 1.88451,0.77295 3.55201,0.7306 1.43506,-0.0365 1.70452,-0.093 2.63876,-0.55283 z"
       id="path5086"
       inkscape:connector-curvature="0" />
  </g>
  <ellipse
     style="opacity:1;fill:#ffffff;fill-opacity:1;stroke:none;stroke-width:3.33333325;stroke-miterlimit:4;stroke-dasharray:none;stroke-opacity:1"
     id="path1650"
     cx="294.99152"
     cy="388.27399"
     rx="7.3898301"
     ry="6.7740116" />
  <ellipse
     style="opacity:1;fill:#80ff4d;fill-opacity:1;stroke:none;stroke-width:5;stroke-miterlimit:4;stroke-dasharray:none;stroke-opacity:1"
     id="path1693"
     cx="579.96185"
     cy="260.49152"
     rx="70.665253"
     ry="30.483051" />
  <g
     id="g1191"
     transform="matrix(0.62537763,0,0,0.62537763,312.68549,79.459065)">
    <path
       inkscape:connector-curvature="0"
       id="path1179"
       d="m 473.53287,272.50028 c -1.46864,-1.70152 -3.51311,-4.0136 -4.54328,-5.13798 -1.03016,-1.12438 -1.87302,-2.20133 -1.87302,-2.39321 0,-0.19189 -1.18611,-1.76646 -2.63581,-3.49904 -3.73607,-4.46512 -11.34949,-14.69334 -11.34949,-15.24745 0,-0.25583 -0.56191,-0.99305 -1.24869,-1.63824 -0.68677,-0.6452 -1.24868,-1.45232 -1.24868,-1.7936 0,-0.34129 -0.16857,-0.69545 -0.37461,-0.78702 -0.20603,-0.0916 -0.81233,-1.02605 -1.34731,-2.07662 -0.53499,-1.05056 -1.48996,-2.51153 -2.12216,-3.24658 -0.6322,-0.73505 -1.14972,-1.49505 -1.15006,-1.68888 -2.7e-4,-0.19384 -0.50632,-1.09993 -1.12442,-2.01353 -2.02091,-2.98708 -7.36725,-14.17955 -7.36725,-15.4232 0,-0.40775 -0.22772,-0.96908 -0.50603,-1.2474 -0.89086,-0.89085 -1.974,-7.29995 -1.97411,-11.68113 -1.5e-4,-5.35409 1.73722,-12.08339 4.55761,-17.65293 1.40211,-2.76881 6.7709,-9.62172 9.39583,-11.9932 12.38314,-11.18742 31.93591,-13.60114 46.7491,-5.77102 1.62978,0.86149 3.31808,1.87795 3.75179,2.25881 0.43367,0.38087 0.93684,0.69249 1.11809,0.69249 1.05761,0 7.74437,6.8894 10.39564,10.71066 2.49258,3.59258 3.54639,5.74501 5.11912,10.45597 1.97417,5.91342 2.51281,11.91798 1.5629,17.42242 -0.42454,2.46011 -1.1049,4.94834 -1.51191,5.52943 -0.407,0.58107 -0.74001,1.48161 -0.74001,2.00117 0,0.51958 -0.42018,1.76196 -0.93373,2.76085 -0.51357,0.99888 -1.65504,3.27712 -2.53663,5.06275 -1.48913,3.01619 -5.97777,10.83046 -7.38253,12.8523 -0.33754,0.48579 -1.70379,2.56898 -3.03612,4.62931 -2.3974,3.70737 -13.20576,18.26627 -14.27596,19.22977 -0.30516,0.27471 -1.11673,1.31266 -1.80348,2.30654 -0.68679,0.99389 -2.52436,3.24153 -4.08349,4.99475 -1.55915,1.75322 -3.27945,3.70289 -3.82292,4.33258 l -0.98814,1.1449 z m 9.81663,-48.39791 c 6.2134,-2.11326 10.90353,-6.80018 13.08666,-13.07774 1.08917,-3.13187 1.22678,-4.2233 1.02504,-8.12961 -0.31459,-6.09234 -1.67328,-9.43358 -5.37387,-13.21549 -4.92671,-5.03497 -9.46172,-7.01531 -16.08636,-7.02462 -10.05174,-0.0141 -18.20242,6.52556 -20.84765,16.727 -1.02167,3.94014 -0.54383,8.04382 1.61979,13.91076 0.98516,2.67135 5.36947,7.39708 8.38574,9.03873 6.15575,3.35038 11.90197,3.90981 18.19065,1.77097 z"
       style="opacity:1;fill:#ff0000;fill-opacity:1;stroke:none;stroke-width:0.04994747;stroke-miterlimit:4;stroke-dasharray:none;stroke-opacity:1" />
    <ellipse
       ry="23.901484"
       rx="22.977755"
       cy="205.87605"
       cx="476.99048"
       id="path1187"
       style="opacity:1;fill:#ffffff;fill-opacity:1;stroke:none;stroke-width:0.1;stroke-miterlimit:4;stroke-dasharray:none;stroke-opacity:1" />
  </g>
</svg>
