<?xml version="1.0" encoding="UTF-8" standalone="no"?>
<!-- Created with Inkscape (http://www.inkscape.org/) -->

<svg
   xmlns:dc="http://purl.org/dc/elements/1.1/"
   xmlns:cc="http://creativecommons.org/ns#"
   xmlns:rdf="http://www.w3.org/1999/02/22-rdf-syntax-ns#"
   xmlns:svg="http://www.w3.org/2000/svg"
   xmlns="http://www.w3.org/2000/svg"
   xmlns:sodipodi="http://sodipodi.sourceforge.net/DTD/sodipodi-0.dtd"
   xmlns:inkscape="http://www.inkscape.org/namespaces/inkscape"
   width="1889.7638"
   height="1916.2205"
   viewBox="0 0 500 507"
   version="1.1"
   id="svg8"
   inkscape:version="0.92.4 (5da689c313, 2019-01-14)"
   sodipodi:docname="managment_icon.svg">
  <defs
     id="defs2" />
  <sodipodi:namedview
     id="base"
     pagecolor="#ffffff"
     bordercolor="#666666"
     borderopacity="1.0"
     inkscape:pageopacity="0.0"
     inkscape:pageshadow="2"
     inkscape:zoom="0.24748737"
     inkscape:cx="868.18988"
     inkscape:cy="992.48268"
     inkscape:document-units="mm"
     inkscape:current-layer="layer1"
     showgrid="false"
     inkscape:window-width="1366"
     inkscape:window-height="745"
     inkscape:window-x="-8"
     inkscape:window-y="-8"
     inkscape:window-maximized="1"
     units="px" />
  <metadata
     id="metadata5">
    <rdf:RDF>
      <cc:Work
         rdf:about="">
        <dc:format>image/svg+xml</dc:format>
        <dc:type
           rdf:resource="http://purl.org/dc/dcmitype/StillImage" />
        <dc:title></dc:title>
      </cc:Work>
    </rdf:RDF>
  </metadata>
  <g
     inkscape:label="Camada 1"
     inkscape:groupmode="layer"
     id="layer1"
     transform="translate(0,210)">
    <path
       style="opacity:1;fill:#00ccff;fill-opacity:1;stroke:none;stroke-width:0.76847744;stroke-opacity:1"
       d="m 250.99159,234.30006 c -26.99638,-1.93946 -45.91894,-4.20193 -61.10223,-7.30555 -34.84457,-7.12265 -60.65883,-18.17469 -73.59416,-31.50838 -8.82224,-9.09397 -9.74414,-13.44241 -9.74071,-45.9456 0.003,-20.3806 0.35965,-26.09038 1.63368,-26.09038 0.38035,0 2.29775,1.53396 4.26088,3.40877 9.72256,9.28533 34.51928,21.20567 55.13213,26.50331 27.51744,7.07213 66.42625,12.20154 92.38476,12.1793 7.02118,-0.005 14.01627,-0.3343 15.5447,-0.72947 1.52839,-0.39516 6.53236,-0.94696 11.11994,-1.22618 19.38855,-1.1801 51.08662,-6.33423 70.51969,-11.4666 19.99406,-5.28053 44.09662,-17.09267 54.09803,-26.51221 2.4366,-2.29484 3.51505,-2.87424 4.14521,-2.22704 1.21394,1.24685 1.6329,32.83429 0.61927,46.6886 -0.96513,13.19052 -2.23129,16.76159 -8.39476,23.67622 -19.24328,21.5886 -73.45431,37.09304 -139.5652,39.91585 -6.04726,0.25825 -11.67747,0.55674 -12.51157,0.66336 -0.83411,0.10671 -2.88146,0.096 -4.54966,-0.0238 z"
       id="path874"
       inkscape:connector-curvature="0" />
    <path
       style="opacity:1;fill:#00ccff;fill-opacity:1;stroke:none;stroke-width:0.76847744;stroke-opacity:1"
       d="m 231.65554,152.62704 c -18.52911,-1.49078 -30.36488,-3.21376 -48.5297,-7.06462 -19.86594,-4.21154 -24.7499,-5.82735 -38.31695,-12.67683 -13.15273,-6.64025 -20.91803,-11.85136 -30.16696,-20.24427 l -7.19089,-6.52537 -0.44639,-12.555626 c -0.2455,-6.905587 -0.6569,-21.376121 -0.91421,-32.15672 l -0.46785,-19.601083 9.74755,6.595084 c 32.44821,21.954119 72.8329,32.983032 128.03869,34.966902 17.04375,0.612482 54.56337,-1.223779 72.00629,-3.52409 37.82871,-4.988723 67.33327,-15.370758 92.77713,-32.646385 l 9.33679,-6.339375 -0.4175,5.277525 c -0.22966,2.902635 -0.64274,17.36863 -0.91801,32.146653 l -0.50054,26.869135 -6.39998,5.84112 c -10.92893,9.97459 -23.14496,17.87945 -37.85798,24.4975 -9.57285,4.30595 -14.36264,5.69192 -33.62077,9.72851 -18.62674,3.90417 -27.988,5.15346 -52.99984,7.07295 -22.49951,1.72667 -34.92558,1.80593 -53.15888,0.33899 z"
       id="path876"
       inkscape:connector-curvature="0" />
    <path
       style="opacity:1;fill:#00ccff;fill-opacity:1;stroke:none;stroke-width:0.76847744;stroke-opacity:1"
       d="M 237.34262,72.297221 C 188.42473,69.082647 148.48566,58.360503 124.79933,42.083556 c -2.74426,-1.885827 -7.85423,-6.400121 -11.3555,-10.03176 l -6.36592,-6.602983 -0.31803,-27.9073736 c -0.19408,-17.0303624 -0.0357,-28.3268054 0.40623,-28.9835394 0.58414,-0.867946 3.19782,0.138604 13.50845,5.202177 26.93175,13.226281 44.96814,19.2966947 70.90991,23.8658194 21.34513,3.7595087 39.21108,5.0786607 69.01482,5.0957747 40.83529,0.02341 74.53468,-4.0413967 100.48621,-12.1207324 16.10217,-5.0129737 36.86884,-13.9415277 47.60606,-20.4680417 8.03433,-4.883577 7.64073,-6.315269 7.41996,26.9884914 l -0.18437,27.8085766 -6.75626,6.781555 c -10.63634,10.676135 -23.20329,18.068092 -41.92729,24.661948 -26.73681,9.415633 -55.86878,14.153808 -96.29138,15.661308 -20.04097,0.747392 -25.57252,0.790588 -33.6096,0.262445 z"
       id="path878"
       inkscape:connector-curvature="0" />
    <path
       style="opacity:1;fill:#00ccff;fill-opacity:1;stroke:none;stroke-width:0.76847744;stroke-opacity:1"
       d="m 250.61246,-19.565216 c -31.8219,-2.739988 -59.87843,-7.061463 -80.48541,-12.39698 -20.9686,-5.429149 -41.44501,-15.741002 -53.15386,-26.768134 -3.0359,-2.859117 -5.18498,-5.828356 -7.10213,-9.812499 -2.71371,-5.639582 -2.74523,-5.816051 -2.45883,-13.763063 0.25266,-7.010187 0.55188,-8.508924 2.31609,-11.600844 2.34752,-4.114247 15.62381,-17.449684 18.19586,-18.276944 0.95875,-0.30835 3.20425,-1.58856 4.99001,-2.84489 13.93407,-9.80296 44.49495,-19.00899 76.75133,-23.12029 66.02697,-8.41555 142.39146,0.54179 177.02269,20.76418 10.68414,6.23888 23.23535,17.23339 26.7947,23.471434 1.88601,3.30547 2.02709,4.17711 1.96668,12.151324 -0.0782,10.318469 -1.24771,13.666381 -6.8304,19.55319 -21.27267,22.431429 -65.17019,36.832074 -126.53827,41.511064 -12.93424,0.986172 -27.20356,1.499683 -31.46846,1.132452 z"
       id="path880"
       inkscape:connector-curvature="0" />
    <rect
       style="opacity:1;fill:#ffffff;fill-opacity:0;stroke:none;stroke-width:0.27158043;stroke-opacity:1"
       id="rect825"
       width="506.74304"
       height="524.91736"
       x="1.0690781"
       y="-214.01935" />
  </g>
</svg>
