<?xml version="1.0" encoding="UTF-8" standalone="no"?>
<!-- Created with Inkscape (http://www.inkscape.org/) -->

<svg
   xmlns:dc="http://purl.org/dc/elements/1.1/"
   xmlns:cc="http://creativecommons.org/ns#"
   xmlns:rdf="http://www.w3.org/1999/02/22-rdf-syntax-ns#"
   xmlns:svg="http://www.w3.org/2000/svg"
   xmlns="http://www.w3.org/2000/svg"
   xmlns:sodipodi="http://sodipodi.sourceforge.net/DTD/sodipodi-0.dtd"
   xmlns:inkscape="http://www.inkscape.org/namespaces/inkscape"
   width="500mm"
   height="507mm"
   viewBox="0 0 500 507"
   version="1.1"
   id="svg8"
   inkscape:version="0.92.4 (5da689c313, 2019-01-14)"
   sodipodi:docname="sales_icon.svg">
  <defs
     id="defs2" />
  <sodipodi:namedview
     id="base"
     pagecolor="#ffffff"
     bordercolor="#666666"
     borderopacity="1.0"
     inkscape:pageopacity="0.0"
     inkscape:pageshadow="2"
     inkscape:zoom="0.49497475"
     inkscape:cx="1141.1233"
     inkscape:cy="864.72127"
     inkscape:document-units="mm"
     inkscape:current-layer="layer1"
     showgrid="false"
     inkscape:window-width="1366"
     inkscape:window-height="745"
     inkscape:window-x="-8"
     inkscape:window-y="-8"
     inkscape:window-maximized="1"
     showguides="false" />
  <metadata
     id="metadata5">
    <rdf:RDF>
      <cc:Work
         rdf:about="">
        <dc:format>image/svg+xml</dc:format>
        <dc:type
           rdf:resource="http://purl.org/dc/dcmitype/StillImage" />
        <dc:title />
      </cc:Work>
    </rdf:RDF>
  </metadata>
  <g
     inkscape:label="Camada 1"
     inkscape:groupmode="layer"
     id="layer1"
     transform="translate(0,210)">
    <path
       style="opacity:1;fill:#fbbd26;fill-opacity:1;stroke:none;stroke-width:0.31640211;stroke-opacity:1"
       d="m 251.29017,163.97603 c -22.31568,-1.21159 -37.24921,-5.40091 -51.2365,-14.37339 l -2.46426,-1.58076 -0.19925,-1.65872 c -0.23919,-1.99134 -0.27545,-22.69948 -0.0397,-22.69948 0.0907,0 1.05181,0.68828 2.13571,1.52951 4.90355,3.80573 12.31897,8.67646 17.63264,11.58178 1.47916,0.80871 2.84587,1.67568 3.03709,1.92653 0.19123,0.25081 0.42535,0.37838 0.52025,0.2835 0.095,-0.0949 1.78941,0.56721 3.76554,1.47143 4.63074,2.11882 11.8421,4.49275 16.19661,5.33177 10.64333,2.05078 19.26448,1.48468 28.52865,-1.87338 18.18438,-6.59133 30.46028,-12.62532 42.23967,-20.76204 12.65765,-8.74339 24.93648,-21.69049 39.23775,-41.373298 l 7.0983,-9.76938 2.91949,3.035518 c 11.08851,11.52916 14.29753,17.910201 14.98072,29.78856 0.26074,4.53385 0.22527,5.38113 -0.34184,8.16391 -1.20223,5.8996 -3.52621,10.93891 -7.82414,16.96594 -11.1551,15.64291 -29.85013,24.97919 -65.87874,32.89977 l -4.27143,0.93904 -21.98995,0.14247 c -12.09445,0.0784 -22.91542,0.0921 -24.04656,0.0306 z"
       id="path866"
       inkscape:connector-curvature="0" />
    <g
       transform="matrix(1.5779974,0,0,1.5334731,-135.30002,-29.776895)"
       id="g854"
       style="fill:#fbbd26;fill-opacity:1">
      <path
         sodipodi:nodetypes="ccccccccc"
         inkscape:connector-curvature="0"
         id="path850"
         d="m 214.35835,147.88134 c 42.13817,16.96867 111.16183,6.40941 119.87038,-32.87413 L 334.496,93.625672 c -1.89014,14.009538 -15.3828,26.718918 -18.4416,27.795988 -12.3118,6.3714 -25.20271,12.47392 -47.30671,14.29894 -13.71906,-0.0339 -27.19789,0.46063 -42.62948,-3.34086 l -11.75986,-3.74177 z"
         style="opacity:0.98999999;fill:#fbbd26;fill-opacity:1;stroke:none;stroke-width:0.26458332px;stroke-linecap:butt;stroke-linejoin:miter;stroke-opacity:1" />
      <path
         sodipodi:nodetypes="ccccc"
         inkscape:connector-curvature="0"
         id="path852"
         d="m 214.35835,118.40486 v 10.18787 c 42.93762,17.17335 112.34597,8.93833 120.13765,-34.437891 V 84.684392 C 320.74665,128.28526 249.06594,138.31646 214.35835,118.40486 Z"
         style="fill:#fbbd26;fill-opacity:1;stroke:none;stroke-width:0.27462575px;stroke-linecap:butt;stroke-linejoin:miter;stroke-opacity:1" />
    </g>
    <path
       style="fill:#fed155;fill-opacity:1;stroke:none;stroke-width:0.42137331px;stroke-linecap:butt;stroke-linejoin:miter;stroke-opacity:1"
       d="m 202.95689,166.07509 0.26021,-18.79863 c 85.72253,41.19365 160.51179,-3.58284 169.19717,-29.77671 4.29812,-22.12782 -6.25611,-35.370452 -16.7174,-43.81433 l 8.46674,-13.938796 c 36.59772,27.201896 28.93507,54.319436 27.63008,64.027516 -10.4485,27.28192 -35.85057,37.06622 -62.96196,47.70634 -42.41054,13.2794 -85.73184,8.49125 -125.87484,-5.40539 z"
       id="path838"
       inkscape:connector-curvature="0"
       sodipodi:nodetypes="cccccccc" />
    <path
       style="fill:#ececec;stroke:none;stroke-width:0.47856918px;stroke-linecap:butt;stroke-linejoin:miter;stroke-opacity:1"
       d="m 221.57249,172.06984 15.36313,-12.59604 c 13.59874,2.68264 27.0054,4.40968 39.76845,4.54641 l -15.7061,14.7262 c -12.02154,-1.53769 -26.96259,-2.12605 -39.42548,-6.67657 z"
       id="path856"
       inkscape:connector-curvature="0"
       sodipodi:nodetypes="ccccc" />
    <path
       style="fill:#ececec;stroke:none;stroke-width:0.4188295px;stroke-linecap:butt;stroke-linejoin:miter;stroke-opacity:1"
       d="m 367.22562,86.371188 14.94695,-9.389783 c 6.52956,8.611718 9.10949,17.784016 9.47864,19.901886 l -18.21377,12.002289 c -0.3092,-6.96904 -0.70097,-14.260486 -6.21182,-22.514392 z"
       id="path858"
       inkscape:connector-curvature="0"
       sodipodi:nodetypes="ccccc" />
    <ellipse
       style="opacity:1;fill:#fbbd26;fill-opacity:0.99215686;stroke:none;stroke-width:0.41371927;stroke-opacity:1"
       id="path939"
       cx="242.07274"
       cy="104.7673"
       rx="47.590462"
       ry="42.748108" />
    <path
       style="opacity:1;fill:#fbbd26;fill-opacity:0.99215686;stroke:none;stroke-width:0.84616339;stroke-opacity:1"
       d="M 199.02441,21.534551 C 193.46784,15.381826 186.63692,7.9172325 183.84458,4.9465674 c -2.79234,-2.970669 -5.19373,-5.71195903 -5.33642,-6.091749 -0.4054,-1.07903 5.41325,-14.6433134 10.88074,-25.3649344 15.33675,-30.07484 40.12178,-58.933805 64.26413,-74.827264 17.5023,-11.52213 39.25411,-18.52273 52.86774,-17.01495 11.44216,1.2673 15.25065,2.85907 36.40243,15.21455 14.58305,8.518474 15.14265,8.934594 12.01551,8.934594 -1.25655,0 -2.28463,-0.40325 -2.28463,-0.896097 0,-0.49286 -0.35446,-0.67704 -0.78769,-0.40928 -0.43324,0.26776 -1.04586,0.0691 -1.3614,-0.44143 -0.37861,-0.61263 -3.05982,-0.78451 -7.88546,-0.50553 -4.85668,0.28077 -6.03324,0.20431 -3.50405,-0.22771 l 3.80772,-0.65043 -3.47808,-0.12712 c -5.50659,-0.20119 -11.64611,0.83261 -10.33376,1.74007 0.72163,0.49899 0.15433,0.58422 -1.5966,0.23984 -2.88285,-0.567 -14.63035,2.671037 -14.63035,4.032647 0,0.40125 -0.38854,0.4894 -0.86346,0.19589 -1.1222,-0.69356 -18.17488,7.837119 -21.16474,10.587736 -1.26465,1.163478 -3.01324,2.244622 -3.88572,2.402535 -4.58446,0.829782 -24.04585,19.182141 -35.15791,33.154406 -9.07898,11.415896 -14.43826,19.27908 -13.82084,20.278094 0.29162,0.471852 -0.0226,0.857917 -0.69842,0.857917 -1.33855,0 -2.63577,2.282315 -2.33274,4.104189 0.10449,0.628445 -0.17669,0.915965 -0.62493,0.638938 -1.04188,-0.643921 -8.76874,12.8286977 -8.79659,15.3378164 -0.0111,1.038642 -0.3229,1.701821 -0.69195,1.473739 -0.83825,-0.518054 -6.88039,12.0295422 -7.03922,14.6182016 -0.0643,1.046805 -0.37284,1.903547 -0.6858,1.903866 -0.44885,4.18e-4 -2.39196,4.647164 -2.83096,6.76991 -0.0482,0.232693 -0.74265,1.926046 -1.54341,3.762999 -0.80073,1.836961 -1.24699,3.88428 -0.99168,4.549607 0.45583,1.187897 -0.9028,3.533681 -2.04666,3.533681 -0.32016,0 -5.12839,-5.034047 -10.68497,-11.186772 z"
       id="path918"
       inkscape:connector-curvature="0" />
    <ellipse
       transform="matrix(0.68676912,0.72687563,-0.58618966,0.81017386,0,0)"
       ry="132.73235"
       rx="80.347519"
       cy="-202.79333"
       cx="259.78613"
       id="ellipse870"
       style="opacity:1;fill:#fed155;fill-opacity:1;stroke:none;stroke-width:0.36420554;stroke-opacity:1" />
    <ellipse
       style="opacity:1;fill:#fbbd26;fill-opacity:0.99215686;stroke:none;stroke-width:0.29659584;stroke-opacity:1"
       id="path868"
       cx="264.20245"
       cy="-206.86685"
       rx="65.314087"
       ry="108.28777"
       transform="matrix(0.67642046,0.73651569,-0.57527553,0.8179597,0,0)" />
    <path
       style="opacity:1;fill:#fed155;fill-opacity:1;stroke:none;stroke-width:0.59832793;stroke-opacity:1"
       d="m 299.67482,-11.856031 c -0.0942,-19.765859 -0.3252,-27.971827 -0.78763,-27.971827 -0.35992,0 -2.11003,0.870647 -3.88912,1.934771 l -3.23473,1.934776 v 9.380267 9.380269 l -3.7042,-2.19054 c -2.03731,-1.204797 -3.92203,-2.123231 -4.18829,-2.040961 -0.26625,0.08227 -0.48408,-1.062031 -0.48408,-2.542893 0,-3.191285 -0.62992,-3.393956 -2.32448,-0.74791 -0.68495,1.069513 -1.24988,1.613479 -1.25541,1.208815 -0.0127,-0.911981 -4.62321,-3.331224 -5.41556,-2.841533 -0.87557,0.541132 -0.69195,-0.182329 0.34493,-1.358921 0.50751,-0.57589 2.66147,-3.232597 4.78662,-5.903788 l 3.8639,-4.856717 v -6.019443 -6.019448 l 3.51863,-2.137473 c 1.93527,-1.17561 3.81999,-2.137473 4.18831,-2.137473 0.43509,0 0.66963,1.589194 0.66963,4.537329 0,2.495518 0.20193,4.441815 0.44875,4.325096 0.2468,-0.11673 1.99692,-1.002993 3.88913,-1.969493 l 3.44037,-1.757259 v -5.231028 -5.231028 l 3.79706,-2.123424 c 2.08837,-1.167893 3.9731,-2.123435 4.18828,-2.123435 0.21519,0 0.39125,2.692475 0.39125,5.983283 v 5.983273 h 3.57291 c 8.8648,0 15.97745,6.861235 17.9623,17.32737 1.19841,6.319157 1.0365,6.806247 -2.97249,8.943023 -1.96647,1.048116 -3.76587,1.960684 -3.99865,2.027927 -0.23281,0.06725 -0.74889,-1.762476 -1.14688,-4.066039 -1.30735,-7.566879 -5.4217,-12.547516 -10.9811,-13.293192 l -2.43609,-0.326745 v 16.831962 c 0,9.257576 -0.10195,16.8319577 -0.22666,16.8319577 -0.12474,0 -1.80748,-0.952231 -3.73956,-2.1160687 l -3.51286,-2.116074 -0.31554,14.2322119 c -0.25414,11.4637841 -0.34143,8.7911771 -0.44874,-13.7396179 z"
       id="path872"
       inkscape:connector-curvature="0" />
    <path
       style="opacity:1;fill:#fed155;fill-opacity:1;stroke:none;stroke-width:0.59832793;stroke-opacity:1"
       d="m 308.02272,69.516563 c -0.0575,-3.537615 -0.30647,-6.368831 -0.55328,-6.291599 -0.24681,0.07724 -1.99692,-0.750266 -3.88913,-1.838896 l -3.44038,-1.979321 -0.0709,-14.166377 c -0.039,-7.791505 -0.0272,-14.502934 0.0263,-14.914284 0.16038,-1.235052 -1.57922,-0.854697 -5.05018,1.104191 l -3.28173,1.852096 v 10.413622 c 0,5.727494 -0.23534,10.413622 -0.52297,10.413622 -0.78953,0 -5.85372,-2.921277 -6.57885,-3.795005 -0.34932,-0.420911 -0.71174,-3.845249 -0.80538,-7.609642 l -0.17022,-6.844354 -4.1883,-0.350501 c -8.54212,-0.714858 -13.01256,-4.365158 -16.4242,-13.411038 -1.82051,-4.82699 -1.95458,-13.7883124 -0.33124,-22.13813063 0.63978,-3.29080197 1.2465,-5.57346967 1.34827,-5.07259167 0.10174,0.5008787 1.59762,1.5720937 3.32412,2.3804767 l 3.13909,1.469785 -0.5649,4.1732421 c -1.08057,7.9826285 1.34875,15.6120135 6.14936,19.3124195 2.21052,1.703907 6.27596,3.141046 6.95753,2.459488 0.13836,-0.138289 0.29394,-4.54588 0.34591,-9.794652 0.0519,-5.2487703 0.21284,-9.221981 0.35751,-8.8293615 0.14468,0.3926239 1.99581,1.7274922 4.11364,2.9663763 l 3.85063,2.2525202 v 5.858961 c 0,3.630862 0.23498,5.85896 0.6179,5.85896 0.33985,0 2.09907,-0.740432 3.90939,-1.645401 2.50476,-1.252125 3.37604,-2.038683 3.64517,-3.290807 0.19454,-0.904969 0.49552,-1.645401 0.66886,-1.645401 0.17333,0 2.36098,1.17921 4.86142,2.62047 2.50043,1.441255 5.4886,3.15746 6.64039,3.813782 8.43233,4.805017 13.66061,7.823408 14.82686,8.559832 1.16845,0.737803 1.43959,0.740935 1.8871,0.02178 0.80929,-1.300529 1.43251,6.328242 1.08755,13.312698 -0.38737,7.843001 -2.19308,14.747074 -6.2224,23.791036 l -1.49512,3.355876 -3.1143,-1.560893 -3.11432,-1.560895 1.05347,-2.193129 c 1.91102,-3.978378 4.0337,-11.278472 4.59565,-15.804892 1.2911,-10.399416 -1.86575,-19.084697 -7.93921,-21.842767 -1.35453,-0.615114 -3.13589,-1.124458 -3.95859,-1.131871 l -1.49583,-0.01346 0.19206,21.390567 c 0.10555,11.764804 0.0853,22.602173 -0.0451,24.083036 -0.13043,1.48086 -0.28414,-0.201934 -0.34164,-3.739549 z"
       id="path874"
       inkscape:connector-curvature="0" />
    <path
       style="opacity:1;fill:#fed155;fill-opacity:1;stroke:none;stroke-width:0.59832793;stroke-opacity:1"
       d="m 283.98508,109.24215 v -4.10194 l -4.40926,-0.33347 c -6.60465,-0.49951 -11.09397,-3.32158 -14.43206,-9.072258 -1.7386,-2.995196 -3.30254,-8.904671 -3.27982,-12.393162 0.0163,-2.505257 0.14136,-2.681364 3.23114,-4.550678 4.5298,-2.740519 4.90057,-2.625006 5.28799,1.647541 0.5942,6.553002 5.24746,12.482396 10.7741,13.728854 1.19333,0.269141 2.31778,0.341242 2.4988,0.160224 0.18101,-0.181015 0.32911,-3.649835 0.32911,-7.708495 0,-4.058659 0.18018,-7.379378 0.40037,-7.379378 0.22021,0 1.83161,0.807743 3.5809,1.794986 1.74929,0.987239 3.31924,1.794983 3.48877,1.794983 0.16951,0 0.36992,-6.394632 0.44532,-14.210287 l 0.13709,-14.210287 0.31163,19.287828 0.31167,19.287823 3.98407,-2.42705 3.98411,-2.427046 2.29833,1.431933 c 2.60563,1.623379 4.48189,2.476387 5.1404,2.336993 0.24682,-0.05223 0.44876,1.642223 0.44876,3.765479 v 3.860468 l -3.62202,2.122809 c -1.99211,1.16755 -3.87685,2.12281 -4.18829,2.12281 -0.31145,0 -0.56627,-1.23405 -0.56627,-2.74234 0,-1.50828 -0.22452,-2.65258 -0.49895,-2.542889 -0.27441,0.109701 -2.02386,1.007189 -3.8877,1.994429 l -3.38877,1.79498 -0.001,3.04849 c -8.4e-4,2.15754 -0.30743,3.31363 -1.04849,3.95568 -1.21809,1.05535 -6.35134,4.0649 -6.93332,4.0649 -0.2179,0 -0.39617,-1.84587 -0.39617,-4.10193 z"
       id="path876"
       inkscape:connector-curvature="0" />
    <path
       style="opacity:1;fill:#ececec;fill-opacity:1;stroke:none;stroke-width:0.59832793;stroke-opacity:1"
       d="m 303.87947,89.839586 -3.73954,-2.352967 v -13.69686 c 0,-7.533274 0.20194,-13.686381 0.44874,-13.673569 0.24682,0.01282 1.9296,0.90633 3.73954,1.985595 l 3.29081,1.962296 0.15703,7.438073 c 0.0863,4.090938 0.28791,7.795716 0.44795,8.232836 0.37626,1.027748 2.31099,-1.305858 5.37143,-6.478878 1.2655,-2.139022 2.36718,-3.977939 2.44819,-4.086482 0.25569,-0.342582 5.02838,2.567685 5.03322,3.06912 0.0158,1.585407 -5.52179,9.95442 -10.15639,15.350947 -1.56682,1.824396 -2.95062,3.606385 -3.07506,3.959975 -0.12728,0.361528 -1.8629,-0.386874 -3.96587,-1.710086 z"
       id="path878"
       inkscape:connector-curvature="0" />
    <path
       style="opacity:1;fill:#ececec;fill-opacity:1;stroke:none;stroke-width:0.59832793;stroke-opacity:1"
       d="m 287.72462,80.659786 -3.73954,-2.127855 v -13.96231 -13.96231 l 3.88913,2.161637 3.88913,2.161634 v 13.94939 c 0,7.67216 -0.0673,13.939998 -0.14959,13.928526 -0.0824,-0.0114 -1.83238,-0.978393 -3.88914,-2.148712 z"
       id="path880"
       inkscape:connector-curvature="0" />
    <path
       style="opacity:1;fill:#ececec;fill-opacity:1;stroke:none;stroke-width:0.59832793;stroke-opacity:1"
       d="m 267.23188,-3.1325416 c -1.48086,-0.86956 -2.79589,-1.6647877 -2.9223,-1.7671747 -0.78306,-0.634301 6.72122,-16.9158787 9.455,-20.5139467 l 1.09524,-1.441486 2.31888,1.395808 c 1.2754,0.767698 2.40497,1.457568 2.51017,1.53305 0.10524,0.07548 -1.01578,2.250015 -2.49108,4.8323 -1.4753,2.582286 -3.54476,7.118292 -4.59879,10.0800157 -1.05404,2.961724 -2.08703,5.8523887 -2.29554,6.4236967 -0.34456,0.944105 -0.62444,0.894695 -3.07158,-0.542263 z"
       id="path882"
       inkscape:connector-curvature="0" />
    <path
       style="opacity:1;fill:#ececec;fill-opacity:1;stroke:none;stroke-width:0.59832793;stroke-opacity:1"
       d="M 287.42545,8.4944931 283.98506,6.6083866 V -7.3902193 -21.388829 l 3.73955,2.100007 3.73955,2.100007 0.16061,13.8102454 c 0.0883,7.5956364 -0.0463,13.7987566 -0.29917,13.7847096 -0.25287,-0.01403 -2.00794,-0.8742897 -3.90015,-1.9116469 z"
       id="path884"
       inkscape:connector-curvature="0" />
    <path
       style="opacity:1;fill:#ececec;fill-opacity:1;stroke:none;stroke-width:0.59832793;stroke-opacity:1"
       d="M 314.34665,23.770643 300.13991,15.662426 V 1.7147487 -12.232931 l 3.87439,2.207806 3.8744,2.2078047 0.16432,12.4455101 0.16432,12.4455112 3.89992,0.188548 c 4.27639,0.206747 8.5431,2.00794 11.58257,4.889588 1.58767,1.505228 5.58764,8.992949 5.0769,9.503686 -0.12284,0.122835 -6.61637,-3.42536 -14.43008,-7.88488 z"
       id="path886"
       inkscape:connector-curvature="0" />
    <path
       style="fill:#ececec;stroke:none;stroke-width:0.4188295px;stroke-linecap:butt;stroke-linejoin:miter;stroke-opacity:1"
       d="m 274.37692,125.27025 19.25021,11.00012 c 11.87762,-5.73531 20.21396,-12.84775 29.08687,-20.20215 l -13.11555,-8.03856 c -8.99565,6.52017 -17.91983,12.92973 -35.22153,17.24059 z"
       id="path904"
       inkscape:connector-curvature="0"
       sodipodi:nodetypes="ccccc" />
    <path
       style="fill:#ececec;stroke:none;stroke-width:0.4188295px;stroke-linecap:butt;stroke-linejoin:miter;stroke-opacity:1"
       d="m 251.45098,-45.902155 13.38759,8.600964 c 8.78225,-8.856719 15.68959,-16.692045 25.12978,-22.736456 L 274.711,-69.461309 c -9.67105,7.201854 -16.36303,15.56472 -23.26002,23.559154 z"
       id="path906"
       inkscape:connector-curvature="0"
       sodipodi:nodetypes="ccccc" />
    <path
       style="fill:#00d400;stroke:none;stroke-width:0.41882947px;stroke-linecap:butt;stroke-linejoin:miter;stroke-opacity:1"
       d="m 124.3894,19.844745 56.60392,-127.217245 57.22771,61.999512 -29.52943,16.789475 0.73507,220.522303 -55.27047,31.63658 v 0 L 152.65522,4.2801714 Z"
       id="path4545"
       inkscape:connector-curvature="0"
       sodipodi:nodetypes="ccccccccc" />
    <path
       style="fill:#005500;fill-opacity:1;stroke:none;stroke-width:0.41882947px;stroke-linecap:butt;stroke-linejoin:miter;stroke-opacity:1"
       d="M 124.3894,19.844739 106.14041,9.1496353 162.74947,-118.35993 l 18.24385,10.98742 z"
       id="path4549"
       inkscape:connector-curvature="0" />
    <path
       style="fill:#005500;fill-opacity:1;stroke:none;stroke-width:0.41882947px;stroke-linecap:butt;stroke-linejoin:miter;stroke-opacity:1"
       d="M 136.47236,213.49404 154.1562,223.57537 152.65522,4.2801714 134.97343,13.985385 Z"
       id="path4553"
       inkscape:connector-curvature="0"
       sodipodi:nodetypes="ccccc" />
  </g>
</svg>
