<?xml version="1.0" encoding="UTF-8" standalone="no"?>
<!-- Created with Inkscape (http://www.inkscape.org/) -->

<svg
   xmlns:dc="http://purl.org/dc/elements/1.1/"
   xmlns:cc="http://creativecommons.org/ns#"
   xmlns:rdf="http://www.w3.org/1999/02/22-rdf-syntax-ns#"
   xmlns:svg="http://www.w3.org/2000/svg"
   xmlns="http://www.w3.org/2000/svg"
   xmlns:sodipodi="http://sodipodi.sourceforge.net/DTD/sodipodi-0.dtd"
   xmlns:inkscape="http://www.inkscape.org/namespaces/inkscape"
   width="500mm"
   height="507mm"
   viewBox="0 0 500 507"
   version="1.1"
   id="svg8"
   inkscape:version="0.92.4 (5da689c313, 2019-01-14)"
   sodipodi:docname="shopping_icon.svg">
  <defs
     id="defs2" />
  <sodipodi:namedview
     id="base"
     pagecolor="#ffffff"
     bordercolor="#666666"
     borderopacity="1.0"
     inkscape:pageopacity="0.0"
     inkscape:pageshadow="2"
     inkscape:zoom="0.70000002"
     inkscape:cx="557.51942"
     inkscape:cy="889.64618"
     inkscape:document-units="mm"
     inkscape:current-layer="layer1"
     showgrid="false"
     inkscape:window-width="1600"
     inkscape:window-height="877"
     inkscape:window-x="-8"
     inkscape:window-y="-8"
     inkscape:window-maximized="1" />
  <metadata
     id="metadata5">
    <rdf:RDF>
      <cc:Work
         rdf:about="">
        <dc:format>image/svg+xml</dc:format>
        <dc:type
           rdf:resource="http://purl.org/dc/dcmitype/StillImage" />
        <dc:title />
      </cc:Work>
    </rdf:RDF>
  </metadata>
  <g
     inkscape:label="Camada 1"
     inkscape:groupmode="layer"
     id="layer1"
     transform="translate(0,210)">
    <text
       xml:space="preserve"
       style="font-style:normal;font-weight:normal;font-size:10.58333302px;line-height:1.25;font-family:sans-serif;letter-spacing:0px;word-spacing:0px;fill:#000000;fill-opacity:1;stroke:none;stroke-width:0.26458332"
       x="261.55951"
       y="159.03868"
       id="text850"><tspan
         sodipodi:role="line"
         id="tspan848"
         x="261.55951"
         y="168.69418"
         style="stroke-width:0.26458332" /></text>
    <path
       style="fill:#e18bee;fill-opacity:1;stroke:none;stroke-width:0.26711923px;stroke-linecap:butt;stroke-linejoin:miter;stroke-opacity:1"
       d="M 86.158611,-27.799294 134.79979,-0.46972475 147.02803,213.61191 66.593457,166.45499 Z"
       id="path864"
       inkscape:connector-curvature="0" />
    <path
       style="fill:#c36dd0;fill-opacity:1;stroke:none;stroke-width:0.2655966px;stroke-linecap:butt;stroke-linejoin:miter;stroke-opacity:1"
       d="m 66.593457,166.21147 39.288503,-16.42855 4.00904,-164.285555 4.54358,2.423885 1.33635,162.66964 29.93418,63.02102 -36.61592,-57.36529 z"
       id="path866"
       inkscape:connector-curvature="0" />
    <path
       style="fill:#d781e4;fill-opacity:1;stroke:none;stroke-width:0.26458332px;stroke-linecap:butt;stroke-linejoin:miter;stroke-opacity:1"
       d="M 85.836821,-27.197941 240.31853,-116.73323 288.42705,-88.402658 133.67799,0.06355096 Z"
       id="path868"
       inkscape:connector-curvature="0" />
    <path
       style="fill:#e4a2ea;fill-opacity:1;stroke:none;stroke-width:0.26458332px;stroke-linecap:butt;stroke-linejoin:miter;stroke-opacity:1"
       d="m 240.42924,-61.219448 -0.11071,-55.513782 48.10852,28.330572 z"
       id="path870"
       inkscape:connector-curvature="0"
       sodipodi:nodetypes="cccc" />
    <path
       style="fill:#000000;fill-opacity:1;stroke:none;stroke-width:0.26458332px;stroke-linecap:butt;stroke-linejoin:miter;stroke-opacity:1"
       d="m 124.91293,-49.737802 c 7.87215,-18.594046 14.24355,-35.8615 36.37349,-49.934785 19.20908,-8.750803 37.20618,-8.293693 50.0075,-0.313123 l -6.69286,4.088958 c -9.07524,-7.585568 -22.47071,-7.433838 -39.37831,2.069371 -16.15218,7.239108 -23.74261,22.104523 -30.72677,38.511648 z"
       id="path872"
       inkscape:connector-curvature="0"
       sodipodi:nodetypes="ccccccc" />
    <path
       style="fill:#000000;fill-opacity:1;stroke:none;stroke-width:0.26458332px;stroke-linecap:butt;stroke-linejoin:miter;stroke-opacity:1"
       d="m 162.14219,-2.6091402 c 1.64592,2.92450365 4.81933,1.62700177 6.81537,0 3.70209,-12.3781148 7.43588,-24.7475828 14.9671,-36.0813878 8.41961,-9.787141 13.90737,-20.401219 35.54684,-26.459682 22.76875,-3.93234 27.12095,4.127499 35.41322,9.621704 4.68354,2.339733 5.50573,-0.498471 5.47902,-3.60814 -7.28292,-11.462963 -37.53057,-15.687837 -41.82768,-12.828936 -13.8167,2.858565 -24.06749,12.20293 -34.34413,21.782465 -7.68819,10.801697 -13.42184,20.887893 -17.77343,33.408692 z"
       id="path874"
       inkscape:connector-curvature="0"
       sodipodi:nodetypes="cccccccccc" />
    <path
       style="fill:#f8b6fe;fill-opacity:1;stroke:none;stroke-width:0.26479021px;stroke-linecap:butt;stroke-linejoin:miter;stroke-opacity:1"
       d="M 145.70511,213.61191 133.67799,-0.27052313 288.42705,-88.875124 303.74152,122.61083 Z"
       id="path876"
       inkscape:connector-curvature="0"
       sodipodi:nodetypes="ccccc" />
    <ellipse
       style="opacity:1;fill:#ffffff;fill-opacity:1;stroke:none;stroke-width:0.6401428;stroke-miterlimit:4;stroke-dasharray:none;stroke-opacity:0.87999998"
       id="path903"
       cx="-82.473717"
       cy="283.8494"
       rx="61.480721"
       ry="37.40007"
       transform="matrix(0.75663616,-0.65383616,0.99986092,0.01667754,0,0)" />
    <path
       inkscape:connector-curvature="0"
       id="path912"
       d="M 223.74208,3.9507066 272.38334,31.280277 284.61158,245.36193 204.17687,198.20501 Z"
       style="fill:#666db5;fill-opacity:1;stroke:none;stroke-width:0.26711923px;stroke-linecap:butt;stroke-linejoin:miter;stroke-opacity:1" />
    <path
       inkscape:connector-curvature="0"
       id="path914"
       d="m 204.17687,197.96149 39.28864,-16.42855 4.00904,-164.285575 4.54358,2.423885 1.33635,162.66966 29.93418,63.02102 -36.61592,-57.36529 z"
       style="fill:#4e55a3;fill-opacity:1;stroke:none;stroke-width:0.2655966px;stroke-linecap:butt;stroke-linejoin:miter;stroke-opacity:1" />
    <path
       inkscape:connector-curvature="0"
       id="path916"
       d="M 223.42029,4.5520596 377.90208,-84.983219 426.0106,-56.652656 271.26154,31.813552 Z"
       style="fill:#4f56a4;fill-opacity:1;stroke:none;stroke-width:0.26458332px;stroke-linecap:butt;stroke-linejoin:miter;stroke-opacity:1" />
    <path
       sodipodi:nodetypes="cccc"
       inkscape:connector-curvature="0"
       id="path918"
       d="m 378.01279,-29.469446 -0.11071,-55.513773 48.10852,28.330563 z"
       style="fill:#666db5;fill-opacity:1;stroke:none;stroke-width:0.26458332px;stroke-linecap:butt;stroke-linejoin:miter;stroke-opacity:1" />
    <path
       sodipodi:nodetypes="ccccccc"
       inkscape:connector-curvature="0"
       id="path920"
       d="m 262.49648,-17.9878 c 7.87215,-18.594046 14.24355,-35.8615 36.37349,-49.934785 19.20908,-8.7508 37.20618,-8.29369 50.0075,-0.313123 l -6.69286,4.088958 c -9.07524,-7.585568 -22.47071,-7.433838 -39.37831,2.069371 -16.15218,7.239108 -23.74261,22.104523 -30.72677,38.511648 z"
       style="fill:#000000;fill-opacity:1;stroke:none;stroke-width:0.26458332px;stroke-linecap:butt;stroke-linejoin:miter;stroke-opacity:1" />
    <path
       sodipodi:nodetypes="cccccccccc"
       inkscape:connector-curvature="0"
       id="path922"
       d="m 299.72574,29.140861 c 1.64592,2.924504 4.81933,1.627002 6.81537,0 3.70209,-12.378116 7.43588,-24.7475834 14.9671,-36.0813873 8.41961,-9.7871407 13.90737,-20.4012187 35.54684,-26.4596817 22.76875,-3.93234 27.12095,4.127499 35.41322,9.621704 4.68354,2.339733 5.50573,-0.498471 5.47902,-3.60814 -7.28292,-11.462963 -37.53057,-15.687837 -41.82768,-12.828936 -13.8167,2.858565 -24.06749,12.20293 -34.34413,21.782465 -7.68819,10.8016967 -13.42184,20.8878916 -17.77343,33.40869 z"
       style="fill:#000000;fill-opacity:1;stroke:none;stroke-width:0.26458332px;stroke-linecap:butt;stroke-linejoin:miter;stroke-opacity:1" />
    <path
       sodipodi:nodetypes="ccccc"
       inkscape:connector-curvature="0"
       id="path924"
       d="M 283.28866,245.36193 271.26154,31.435588 426.0106,-57.187195 441.32507,154.34218 Z"
       style="fill:#8185c2;fill-opacity:1;stroke:none;stroke-width:0.26481736px;stroke-linecap:butt;stroke-linejoin:miter;stroke-opacity:1" />
    <ellipse
       transform="matrix(0.75663616,-0.65383616,0.99986092,0.01667754,0,0)"
       ry="37.40007"
       rx="61.480721"
       cy="454.89719"
       cx="-126.67033"
       id="ellipse926"
       style="opacity:1;fill:#ffffff;fill-opacity:1;stroke:none;stroke-width:0.6401428;stroke-miterlimit:4;stroke-dasharray:none;stroke-opacity:0.87999998" />
  </g>
</svg>
